<?xml version="1.0" encoding="utf-8"?>
<svg xmlns="http://www.w3.org/2000/svg" xmlns:xlink="http://www.w3.org/1999/xlink" width="600" height="400" viewBox="0 0 2400 1600">
<defs>
  <clipPath id="clip040">
    <rect x="0" y="0" width="2400" height="1600"/>
  </clipPath>
</defs>
<path clip-path="url(#clip040)" d="M0 1600 L2400 1600 L2400 8.88178e-14 L0 8.88178e-14  Z" fill="#ffffff" fill-rule="evenodd" fill-opacity="1"/>
<defs>
  <clipPath id="clip041">
    <rect x="480" y="0" width="1681" height="1600"/>
  </clipPath>
</defs>
<path clip-path="url(#clip040)" d="M219.866 1423.18 L2352.76 1423.18 L2352.76 123.472 L219.866 123.472  Z" fill="#ffffff" fill-rule="evenodd" fill-opacity="1"/>
<defs>
  <clipPath id="clip042">
    <rect x="219" y="123" width="2134" height="1301"/>
  </clipPath>
</defs>
<polyline clip-path="url(#clip042)" style="stroke:#000000; stroke-linecap:round; stroke-linejoin:round; stroke-width:2; stroke-opacity:0.1; fill:none" points="503.804,1423.18 503.804,123.472 "/>
<polyline clip-path="url(#clip042)" style="stroke:#000000; stroke-linecap:round; stroke-linejoin:round; stroke-width:2; stroke-opacity:0.1; fill:none" points="950.951,1423.18 950.951,123.472 "/>
<polyline clip-path="url(#clip042)" style="stroke:#000000; stroke-linecap:round; stroke-linejoin:round; stroke-width:2; stroke-opacity:0.1; fill:none" points="1398.1,1423.18 1398.1,123.472 "/>
<polyline clip-path="url(#clip042)" style="stroke:#000000; stroke-linecap:round; stroke-linejoin:round; stroke-width:2; stroke-opacity:0.1; fill:none" points="1845.24,1423.18 1845.24,123.472 "/>
<polyline clip-path="url(#clip042)" style="stroke:#000000; stroke-linecap:round; stroke-linejoin:round; stroke-width:2; stroke-opacity:0.1; fill:none" points="2292.39,1423.18 2292.39,123.472 "/>
<polyline clip-path="url(#clip040)" style="stroke:#000000; stroke-linecap:round; stroke-linejoin:round; stroke-width:4; stroke-opacity:1; fill:none" points="219.866,1423.18 2352.76,1423.18 "/>
<polyline clip-path="url(#clip040)" style="stroke:#000000; stroke-linecap:round; stroke-linejoin:round; stroke-width:4; stroke-opacity:1; fill:none" points="503.804,1423.18 503.804,1404.28 "/>
<polyline clip-path="url(#clip040)" style="stroke:#000000; stroke-linecap:round; stroke-linejoin:round; stroke-width:4; stroke-opacity:1; fill:none" points="950.951,1423.18 950.951,1404.28 "/>
<polyline clip-path="url(#clip040)" style="stroke:#000000; stroke-linecap:round; stroke-linejoin:round; stroke-width:4; stroke-opacity:1; fill:none" points="1398.1,1423.18 1398.1,1404.28 "/>
<polyline clip-path="url(#clip040)" style="stroke:#000000; stroke-linecap:round; stroke-linejoin:round; stroke-width:4; stroke-opacity:1; fill:none" points="1845.24,1423.18 1845.24,1404.28 "/>
<polyline clip-path="url(#clip040)" style="stroke:#000000; stroke-linecap:round; stroke-linejoin:round; stroke-width:4; stroke-opacity:1; fill:none" points="2292.39,1423.18 2292.39,1404.28 "/>
<path clip-path="url(#clip040)" d="M498.457 1481.64 L514.777 1481.64 L514.777 1485.58 L492.832 1485.58 L492.832 1481.64 Q495.494 1478.89 500.078 1474.26 Q504.684 1469.61 505.865 1468.27 Q508.11 1465.74 508.99 1464.01 Q509.892 1462.25 509.892 1460.56 Q509.892 1457.8 507.948 1456.07 Q506.027 1454.33 502.925 1454.33 Q500.726 1454.33 498.272 1455.09 Q495.841 1455.86 493.064 1457.41 L493.064 1452.69 Q495.888 1451.55 498.341 1450.97 Q500.795 1450.39 502.832 1450.39 Q508.203 1450.39 511.397 1453.08 Q514.591 1455.77 514.591 1460.26 Q514.591 1462.39 513.781 1464.31 Q512.994 1466.2 510.888 1468.8 Q510.309 1469.47 507.207 1472.69 Q504.105 1475.88 498.457 1481.64 Z" fill="#000000" fill-rule="nonzero" fill-opacity="1" /><path clip-path="url(#clip040)" d="M953.96 1455.09 L942.155 1473.54 L953.96 1473.54 L953.96 1455.09 M952.733 1451.02 L958.613 1451.02 L958.613 1473.54 L963.544 1473.54 L963.544 1477.43 L958.613 1477.43 L958.613 1485.58 L953.96 1485.58 L953.96 1477.43 L938.359 1477.43 L938.359 1472.92 L952.733 1451.02 Z" fill="#000000" fill-rule="nonzero" fill-opacity="1" /><path clip-path="url(#clip040)" d="M1398.5 1466.44 Q1395.35 1466.44 1393.5 1468.59 Q1391.67 1470.74 1391.67 1474.49 Q1391.67 1478.22 1393.5 1480.39 Q1395.35 1482.55 1398.5 1482.55 Q1401.65 1482.55 1403.48 1480.39 Q1405.33 1478.22 1405.33 1474.49 Q1405.33 1470.74 1403.48 1468.59 Q1401.65 1466.44 1398.5 1466.44 M1407.79 1451.78 L1407.79 1456.04 Q1406.03 1455.21 1404.22 1454.77 Q1402.44 1454.33 1400.68 1454.33 Q1396.05 1454.33 1393.6 1457.45 Q1391.16 1460.58 1390.82 1466.9 Q1392.18 1464.89 1394.24 1463.82 Q1396.3 1462.73 1398.78 1462.73 Q1403.99 1462.73 1407 1465.9 Q1410.03 1469.05 1410.03 1474.49 Q1410.03 1479.82 1406.88 1483.03 Q1403.73 1486.25 1398.5 1486.25 Q1392.51 1486.25 1389.34 1481.67 Q1386.16 1477.06 1386.16 1468.33 Q1386.16 1460.14 1390.05 1455.28 Q1393.94 1450.39 1400.49 1450.39 Q1402.25 1450.39 1404.04 1450.74 Q1405.84 1451.09 1407.79 1451.78 Z" fill="#000000" fill-rule="nonzero" fill-opacity="1" /><path clip-path="url(#clip040)" d="M1845.24 1469.17 Q1841.91 1469.17 1839.99 1470.95 Q1838.09 1472.73 1838.09 1475.86 Q1838.09 1478.98 1839.99 1480.77 Q1841.91 1482.55 1845.24 1482.55 Q1848.58 1482.55 1850.5 1480.77 Q1852.42 1478.96 1852.42 1475.86 Q1852.42 1472.73 1850.5 1470.95 Q1848.6 1469.17 1845.24 1469.17 M1840.57 1467.18 Q1837.56 1466.44 1835.87 1464.38 Q1834.2 1462.32 1834.2 1459.35 Q1834.2 1455.21 1837.14 1452.8 Q1840.11 1450.39 1845.24 1450.39 Q1850.41 1450.39 1853.35 1452.8 Q1856.29 1455.21 1856.29 1459.35 Q1856.29 1462.32 1854.6 1464.38 Q1852.93 1466.44 1849.94 1467.18 Q1853.32 1467.96 1855.2 1470.26 Q1857.1 1472.55 1857.1 1475.86 Q1857.1 1480.88 1854.02 1483.57 Q1850.96 1486.25 1845.24 1486.25 Q1839.53 1486.25 1836.45 1483.57 Q1833.39 1480.88 1833.39 1475.86 Q1833.39 1472.55 1835.29 1470.26 Q1837.19 1467.96 1840.57 1467.18 M1838.86 1459.79 Q1838.86 1462.48 1840.52 1463.98 Q1842.21 1465.49 1845.24 1465.49 Q1848.25 1465.49 1849.94 1463.98 Q1851.66 1462.48 1851.66 1459.79 Q1851.66 1457.11 1849.94 1455.6 Q1848.25 1454.1 1845.24 1454.1 Q1842.21 1454.1 1840.52 1455.6 Q1838.86 1457.11 1838.86 1459.79 Z" fill="#000000" fill-rule="nonzero" fill-opacity="1" /><path clip-path="url(#clip040)" d="M2267.08 1481.64 L2274.72 1481.64 L2274.72 1455.28 L2266.41 1456.95 L2266.41 1452.69 L2274.67 1451.02 L2279.35 1451.02 L2279.35 1481.64 L2286.99 1481.64 L2286.99 1485.58 L2267.08 1485.58 L2267.08 1481.64 Z" fill="#000000" fill-rule="nonzero" fill-opacity="1" /><path clip-path="url(#clip040)" d="M2306.43 1454.1 Q2302.82 1454.1 2300.99 1457.66 Q2299.19 1461.2 2299.19 1468.33 Q2299.19 1475.44 2300.99 1479.01 Q2302.82 1482.55 2306.43 1482.55 Q2310.06 1482.55 2311.87 1479.01 Q2313.7 1475.44 2313.7 1468.33 Q2313.7 1461.2 2311.87 1457.66 Q2310.06 1454.1 2306.43 1454.1 M2306.43 1450.39 Q2312.24 1450.39 2315.3 1455 Q2318.37 1459.58 2318.37 1468.33 Q2318.37 1477.06 2315.3 1481.67 Q2312.24 1486.25 2306.43 1486.25 Q2300.62 1486.25 2297.54 1481.67 Q2294.49 1477.06 2294.49 1468.33 Q2294.49 1459.58 2297.54 1455 Q2300.62 1450.39 2306.43 1450.39 Z" fill="#000000" fill-rule="nonzero" fill-opacity="1" /><path clip-path="url(#clip040)" d="M1193.28 1520.52 L1200.18 1520.52 L1211.99 1538.19 L1223.86 1520.52 L1230.77 1520.52 L1215.49 1543.34 L1231.79 1568.04 L1224.88 1568.04 L1211.51 1547.83 L1198.05 1568.04 L1191.11 1568.04 L1208.08 1542.68 L1193.28 1520.52 Z" fill="#000000" fill-rule="nonzero" fill-opacity="1" /><path clip-path="url(#clip040)" d="M1233.76 1547.58 L1250.92 1547.58 L1250.92 1552.8 L1233.76 1552.8 L1233.76 1547.58 Z" fill="#000000" fill-rule="nonzero" fill-opacity="1" /><path clip-path="url(#clip040)" d="M1276.44 1550.12 Q1269.35 1550.12 1266.61 1551.75 Q1263.87 1553.37 1263.87 1557.29 Q1263.87 1560.4 1265.91 1562.25 Q1267.98 1564.07 1271.51 1564.07 Q1276.38 1564.07 1279.31 1560.63 Q1282.27 1557.16 1282.27 1551.43 L1282.27 1550.12 L1276.44 1550.12 M1288.13 1547.71 L1288.13 1568.04 L1282.27 1568.04 L1282.27 1562.63 Q1280.26 1565.88 1277.27 1567.44 Q1274.28 1568.97 1269.95 1568.97 Q1264.48 1568.97 1261.23 1565.91 Q1258.02 1562.82 1258.02 1557.67 Q1258.02 1551.65 1262.03 1548.6 Q1266.07 1545.54 1274.06 1545.54 L1282.27 1545.54 L1282.27 1544.97 Q1282.27 1540.93 1279.6 1538.73 Q1276.95 1536.5 1272.15 1536.5 Q1269.09 1536.5 1266.2 1537.23 Q1263.3 1537.97 1260.63 1539.43 L1260.63 1534.02 Q1263.84 1532.78 1266.86 1532.17 Q1269.89 1531.54 1272.75 1531.54 Q1280.49 1531.54 1284.31 1535.55 Q1288.13 1539.56 1288.13 1547.71 Z" fill="#000000" fill-rule="nonzero" fill-opacity="1" /><path clip-path="url(#clip040)" d="M1329.82 1532.4 L1316.93 1549.74 L1330.49 1568.04 L1323.58 1568.04 L1313.21 1554.04 L1302.83 1568.04 L1295.92 1568.04 L1309.77 1549.39 L1297.1 1532.4 L1304.01 1532.4 L1313.46 1545.1 L1322.91 1532.4 L1329.82 1532.4 Z" fill="#000000" fill-rule="nonzero" fill-opacity="1" /><path clip-path="url(#clip040)" d="M1338.76 1532.4 L1344.62 1532.4 L1344.62 1568.04 L1338.76 1568.04 L1338.76 1532.4 M1338.76 1518.52 L1344.62 1518.52 L1344.62 1525.93 L1338.76 1525.93 L1338.76 1518.52 Z" fill="#000000" fill-rule="nonzero" fill-opacity="1" /><path clip-path="url(#clip040)" d="M1379.6 1533.45 L1379.6 1538.98 Q1377.12 1537.71 1374.44 1537.07 Q1371.77 1536.44 1368.91 1536.44 Q1364.55 1536.44 1362.35 1537.77 Q1360.19 1539.11 1360.19 1541.79 Q1360.19 1543.82 1361.74 1545 Q1363.3 1546.15 1368.01 1547.2 L1370.02 1547.64 Q1376.26 1548.98 1378.87 1551.43 Q1381.51 1553.85 1381.51 1558.21 Q1381.51 1563.17 1377.56 1566.07 Q1373.65 1568.97 1366.77 1568.97 Q1363.91 1568.97 1360.79 1568.39 Q1357.7 1567.85 1354.27 1566.74 L1354.27 1560.69 Q1357.51 1562.38 1360.66 1563.24 Q1363.81 1564.07 1366.9 1564.07 Q1371.04 1564.07 1373.27 1562.66 Q1375.49 1561.23 1375.49 1558.65 Q1375.49 1556.27 1373.87 1554.99 Q1372.28 1553.72 1366.84 1552.54 L1364.8 1552.07 Q1359.36 1550.92 1356.94 1548.56 Q1354.52 1546.18 1354.52 1542.04 Q1354.52 1537.01 1358.08 1534.27 Q1361.65 1531.54 1368.21 1531.54 Q1371.45 1531.54 1374.32 1532.01 Q1377.18 1532.49 1379.6 1533.45 Z" fill="#000000" fill-rule="nonzero" fill-opacity="1" /><polyline clip-path="url(#clip042)" style="stroke:#000000; stroke-linecap:round; stroke-linejoin:round; stroke-width:2; stroke-opacity:0.1; fill:none" points="219.866,1183.15 2352.76,1183.15 "/>
<polyline clip-path="url(#clip042)" style="stroke:#000000; stroke-linecap:round; stroke-linejoin:round; stroke-width:2; stroke-opacity:0.1; fill:none" points="219.866,911.363 2352.76,911.363 "/>
<polyline clip-path="url(#clip042)" style="stroke:#000000; stroke-linecap:round; stroke-linejoin:round; stroke-width:2; stroke-opacity:0.1; fill:none" points="219.866,639.573 2352.76,639.573 "/>
<polyline clip-path="url(#clip042)" style="stroke:#000000; stroke-linecap:round; stroke-linejoin:round; stroke-width:2; stroke-opacity:0.1; fill:none" points="219.866,367.784 2352.76,367.784 "/>
<polyline clip-path="url(#clip040)" style="stroke:#000000; stroke-linecap:round; stroke-linejoin:round; stroke-width:4; stroke-opacity:1; fill:none" points="219.866,1423.18 219.866,123.472 "/>
<polyline clip-path="url(#clip040)" style="stroke:#000000; stroke-linecap:round; stroke-linejoin:round; stroke-width:4; stroke-opacity:1; fill:none" points="219.866,1183.15 238.764,1183.15 "/>
<polyline clip-path="url(#clip040)" style="stroke:#000000; stroke-linecap:round; stroke-linejoin:round; stroke-width:4; stroke-opacity:1; fill:none" points="219.866,911.363 238.764,911.363 "/>
<polyline clip-path="url(#clip040)" style="stroke:#000000; stroke-linecap:round; stroke-linejoin:round; stroke-width:4; stroke-opacity:1; fill:none" points="219.866,639.573 238.764,639.573 "/>
<polyline clip-path="url(#clip040)" style="stroke:#000000; stroke-linecap:round; stroke-linejoin:round; stroke-width:4; stroke-opacity:1; fill:none" points="219.866,367.784 238.764,367.784 "/>
<path clip-path="url(#clip040)" d="M128.288 1168.95 Q124.677 1168.95 122.848 1172.52 Q121.043 1176.06 121.043 1183.19 Q121.043 1190.29 122.848 1193.86 Q124.677 1197.4 128.288 1197.4 Q131.922 1197.4 133.728 1193.86 Q135.556 1190.29 135.556 1183.19 Q135.556 1176.06 133.728 1172.52 Q131.922 1168.95 128.288 1168.95 M128.288 1165.25 Q134.098 1165.25 137.154 1169.85 Q140.232 1174.44 140.232 1183.19 Q140.232 1191.91 137.154 1196.52 Q134.098 1201.1 128.288 1201.1 Q122.478 1201.1 119.399 1196.52 Q116.343 1191.91 116.343 1183.19 Q116.343 1174.44 119.399 1169.85 Q122.478 1165.25 128.288 1165.25 Z" fill="#000000" fill-rule="nonzero" fill-opacity="1" /><path clip-path="url(#clip040)" d="M148.45 1194.55 L153.334 1194.55 L153.334 1200.43 L148.45 1200.43 L148.45 1194.55 Z" fill="#000000" fill-rule="nonzero" fill-opacity="1" /><path clip-path="url(#clip040)" d="M167.547 1196.5 L183.866 1196.5 L183.866 1200.43 L161.922 1200.43 L161.922 1196.5 Q164.584 1193.74 169.167 1189.11 Q173.774 1184.46 174.954 1183.12 Q177.2 1180.59 178.079 1178.86 Q178.982 1177.1 178.982 1175.41 Q178.982 1172.65 177.038 1170.92 Q175.116 1169.18 172.014 1169.18 Q169.815 1169.18 167.362 1169.95 Q164.931 1170.71 162.153 1172.26 L162.153 1167.54 Q164.977 1166.4 167.431 1165.83 Q169.885 1165.25 171.922 1165.25 Q177.292 1165.25 180.487 1167.93 Q183.681 1170.62 183.681 1175.11 Q183.681 1177.24 182.871 1179.16 Q182.084 1181.06 179.977 1183.65 Q179.399 1184.32 176.297 1187.54 Q173.195 1190.73 167.547 1196.5 Z" fill="#000000" fill-rule="nonzero" fill-opacity="1" /><path clip-path="url(#clip040)" d="M126.205 897.161 Q122.593 897.161 120.765 900.726 Q118.959 904.268 118.959 911.397 Q118.959 918.504 120.765 922.069 Q122.593 925.61 126.205 925.61 Q129.839 925.61 131.644 922.069 Q133.473 918.504 133.473 911.397 Q133.473 904.268 131.644 900.726 Q129.839 897.161 126.205 897.161 M126.205 893.458 Q132.015 893.458 135.07 898.064 Q138.149 902.647 138.149 911.397 Q138.149 920.124 135.07 924.731 Q132.015 929.314 126.205 929.314 Q120.394 929.314 117.316 924.731 Q114.26 920.124 114.26 911.397 Q114.26 902.647 117.316 898.064 Q120.394 893.458 126.205 893.458 Z" fill="#000000" fill-rule="nonzero" fill-opacity="1" /><path clip-path="url(#clip040)" d="M146.366 922.763 L151.251 922.763 L151.251 928.643 L146.366 928.643 L146.366 922.763 Z" fill="#000000" fill-rule="nonzero" fill-opacity="1" /><path clip-path="url(#clip040)" d="M174.283 898.157 L162.477 916.606 L174.283 916.606 L174.283 898.157 M173.056 894.083 L178.936 894.083 L178.936 916.606 L183.866 916.606 L183.866 920.494 L178.936 920.494 L178.936 928.643 L174.283 928.643 L174.283 920.494 L158.681 920.494 L158.681 915.981 L173.056 894.083 Z" fill="#000000" fill-rule="nonzero" fill-opacity="1" /><path clip-path="url(#clip040)" d="M126.529 625.372 Q122.918 625.372 121.089 628.937 Q119.283 632.478 119.283 639.608 Q119.283 646.715 121.089 650.279 Q122.918 653.821 126.529 653.821 Q130.163 653.821 131.968 650.279 Q133.797 646.715 133.797 639.608 Q133.797 632.478 131.968 628.937 Q130.163 625.372 126.529 625.372 M126.529 621.668 Q132.339 621.668 135.394 626.275 Q138.473 630.858 138.473 639.608 Q138.473 648.335 135.394 652.941 Q132.339 657.525 126.529 657.525 Q120.718 657.525 117.64 652.941 Q114.584 648.335 114.584 639.608 Q114.584 630.858 117.64 626.275 Q120.718 621.668 126.529 621.668 Z" fill="#000000" fill-rule="nonzero" fill-opacity="1" /><path clip-path="url(#clip040)" d="M146.691 650.974 L151.575 650.974 L151.575 656.853 L146.691 656.853 L146.691 650.974 Z" fill="#000000" fill-rule="nonzero" fill-opacity="1" /><path clip-path="url(#clip040)" d="M172.339 637.71 Q169.19 637.71 167.339 639.863 Q165.51 642.015 165.51 645.765 Q165.51 649.492 167.339 651.668 Q169.19 653.821 172.339 653.821 Q175.487 653.821 177.315 651.668 Q179.167 649.492 179.167 645.765 Q179.167 642.015 177.315 639.863 Q175.487 637.71 172.339 637.71 M181.621 623.057 L181.621 627.316 Q179.862 626.483 178.056 626.043 Q176.274 625.604 174.514 625.604 Q169.885 625.604 167.431 628.728 Q165.001 631.853 164.653 638.173 Q166.019 636.159 168.079 635.094 Q170.139 634.006 172.616 634.006 Q177.825 634.006 180.834 637.178 Q183.866 640.326 183.866 645.765 Q183.866 651.089 180.718 654.307 Q177.57 657.525 172.339 657.525 Q166.343 657.525 163.172 652.941 Q160.001 648.335 160.001 639.608 Q160.001 631.414 163.89 626.553 Q167.778 621.668 174.329 621.668 Q176.089 621.668 177.871 622.016 Q179.676 622.363 181.621 623.057 Z" fill="#000000" fill-rule="nonzero" fill-opacity="1" /><path clip-path="url(#clip040)" d="M126.783 353.583 Q123.172 353.583 121.343 357.148 Q119.538 360.689 119.538 367.819 Q119.538 374.925 121.343 378.49 Q123.172 382.032 126.783 382.032 Q130.417 382.032 132.223 378.49 Q134.052 374.925 134.052 367.819 Q134.052 360.689 132.223 357.148 Q130.417 353.583 126.783 353.583 M126.783 349.879 Q132.593 349.879 135.649 354.486 Q138.728 359.069 138.728 367.819 Q138.728 376.546 135.649 381.152 Q132.593 385.735 126.783 385.735 Q120.973 385.735 117.894 381.152 Q114.839 376.546 114.839 367.819 Q114.839 359.069 117.894 354.486 Q120.973 349.879 126.783 349.879 Z" fill="#000000" fill-rule="nonzero" fill-opacity="1" /><path clip-path="url(#clip040)" d="M146.945 379.185 L151.829 379.185 L151.829 385.064 L146.945 385.064 L146.945 379.185 Z" fill="#000000" fill-rule="nonzero" fill-opacity="1" /><path clip-path="url(#clip040)" d="M172.014 368.652 Q168.681 368.652 166.76 370.435 Q164.862 372.217 164.862 375.342 Q164.862 378.467 166.76 380.249 Q168.681 382.032 172.014 382.032 Q175.348 382.032 177.269 380.249 Q179.19 378.444 179.19 375.342 Q179.19 372.217 177.269 370.435 Q175.371 368.652 172.014 368.652 M167.339 366.661 Q164.329 365.921 162.64 363.861 Q160.973 361.8 160.973 358.837 Q160.973 354.694 163.913 352.287 Q166.876 349.879 172.014 349.879 Q177.176 349.879 180.116 352.287 Q183.056 354.694 183.056 358.837 Q183.056 361.8 181.366 363.861 Q179.7 365.921 176.714 366.661 Q180.093 367.448 181.968 369.74 Q183.866 372.032 183.866 375.342 Q183.866 380.365 180.788 383.05 Q177.732 385.735 172.014 385.735 Q166.297 385.735 163.218 383.05 Q160.163 380.365 160.163 375.342 Q160.163 372.032 162.061 369.74 Q163.959 367.448 167.339 366.661 M165.626 359.277 Q165.626 361.962 167.292 363.467 Q168.982 364.972 172.014 364.972 Q175.024 364.972 176.714 363.467 Q178.426 361.962 178.426 359.277 Q178.426 356.592 176.714 355.087 Q175.024 353.583 172.014 353.583 Q168.982 353.583 167.292 355.087 Q165.626 356.592 165.626 359.277 Z" fill="#000000" fill-rule="nonzero" fill-opacity="1" /><path clip-path="url(#clip040)" d="M16.4842 864.897 L16.4842 857.99 L36.0269 844.813 L16.4842 831.731 L16.4842 824.825 L41.3741 841.63 L64.0042 841.63 L64.0042 848.091 L41.3741 848.091 L16.4842 864.897 Z" fill="#000000" fill-rule="nonzero" fill-opacity="1" /><path clip-path="url(#clip040)" d="M43.5384 829.503 L43.5384 812.348 L48.7583 812.348 L48.7583 829.503 L43.5384 829.503 Z" fill="#000000" fill-rule="nonzero" fill-opacity="1" /><path clip-path="url(#clip040)" d="M46.0847 786.821 Q46.0847 793.919 47.7079 796.656 Q49.3312 799.394 53.2461 799.394 Q56.3653 799.394 58.2114 797.357 Q60.0256 795.288 60.0256 791.755 Q60.0256 786.885 56.5881 783.957 Q53.1188 780.997 47.3897 780.997 L46.0847 780.997 L46.0847 786.821 M43.6657 775.14 L64.0042 775.14 L64.0042 780.997 L58.5933 780.997 Q61.8398 783.002 63.3994 785.994 Q64.9272 788.986 64.9272 793.314 Q64.9272 798.789 61.8716 802.035 Q58.7843 805.25 53.6281 805.25 Q47.6125 805.25 44.5569 801.24 Q41.5014 797.197 41.5014 789.208 L41.5014 780.997 L40.9285 780.997 Q36.8862 780.997 34.6901 783.67 Q32.4621 786.312 32.4621 791.118 Q32.4621 794.174 33.1941 797.07 Q33.9262 799.966 35.3903 802.64 L29.9795 802.64 Q28.7381 799.425 28.1334 796.402 Q27.4968 793.378 27.4968 790.513 Q27.4968 782.779 31.5072 778.96 Q35.5176 775.14 43.6657 775.14 Z" fill="#000000" fill-rule="nonzero" fill-opacity="1" /><path clip-path="url(#clip040)" d="M28.3562 733.445 L45.7028 746.335 L64.0042 732.776 L64.0042 739.683 L49.9996 750.059 L64.0042 760.435 L64.0042 767.342 L45.3526 753.497 L28.3562 766.165 L28.3562 759.258 L41.0558 749.805 L28.3562 740.352 L28.3562 733.445 Z" fill="#000000" fill-rule="nonzero" fill-opacity="1" /><path clip-path="url(#clip040)" d="M28.3562 724.501 L28.3562 718.645 L64.0042 718.645 L64.0042 724.501 L28.3562 724.501 M14.479 724.501 L14.479 718.645 L21.895 718.645 L21.895 724.501 L14.479 724.501 Z" fill="#000000" fill-rule="nonzero" fill-opacity="1" /><path clip-path="url(#clip040)" d="M29.4065 683.665 L34.9447 683.665 Q33.6716 686.148 33.035 688.821 Q32.3984 691.495 32.3984 694.359 Q32.3984 698.72 33.7352 700.916 Q35.072 703.08 37.7456 703.08 Q39.7826 703.08 40.9603 701.521 Q42.1061 699.961 43.1565 695.251 L43.6021 693.245 Q44.9389 687.007 47.3897 684.397 Q49.8086 681.755 54.1691 681.755 Q59.1344 681.755 62.0308 685.702 Q64.9272 689.617 64.9272 696.492 Q64.9272 699.356 64.3543 702.476 Q63.8132 705.563 62.6992 709.001 L56.6518 709.001 Q58.3387 705.754 59.198 702.603 Q60.0256 699.452 60.0256 696.365 Q60.0256 692.227 58.6251 689.999 Q57.1929 687.771 54.6147 687.771 Q52.2276 687.771 50.9545 689.394 Q49.6813 690.986 48.5037 696.428 L48.0262 698.465 Q46.8804 703.908 44.5251 706.327 Q42.138 708.746 38.0002 708.746 Q32.9713 708.746 30.2341 705.181 Q27.4968 701.616 27.4968 695.06 Q27.4968 691.813 27.9743 688.949 Q28.4517 686.084 29.4065 683.665 Z" fill="#000000" fill-rule="nonzero" fill-opacity="1" /><path clip-path="url(#clip040)" d="M1113.56 12.096 L1121.74 12.096 L1121.74 65.6895 L1151.19 65.6895 L1151.19 72.576 L1113.56 72.576 L1113.56 12.096 Z" fill="#000000" fill-rule="nonzero" fill-opacity="1" /><path clip-path="url(#clip040)" d="M1159.46 27.2059 L1166.91 27.2059 L1166.91 72.576 L1159.46 72.576 L1159.46 27.2059 M1159.46 9.54393 L1166.91 9.54393 L1166.91 18.9825 L1159.46 18.9825 L1159.46 9.54393 Z" fill="#000000" fill-rule="nonzero" fill-opacity="1" /><path clip-path="url(#clip040)" d="M1220.22 45.1919 L1220.22 72.576 L1212.77 72.576 L1212.77 45.4349 Q1212.77 38.994 1210.26 35.7938 Q1207.74 32.5936 1202.72 32.5936 Q1196.68 32.5936 1193.2 36.4419 Q1189.72 40.2903 1189.72 46.9338 L1189.72 72.576 L1182.22 72.576 L1182.22 27.2059 L1189.72 27.2059 L1189.72 34.2544 Q1192.39 30.163 1196 28.1376 Q1199.64 26.1121 1204.38 26.1121 Q1212.2 26.1121 1216.21 30.9732 Q1220.22 35.7938 1220.22 45.1919 Z" fill="#000000" fill-rule="nonzero" fill-opacity="1" /><path clip-path="url(#clip040)" d="M1273.9 48.0275 L1273.9 51.6733 L1239.62 51.6733 Q1240.11 59.3701 1244.24 63.421 Q1248.41 67.4314 1255.83 67.4314 Q1260.12 67.4314 1264.13 66.3781 Q1268.18 65.3249 1272.15 63.2184 L1272.15 70.267 Q1268.14 71.9684 1263.93 72.8596 Q1259.72 73.7508 1255.38 73.7508 Q1244.53 73.7508 1238.17 67.4314 Q1231.85 61.1119 1231.85 50.3365 Q1231.85 39.1965 1237.84 32.6746 Q1243.88 26.1121 1254.09 26.1121 Q1263.24 26.1121 1268.55 32.0264 Q1273.9 37.9003 1273.9 48.0275 M1266.44 45.84 Q1266.36 39.7232 1263 36.0774 Q1259.68 32.4315 1254.17 32.4315 Q1247.93 32.4315 1244.16 35.9558 Q1240.43 39.4801 1239.87 45.8805 L1266.44 45.84 Z" fill="#000000" fill-rule="nonzero" fill-opacity="1" /><path clip-path="url(#clip040)" d="M1321.01 18.8205 L1321.01 41.5461 L1331.3 41.5461 Q1337.01 41.5461 1340.13 38.5889 Q1343.25 35.6318 1343.25 30.163 Q1343.25 24.7348 1340.13 21.7777 Q1337.01 18.8205 1331.3 18.8205 L1321.01 18.8205 M1312.82 12.096 L1331.3 12.096 Q1341.46 12.096 1346.65 16.714 Q1351.87 21.2916 1351.87 30.163 Q1351.87 39.1155 1346.65 43.6931 Q1341.46 48.2706 1331.3 48.2706 L1321.01 48.2706 L1321.01 72.576 L1312.82 72.576 L1312.82 12.096 Z" fill="#000000" fill-rule="nonzero" fill-opacity="1" /><path clip-path="url(#clip040)" d="M1362.53 9.54393 L1369.98 9.54393 L1369.98 72.576 L1362.53 72.576 L1362.53 9.54393 Z" fill="#000000" fill-rule="nonzero" fill-opacity="1" /><path clip-path="url(#clip040)" d="M1403.16 32.4315 Q1397.16 32.4315 1393.68 37.1306 Q1390.2 41.7891 1390.2 49.9314 Q1390.2 58.0738 1393.64 62.7728 Q1397.12 67.4314 1403.16 67.4314 Q1409.11 67.4314 1412.6 62.7323 Q1416.08 58.0333 1416.08 49.9314 Q1416.08 41.8701 1412.6 37.1711 Q1409.11 32.4315 1403.16 32.4315 M1403.16 26.1121 Q1412.88 26.1121 1418.43 32.4315 Q1423.98 38.7509 1423.98 49.9314 Q1423.98 61.0714 1418.43 67.4314 Q1412.88 73.7508 1403.16 73.7508 Q1393.4 73.7508 1387.85 67.4314 Q1382.34 61.0714 1382.34 49.9314 Q1382.34 38.7509 1387.85 32.4315 Q1393.4 26.1121 1403.16 26.1121 Z" fill="#000000" fill-rule="nonzero" fill-opacity="1" /><path clip-path="url(#clip040)" d="M1443.71 14.324 L1443.71 27.2059 L1459.06 27.2059 L1459.06 32.9987 L1443.71 32.9987 L1443.71 57.6282 Q1443.71 63.1779 1445.21 64.7578 Q1446.75 66.3376 1451.41 66.3376 L1459.06 66.3376 L1459.06 72.576 L1451.41 72.576 Q1442.78 72.576 1439.5 69.3758 Q1436.21 66.1351 1436.21 57.6282 L1436.21 32.9987 L1430.75 32.9987 L1430.75 27.2059 L1436.21 27.2059 L1436.21 14.324 L1443.71 14.324 Z" fill="#000000" fill-rule="nonzero" fill-opacity="1" /><polyline clip-path="url(#clip042)" style="stroke:#009af9; stroke-linecap:round; stroke-linejoin:round; stroke-width:4; stroke-opacity:1; fill:none" points="280.231,1307.74 503.804,1104.87 727.378,299.337 950.951,1257.72 1174.52,1386.4 1398.1,1204.47 1621.67,701.947 1845.24,190.203 2068.82,160.256 2292.39,897.54 "/>
<path clip-path="url(#clip040)" d="M2015.94 1379.86 L2281.66 1379.86 L2281.66 1276.18 L2015.94 1276.18  Z" fill="#ffffff" fill-rule="evenodd" fill-opacity="1"/>
<polyline clip-path="url(#clip040)" style="stroke:#000000; stroke-linecap:round; stroke-linejoin:round; stroke-width:4; stroke-opacity:1; fill:none" points="2015.94,1379.86 2281.66,1379.86 2281.66,1276.18 2015.94,1276.18 2015.94,1379.86 "/>
<polyline clip-path="url(#clip040)" style="stroke:#009af9; stroke-linecap:round; stroke-linejoin:round; stroke-width:4; stroke-opacity:1; fill:none" points="2039.64,1328.02 2181.83,1328.02 "/>
<path clip-path="url(#clip040)" d="M2219.37 1347.7 Q2217.57 1352.33 2215.85 1353.75 Q2214.14 1355.16 2211.27 1355.16 L2207.87 1355.16 L2207.87 1351.59 L2210.37 1351.59 Q2212.13 1351.59 2213.1 1350.76 Q2214.07 1349.93 2215.25 1346.82 L2216.02 1344.88 L2205.53 1319.37 L2210.04 1319.37 L2218.15 1339.65 L2226.25 1319.37 L2230.76 1319.37 L2219.37 1347.7 Z" fill="#000000" fill-rule="nonzero" fill-opacity="1" /><path clip-path="url(#clip040)" d="M2238.05 1341.36 L2245.69 1341.36 L2245.69 1315 L2237.38 1316.66 L2237.38 1312.4 L2245.65 1310.74 L2250.32 1310.74 L2250.32 1341.36 L2257.96 1341.36 L2257.96 1345.3 L2238.05 1345.3 L2238.05 1341.36 Z" fill="#000000" fill-rule="nonzero" fill-opacity="1" /></svg>