<?xml version="1.0" encoding="utf-8"?>
<svg xmlns="http://www.w3.org/2000/svg" xmlns:xlink="http://www.w3.org/1999/xlink" width="600" height="400" viewBox="0 0 2400 1600">
<defs>
  <clipPath id="clip070">
    <rect x="0" y="0" width="2400" height="1600"/>
  </clipPath>
</defs>
<path clip-path="url(#clip070)" d="M0 1600 L2400 1600 L2400 8.88178e-14 L0 8.88178e-14  Z" fill="#ffffff" fill-rule="evenodd" fill-opacity="1"/>
<defs>
  <clipPath id="clip071">
    <rect x="480" y="0" width="1681" height="1600"/>
  </clipPath>
</defs>
<path clip-path="url(#clip070)" d="M219.866 1423.18 L2352.76 1423.18 L2352.76 123.472 L219.866 123.472  Z" fill="#ffffff" fill-rule="evenodd" fill-opacity="1"/>
<defs>
  <clipPath id="clip072">
    <rect x="219" y="123" width="2134" height="1301"/>
  </clipPath>
</defs>
<polyline clip-path="url(#clip072)" style="stroke:#000000; stroke-linecap:round; stroke-linejoin:round; stroke-width:2; stroke-opacity:0.1; fill:none" points="503.804,1423.18 503.804,123.472 "/>
<polyline clip-path="url(#clip072)" style="stroke:#000000; stroke-linecap:round; stroke-linejoin:round; stroke-width:2; stroke-opacity:0.1; fill:none" points="950.951,1423.18 950.951,123.472 "/>
<polyline clip-path="url(#clip072)" style="stroke:#000000; stroke-linecap:round; stroke-linejoin:round; stroke-width:2; stroke-opacity:0.1; fill:none" points="1398.1,1423.18 1398.1,123.472 "/>
<polyline clip-path="url(#clip072)" style="stroke:#000000; stroke-linecap:round; stroke-linejoin:round; stroke-width:2; stroke-opacity:0.1; fill:none" points="1845.24,1423.18 1845.24,123.472 "/>
<polyline clip-path="url(#clip072)" style="stroke:#000000; stroke-linecap:round; stroke-linejoin:round; stroke-width:2; stroke-opacity:0.1; fill:none" points="2292.39,1423.18 2292.39,123.472 "/>
<polyline clip-path="url(#clip070)" style="stroke:#000000; stroke-linecap:round; stroke-linejoin:round; stroke-width:4; stroke-opacity:1; fill:none" points="219.866,1423.18 2352.76,1423.18 "/>
<polyline clip-path="url(#clip070)" style="stroke:#000000; stroke-linecap:round; stroke-linejoin:round; stroke-width:4; stroke-opacity:1; fill:none" points="503.804,1423.18 503.804,1404.28 "/>
<polyline clip-path="url(#clip070)" style="stroke:#000000; stroke-linecap:round; stroke-linejoin:round; stroke-width:4; stroke-opacity:1; fill:none" points="950.951,1423.18 950.951,1404.28 "/>
<polyline clip-path="url(#clip070)" style="stroke:#000000; stroke-linecap:round; stroke-linejoin:round; stroke-width:4; stroke-opacity:1; fill:none" points="1398.1,1423.18 1398.1,1404.28 "/>
<polyline clip-path="url(#clip070)" style="stroke:#000000; stroke-linecap:round; stroke-linejoin:round; stroke-width:4; stroke-opacity:1; fill:none" points="1845.24,1423.18 1845.24,1404.28 "/>
<polyline clip-path="url(#clip070)" style="stroke:#000000; stroke-linecap:round; stroke-linejoin:round; stroke-width:4; stroke-opacity:1; fill:none" points="2292.39,1423.18 2292.39,1404.28 "/>
<path clip-path="url(#clip070)" d="M498.457 1481.64 L514.777 1481.64 L514.777 1485.58 L492.832 1485.58 L492.832 1481.64 Q495.494 1478.89 500.078 1474.26 Q504.684 1469.61 505.865 1468.27 Q508.11 1465.74 508.99 1464.01 Q509.892 1462.25 509.892 1460.56 Q509.892 1457.8 507.948 1456.07 Q506.027 1454.33 502.925 1454.33 Q500.726 1454.33 498.272 1455.09 Q495.841 1455.86 493.064 1457.41 L493.064 1452.69 Q495.888 1451.55 498.341 1450.97 Q500.795 1450.39 502.832 1450.39 Q508.203 1450.39 511.397 1453.08 Q514.591 1455.77 514.591 1460.26 Q514.591 1462.39 513.781 1464.31 Q512.994 1466.2 510.888 1468.8 Q510.309 1469.47 507.207 1472.69 Q504.105 1475.88 498.457 1481.64 Z" fill="#000000" fill-rule="nonzero" fill-opacity="1" /><path clip-path="url(#clip070)" d="M953.96 1455.09 L942.155 1473.54 L953.96 1473.54 L953.96 1455.09 M952.733 1451.02 L958.613 1451.02 L958.613 1473.54 L963.544 1473.54 L963.544 1477.43 L958.613 1477.43 L958.613 1485.58 L953.96 1485.58 L953.96 1477.43 L938.359 1477.43 L938.359 1472.92 L952.733 1451.02 Z" fill="#000000" fill-rule="nonzero" fill-opacity="1" /><path clip-path="url(#clip070)" d="M1398.5 1466.44 Q1395.35 1466.44 1393.5 1468.59 Q1391.67 1470.74 1391.67 1474.49 Q1391.67 1478.22 1393.5 1480.39 Q1395.35 1482.55 1398.5 1482.55 Q1401.65 1482.55 1403.48 1480.39 Q1405.33 1478.22 1405.33 1474.49 Q1405.33 1470.74 1403.48 1468.59 Q1401.65 1466.44 1398.5 1466.44 M1407.79 1451.78 L1407.79 1456.04 Q1406.03 1455.21 1404.22 1454.77 Q1402.44 1454.33 1400.68 1454.33 Q1396.05 1454.33 1393.6 1457.45 Q1391.16 1460.58 1390.82 1466.9 Q1392.18 1464.89 1394.24 1463.82 Q1396.3 1462.73 1398.78 1462.73 Q1403.99 1462.73 1407 1465.9 Q1410.03 1469.05 1410.03 1474.49 Q1410.03 1479.82 1406.88 1483.03 Q1403.73 1486.25 1398.5 1486.25 Q1392.51 1486.25 1389.34 1481.67 Q1386.16 1477.06 1386.16 1468.33 Q1386.16 1460.14 1390.05 1455.28 Q1393.94 1450.39 1400.49 1450.39 Q1402.25 1450.39 1404.04 1450.74 Q1405.84 1451.09 1407.79 1451.78 Z" fill="#000000" fill-rule="nonzero" fill-opacity="1" /><path clip-path="url(#clip070)" d="M1845.24 1469.17 Q1841.91 1469.17 1839.99 1470.95 Q1838.09 1472.73 1838.09 1475.86 Q1838.09 1478.98 1839.99 1480.77 Q1841.91 1482.55 1845.24 1482.55 Q1848.58 1482.55 1850.5 1480.77 Q1852.42 1478.96 1852.42 1475.86 Q1852.42 1472.73 1850.5 1470.95 Q1848.6 1469.17 1845.24 1469.17 M1840.57 1467.18 Q1837.56 1466.44 1835.87 1464.38 Q1834.2 1462.32 1834.2 1459.35 Q1834.2 1455.21 1837.14 1452.8 Q1840.11 1450.39 1845.24 1450.39 Q1850.41 1450.39 1853.35 1452.8 Q1856.29 1455.21 1856.29 1459.35 Q1856.29 1462.32 1854.6 1464.38 Q1852.93 1466.44 1849.94 1467.18 Q1853.32 1467.96 1855.2 1470.26 Q1857.1 1472.55 1857.1 1475.86 Q1857.1 1480.88 1854.02 1483.57 Q1850.96 1486.25 1845.24 1486.25 Q1839.53 1486.25 1836.45 1483.57 Q1833.39 1480.88 1833.39 1475.86 Q1833.39 1472.55 1835.29 1470.26 Q1837.19 1467.96 1840.57 1467.18 M1838.86 1459.79 Q1838.86 1462.48 1840.52 1463.98 Q1842.21 1465.49 1845.24 1465.49 Q1848.25 1465.49 1849.94 1463.98 Q1851.66 1462.48 1851.66 1459.79 Q1851.66 1457.11 1849.94 1455.6 Q1848.25 1454.1 1845.24 1454.1 Q1842.21 1454.1 1840.52 1455.6 Q1838.86 1457.11 1838.86 1459.79 Z" fill="#000000" fill-rule="nonzero" fill-opacity="1" /><path clip-path="url(#clip070)" d="M2267.08 1481.64 L2274.72 1481.64 L2274.72 1455.28 L2266.41 1456.95 L2266.41 1452.69 L2274.67 1451.02 L2279.35 1451.02 L2279.35 1481.64 L2286.99 1481.64 L2286.99 1485.58 L2267.08 1485.58 L2267.08 1481.64 Z" fill="#000000" fill-rule="nonzero" fill-opacity="1" /><path clip-path="url(#clip070)" d="M2306.43 1454.1 Q2302.82 1454.1 2300.99 1457.66 Q2299.19 1461.2 2299.19 1468.33 Q2299.19 1475.44 2300.99 1479.01 Q2302.82 1482.55 2306.43 1482.55 Q2310.06 1482.55 2311.87 1479.01 Q2313.7 1475.44 2313.7 1468.33 Q2313.7 1461.2 2311.87 1457.66 Q2310.06 1454.1 2306.43 1454.1 M2306.43 1450.39 Q2312.24 1450.39 2315.3 1455 Q2318.37 1459.58 2318.37 1468.33 Q2318.37 1477.06 2315.3 1481.67 Q2312.24 1486.25 2306.43 1486.25 Q2300.62 1486.25 2297.54 1481.67 Q2294.49 1477.06 2294.49 1468.33 Q2294.49 1459.58 2297.54 1455 Q2300.62 1450.39 2306.43 1450.39 Z" fill="#000000" fill-rule="nonzero" fill-opacity="1" /><path clip-path="url(#clip070)" d="M1193.28 1520.52 L1200.18 1520.52 L1211.99 1538.19 L1223.86 1520.52 L1230.77 1520.52 L1215.49 1543.34 L1231.79 1568.04 L1224.88 1568.04 L1211.51 1547.83 L1198.05 1568.04 L1191.11 1568.04 L1208.08 1542.68 L1193.28 1520.52 Z" fill="#000000" fill-rule="nonzero" fill-opacity="1" /><path clip-path="url(#clip070)" d="M1233.76 1547.58 L1250.92 1547.58 L1250.92 1552.8 L1233.76 1552.8 L1233.76 1547.58 Z" fill="#000000" fill-rule="nonzero" fill-opacity="1" /><path clip-path="url(#clip070)" d="M1276.44 1550.12 Q1269.35 1550.12 1266.61 1551.75 Q1263.87 1553.37 1263.87 1557.29 Q1263.87 1560.4 1265.91 1562.25 Q1267.98 1564.07 1271.51 1564.07 Q1276.38 1564.07 1279.31 1560.63 Q1282.27 1557.16 1282.27 1551.43 L1282.27 1550.12 L1276.44 1550.12 M1288.13 1547.71 L1288.13 1568.04 L1282.27 1568.04 L1282.27 1562.63 Q1280.26 1565.88 1277.27 1567.44 Q1274.28 1568.97 1269.95 1568.97 Q1264.48 1568.97 1261.23 1565.91 Q1258.02 1562.82 1258.02 1557.67 Q1258.02 1551.65 1262.03 1548.6 Q1266.07 1545.54 1274.06 1545.54 L1282.27 1545.54 L1282.27 1544.97 Q1282.27 1540.93 1279.6 1538.73 Q1276.95 1536.5 1272.15 1536.5 Q1269.09 1536.5 1266.2 1537.23 Q1263.3 1537.97 1260.63 1539.43 L1260.63 1534.02 Q1263.84 1532.78 1266.86 1532.17 Q1269.89 1531.54 1272.75 1531.54 Q1280.49 1531.54 1284.31 1535.55 Q1288.13 1539.56 1288.13 1547.71 Z" fill="#000000" fill-rule="nonzero" fill-opacity="1" /><path clip-path="url(#clip070)" d="M1329.82 1532.4 L1316.93 1549.74 L1330.49 1568.04 L1323.58 1568.04 L1313.21 1554.04 L1302.83 1568.04 L1295.92 1568.04 L1309.77 1549.39 L1297.1 1532.4 L1304.01 1532.4 L1313.46 1545.1 L1322.91 1532.4 L1329.82 1532.4 Z" fill="#000000" fill-rule="nonzero" fill-opacity="1" /><path clip-path="url(#clip070)" d="M1338.76 1532.4 L1344.62 1532.4 L1344.62 1568.04 L1338.76 1568.04 L1338.76 1532.4 M1338.76 1518.52 L1344.62 1518.52 L1344.62 1525.93 L1338.76 1525.93 L1338.76 1518.52 Z" fill="#000000" fill-rule="nonzero" fill-opacity="1" /><path clip-path="url(#clip070)" d="M1379.6 1533.45 L1379.6 1538.98 Q1377.12 1537.71 1374.44 1537.07 Q1371.77 1536.44 1368.91 1536.44 Q1364.55 1536.44 1362.35 1537.77 Q1360.19 1539.11 1360.19 1541.79 Q1360.19 1543.82 1361.74 1545 Q1363.3 1546.15 1368.01 1547.2 L1370.02 1547.64 Q1376.26 1548.98 1378.87 1551.43 Q1381.51 1553.85 1381.51 1558.21 Q1381.51 1563.17 1377.56 1566.07 Q1373.65 1568.97 1366.77 1568.97 Q1363.91 1568.97 1360.79 1568.39 Q1357.7 1567.85 1354.27 1566.74 L1354.27 1560.69 Q1357.51 1562.38 1360.66 1563.24 Q1363.81 1564.07 1366.9 1564.07 Q1371.04 1564.07 1373.27 1562.66 Q1375.49 1561.23 1375.49 1558.65 Q1375.49 1556.27 1373.87 1554.99 Q1372.28 1553.72 1366.84 1552.54 L1364.8 1552.07 Q1359.36 1550.92 1356.94 1548.56 Q1354.52 1546.18 1354.52 1542.04 Q1354.52 1537.01 1358.08 1534.27 Q1361.65 1531.54 1368.21 1531.54 Q1371.45 1531.54 1374.32 1532.01 Q1377.18 1532.49 1379.6 1533.45 Z" fill="#000000" fill-rule="nonzero" fill-opacity="1" /><polyline clip-path="url(#clip072)" style="stroke:#000000; stroke-linecap:round; stroke-linejoin:round; stroke-width:2; stroke-opacity:0.1; fill:none" points="219.866,1249.02 2352.76,1249.02 "/>
<polyline clip-path="url(#clip072)" style="stroke:#000000; stroke-linecap:round; stroke-linejoin:round; stroke-width:2; stroke-opacity:0.1; fill:none" points="219.866,928.603 2352.76,928.603 "/>
<polyline clip-path="url(#clip072)" style="stroke:#000000; stroke-linecap:round; stroke-linejoin:round; stroke-width:2; stroke-opacity:0.1; fill:none" points="219.866,608.186 2352.76,608.186 "/>
<polyline clip-path="url(#clip072)" style="stroke:#000000; stroke-linecap:round; stroke-linejoin:round; stroke-width:2; stroke-opacity:0.1; fill:none" points="219.866,287.769 2352.76,287.769 "/>
<polyline clip-path="url(#clip070)" style="stroke:#000000; stroke-linecap:round; stroke-linejoin:round; stroke-width:4; stroke-opacity:1; fill:none" points="219.866,1423.18 219.866,123.472 "/>
<polyline clip-path="url(#clip070)" style="stroke:#000000; stroke-linecap:round; stroke-linejoin:round; stroke-width:4; stroke-opacity:1; fill:none" points="219.866,1249.02 238.764,1249.02 "/>
<polyline clip-path="url(#clip070)" style="stroke:#000000; stroke-linecap:round; stroke-linejoin:round; stroke-width:4; stroke-opacity:1; fill:none" points="219.866,928.603 238.764,928.603 "/>
<polyline clip-path="url(#clip070)" style="stroke:#000000; stroke-linecap:round; stroke-linejoin:round; stroke-width:4; stroke-opacity:1; fill:none" points="219.866,608.186 238.764,608.186 "/>
<polyline clip-path="url(#clip070)" style="stroke:#000000; stroke-linecap:round; stroke-linejoin:round; stroke-width:4; stroke-opacity:1; fill:none" points="219.866,287.769 238.764,287.769 "/>
<path clip-path="url(#clip070)" d="M128.288 1234.82 Q124.677 1234.82 122.848 1238.38 Q121.043 1241.93 121.043 1249.06 Q121.043 1256.16 122.848 1259.73 Q124.677 1263.27 128.288 1263.27 Q131.922 1263.27 133.728 1259.73 Q135.556 1256.16 135.556 1249.06 Q135.556 1241.93 133.728 1238.38 Q131.922 1234.82 128.288 1234.82 M128.288 1231.12 Q134.098 1231.12 137.154 1235.72 Q140.232 1240.31 140.232 1249.06 Q140.232 1257.78 137.154 1262.39 Q134.098 1266.97 128.288 1266.97 Q122.478 1266.97 119.399 1262.39 Q116.343 1257.78 116.343 1249.06 Q116.343 1240.31 119.399 1235.72 Q122.478 1231.12 128.288 1231.12 Z" fill="#000000" fill-rule="nonzero" fill-opacity="1" /><path clip-path="url(#clip070)" d="M148.45 1260.42 L153.334 1260.42 L153.334 1266.3 L148.45 1266.3 L148.45 1260.42 Z" fill="#000000" fill-rule="nonzero" fill-opacity="1" /><path clip-path="url(#clip070)" d="M167.547 1262.37 L183.866 1262.37 L183.866 1266.3 L161.922 1266.3 L161.922 1262.37 Q164.584 1259.61 169.167 1254.98 Q173.774 1250.33 174.954 1248.99 Q177.2 1246.46 178.079 1244.73 Q178.982 1242.97 178.982 1241.28 Q178.982 1238.52 177.038 1236.79 Q175.116 1235.05 172.014 1235.05 Q169.815 1235.05 167.362 1235.81 Q164.931 1236.58 162.153 1238.13 L162.153 1233.41 Q164.977 1232.27 167.431 1231.69 Q169.885 1231.12 171.922 1231.12 Q177.292 1231.12 180.487 1233.8 Q183.681 1236.49 183.681 1240.98 Q183.681 1243.11 182.871 1245.03 Q182.084 1246.93 179.977 1249.52 Q179.399 1250.19 176.297 1253.41 Q173.195 1256.6 167.547 1262.37 Z" fill="#000000" fill-rule="nonzero" fill-opacity="1" /><path clip-path="url(#clip070)" d="M126.205 914.402 Q122.593 914.402 120.765 917.967 Q118.959 921.508 118.959 928.638 Q118.959 935.744 120.765 939.309 Q122.593 942.851 126.205 942.851 Q129.839 942.851 131.644 939.309 Q133.473 935.744 133.473 928.638 Q133.473 921.508 131.644 917.967 Q129.839 914.402 126.205 914.402 M126.205 910.698 Q132.015 910.698 135.07 915.305 Q138.149 919.888 138.149 928.638 Q138.149 937.365 135.07 941.971 Q132.015 946.554 126.205 946.554 Q120.394 946.554 117.316 941.971 Q114.26 937.365 114.26 928.638 Q114.26 919.888 117.316 915.305 Q120.394 910.698 126.205 910.698 Z" fill="#000000" fill-rule="nonzero" fill-opacity="1" /><path clip-path="url(#clip070)" d="M146.366 940.004 L151.251 940.004 L151.251 945.883 L146.366 945.883 L146.366 940.004 Z" fill="#000000" fill-rule="nonzero" fill-opacity="1" /><path clip-path="url(#clip070)" d="M174.283 915.397 L162.477 933.846 L174.283 933.846 L174.283 915.397 M173.056 911.323 L178.936 911.323 L178.936 933.846 L183.866 933.846 L183.866 937.735 L178.936 937.735 L178.936 945.883 L174.283 945.883 L174.283 937.735 L158.681 937.735 L158.681 933.221 L173.056 911.323 Z" fill="#000000" fill-rule="nonzero" fill-opacity="1" /><path clip-path="url(#clip070)" d="M126.529 593.985 Q122.918 593.985 121.089 597.55 Q119.283 601.091 119.283 608.221 Q119.283 615.327 121.089 618.892 Q122.918 622.434 126.529 622.434 Q130.163 622.434 131.968 618.892 Q133.797 615.327 133.797 608.221 Q133.797 601.091 131.968 597.55 Q130.163 593.985 126.529 593.985 M126.529 590.281 Q132.339 590.281 135.394 594.887 Q138.473 599.471 138.473 608.221 Q138.473 616.948 135.394 621.554 Q132.339 626.137 126.529 626.137 Q120.718 626.137 117.64 621.554 Q114.584 616.948 114.584 608.221 Q114.584 599.471 117.64 594.887 Q120.718 590.281 126.529 590.281 Z" fill="#000000" fill-rule="nonzero" fill-opacity="1" /><path clip-path="url(#clip070)" d="M146.691 619.586 L151.575 619.586 L151.575 625.466 L146.691 625.466 L146.691 619.586 Z" fill="#000000" fill-rule="nonzero" fill-opacity="1" /><path clip-path="url(#clip070)" d="M172.339 606.323 Q169.19 606.323 167.339 608.475 Q165.51 610.628 165.51 614.378 Q165.51 618.105 167.339 620.281 Q169.19 622.434 172.339 622.434 Q175.487 622.434 177.315 620.281 Q179.167 618.105 179.167 614.378 Q179.167 610.628 177.315 608.475 Q175.487 606.323 172.339 606.323 M181.621 591.67 L181.621 595.929 Q179.862 595.096 178.056 594.656 Q176.274 594.216 174.514 594.216 Q169.885 594.216 167.431 597.341 Q165.001 600.466 164.653 606.786 Q166.019 604.772 168.079 603.707 Q170.139 602.619 172.616 602.619 Q177.825 602.619 180.834 605.79 Q183.866 608.938 183.866 614.378 Q183.866 619.702 180.718 622.92 Q177.57 626.137 172.339 626.137 Q166.343 626.137 163.172 621.554 Q160.001 616.948 160.001 608.221 Q160.001 600.026 163.89 595.165 Q167.778 590.281 174.329 590.281 Q176.089 590.281 177.871 590.628 Q179.676 590.975 181.621 591.67 Z" fill="#000000" fill-rule="nonzero" fill-opacity="1" /><path clip-path="url(#clip070)" d="M126.783 273.568 Q123.172 273.568 121.343 277.132 Q119.538 280.674 119.538 287.804 Q119.538 294.91 121.343 298.475 Q123.172 302.016 126.783 302.016 Q130.417 302.016 132.223 298.475 Q134.052 294.91 134.052 287.804 Q134.052 280.674 132.223 277.132 Q130.417 273.568 126.783 273.568 M126.783 269.864 Q132.593 269.864 135.649 274.47 Q138.728 279.054 138.728 287.804 Q138.728 296.53 135.649 301.137 Q132.593 305.72 126.783 305.72 Q120.973 305.72 117.894 301.137 Q114.839 296.53 114.839 287.804 Q114.839 279.054 117.894 274.47 Q120.973 269.864 126.783 269.864 Z" fill="#000000" fill-rule="nonzero" fill-opacity="1" /><path clip-path="url(#clip070)" d="M146.945 299.169 L151.829 299.169 L151.829 305.049 L146.945 305.049 L146.945 299.169 Z" fill="#000000" fill-rule="nonzero" fill-opacity="1" /><path clip-path="url(#clip070)" d="M172.014 288.637 Q168.681 288.637 166.76 290.419 Q164.862 292.202 164.862 295.327 Q164.862 298.452 166.76 300.234 Q168.681 302.016 172.014 302.016 Q175.348 302.016 177.269 300.234 Q179.19 298.429 179.19 295.327 Q179.19 292.202 177.269 290.419 Q175.371 288.637 172.014 288.637 M167.339 286.646 Q164.329 285.905 162.64 283.845 Q160.973 281.785 160.973 278.822 Q160.973 274.679 163.913 272.271 Q166.876 269.864 172.014 269.864 Q177.176 269.864 180.116 272.271 Q183.056 274.679 183.056 278.822 Q183.056 281.785 181.366 283.845 Q179.7 285.905 176.714 286.646 Q180.093 287.433 181.968 289.725 Q183.866 292.017 183.866 295.327 Q183.866 300.35 180.788 303.035 Q177.732 305.72 172.014 305.72 Q166.297 305.72 163.218 303.035 Q160.163 300.35 160.163 295.327 Q160.163 292.017 162.061 289.725 Q163.959 287.433 167.339 286.646 M165.626 279.262 Q165.626 281.947 167.292 283.452 Q168.982 284.956 172.014 284.956 Q175.024 284.956 176.714 283.452 Q178.426 281.947 178.426 279.262 Q178.426 276.577 176.714 275.072 Q175.024 273.568 172.014 273.568 Q168.982 273.568 167.292 275.072 Q165.626 276.577 165.626 279.262 Z" fill="#000000" fill-rule="nonzero" fill-opacity="1" /><path clip-path="url(#clip070)" d="M16.4842 864.897 L16.4842 857.99 L36.0269 844.813 L16.4842 831.731 L16.4842 824.825 L41.3741 841.63 L64.0042 841.63 L64.0042 848.091 L41.3741 848.091 L16.4842 864.897 Z" fill="#000000" fill-rule="nonzero" fill-opacity="1" /><path clip-path="url(#clip070)" d="M43.5384 829.503 L43.5384 812.348 L48.7583 812.348 L48.7583 829.503 L43.5384 829.503 Z" fill="#000000" fill-rule="nonzero" fill-opacity="1" /><path clip-path="url(#clip070)" d="M46.0847 786.821 Q46.0847 793.919 47.7079 796.656 Q49.3312 799.394 53.2461 799.394 Q56.3653 799.394 58.2114 797.357 Q60.0256 795.288 60.0256 791.755 Q60.0256 786.885 56.5881 783.957 Q53.1188 780.997 47.3897 780.997 L46.0847 780.997 L46.0847 786.821 M43.6657 775.14 L64.0042 775.14 L64.0042 780.997 L58.5933 780.997 Q61.8398 783.002 63.3994 785.994 Q64.9272 788.986 64.9272 793.314 Q64.9272 798.789 61.8716 802.035 Q58.7843 805.25 53.6281 805.25 Q47.6125 805.25 44.5569 801.24 Q41.5014 797.197 41.5014 789.208 L41.5014 780.997 L40.9285 780.997 Q36.8862 780.997 34.6901 783.67 Q32.4621 786.312 32.4621 791.118 Q32.4621 794.174 33.1941 797.07 Q33.9262 799.966 35.3903 802.64 L29.9795 802.64 Q28.7381 799.425 28.1334 796.402 Q27.4968 793.378 27.4968 790.513 Q27.4968 782.779 31.5072 778.96 Q35.5176 775.14 43.6657 775.14 Z" fill="#000000" fill-rule="nonzero" fill-opacity="1" /><path clip-path="url(#clip070)" d="M28.3562 733.445 L45.7028 746.335 L64.0042 732.776 L64.0042 739.683 L49.9996 750.059 L64.0042 760.435 L64.0042 767.342 L45.3526 753.497 L28.3562 766.165 L28.3562 759.258 L41.0558 749.805 L28.3562 740.352 L28.3562 733.445 Z" fill="#000000" fill-rule="nonzero" fill-opacity="1" /><path clip-path="url(#clip070)" d="M28.3562 724.501 L28.3562 718.645 L64.0042 718.645 L64.0042 724.501 L28.3562 724.501 M14.479 724.501 L14.479 718.645 L21.895 718.645 L21.895 724.501 L14.479 724.501 Z" fill="#000000" fill-rule="nonzero" fill-opacity="1" /><path clip-path="url(#clip070)" d="M29.4065 683.665 L34.9447 683.665 Q33.6716 686.148 33.035 688.821 Q32.3984 691.495 32.3984 694.359 Q32.3984 698.72 33.7352 700.916 Q35.072 703.08 37.7456 703.08 Q39.7826 703.08 40.9603 701.521 Q42.1061 699.961 43.1565 695.251 L43.6021 693.245 Q44.9389 687.007 47.3897 684.397 Q49.8086 681.755 54.1691 681.755 Q59.1344 681.755 62.0308 685.702 Q64.9272 689.617 64.9272 696.492 Q64.9272 699.356 64.3543 702.476 Q63.8132 705.563 62.6992 709.001 L56.6518 709.001 Q58.3387 705.754 59.198 702.603 Q60.0256 699.452 60.0256 696.365 Q60.0256 692.227 58.6251 689.999 Q57.1929 687.771 54.6147 687.771 Q52.2276 687.771 50.9545 689.394 Q49.6813 690.986 48.5037 696.428 L48.0262 698.465 Q46.8804 703.908 44.5251 706.327 Q42.138 708.746 38.0002 708.746 Q32.9713 708.746 30.2341 705.181 Q27.4968 701.616 27.4968 695.06 Q27.4968 691.813 27.9743 688.949 Q28.4517 686.084 29.4065 683.665 Z" fill="#000000" fill-rule="nonzero" fill-opacity="1" /><path clip-path="url(#clip070)" d="M1087.94 14.0809 L1087.94 22.0612 Q1083.28 19.8332 1079.15 18.7395 Q1075.02 17.6457 1071.17 17.6457 Q1064.48 17.6457 1060.84 20.2383 Q1057.23 22.8309 1057.23 27.611 Q1057.23 31.6214 1059.62 33.6873 Q1062.05 35.7128 1068.78 36.9686 L1073.72 37.9813 Q1082.87 39.7232 1087.21 44.1387 Q1091.58 48.5136 1091.58 55.8863 Q1091.58 64.6767 1085.67 69.2137 Q1079.8 73.7508 1068.41 73.7508 Q1064.12 73.7508 1059.26 72.7785 Q1054.44 71.8063 1049.25 69.9024 L1049.25 61.4765 Q1054.23 64.2716 1059.01 65.6895 Q1063.79 67.1073 1068.41 67.1073 Q1075.42 67.1073 1079.23 64.3527 Q1083.04 61.598 1083.04 56.4939 Q1083.04 52.0379 1080.28 49.5264 Q1077.57 47.0148 1071.33 45.759 L1066.35 44.7868 Q1057.19 42.9639 1053.1 39.075 Q1049.01 35.1862 1049.01 28.2591 Q1049.01 20.2383 1054.64 15.6203 Q1060.31 11.0023 1070.24 11.0023 Q1074.49 11.0023 1078.9 11.7719 Q1083.32 12.5416 1087.94 14.0809 Z" fill="#000000" fill-rule="nonzero" fill-opacity="1" /><path clip-path="url(#clip070)" d="M1136.67 28.9478 L1136.67 35.9153 Q1133.51 34.1734 1130.31 33.3227 Q1127.15 32.4315 1123.91 32.4315 Q1116.66 32.4315 1112.65 37.0496 Q1108.64 41.6271 1108.64 49.9314 Q1108.64 58.2358 1112.65 62.8538 Q1116.66 67.4314 1123.91 67.4314 Q1127.15 67.4314 1130.31 66.5807 Q1133.51 65.6895 1136.67 63.9476 L1136.67 70.8341 Q1133.55 72.2924 1130.19 73.0216 Q1126.87 73.7508 1123.1 73.7508 Q1112.85 73.7508 1106.82 67.3098 Q1100.78 60.8689 1100.78 49.9314 Q1100.78 38.832 1106.86 32.472 Q1112.97 26.1121 1123.59 26.1121 Q1127.03 26.1121 1130.31 26.8413 Q1133.59 27.5299 1136.67 28.9478 Z" fill="#000000" fill-rule="nonzero" fill-opacity="1" /><path clip-path="url(#clip070)" d="M1170.25 49.7694 Q1161.22 49.7694 1157.74 51.8354 Q1154.25 53.9013 1154.25 58.8839 Q1154.25 62.8538 1156.84 65.2034 Q1159.48 67.5124 1163.97 67.5124 Q1170.17 67.5124 1173.9 63.1374 Q1177.67 58.7219 1177.67 51.4303 L1177.67 49.7694 L1170.25 49.7694 M1185.12 46.6907 L1185.12 72.576 L1177.67 72.576 L1177.67 65.6895 Q1175.11 69.8214 1171.31 71.8063 Q1167.5 73.7508 1161.99 73.7508 Q1155.02 73.7508 1150.89 69.8619 Q1146.8 65.9325 1146.8 59.3701 Q1146.8 51.7138 1151.9 47.825 Q1157.05 43.9361 1167.21 43.9361 L1177.67 43.9361 L1177.67 43.2069 Q1177.67 38.0623 1174.26 35.2672 Q1170.9 32.4315 1164.78 32.4315 Q1160.9 32.4315 1157.21 33.3632 Q1153.52 34.295 1150.12 36.1584 L1150.12 29.2718 Q1154.21 27.692 1158.06 26.9223 Q1161.91 26.1121 1165.55 26.1121 Q1175.4 26.1121 1180.26 31.2163 Q1185.12 36.3204 1185.12 46.6907 Z" fill="#000000" fill-rule="nonzero" fill-opacity="1" /><path clip-path="url(#clip070)" d="M1207.85 14.324 L1207.85 27.2059 L1223.2 27.2059 L1223.2 32.9987 L1207.85 32.9987 L1207.85 57.6282 Q1207.85 63.1779 1209.34 64.7578 Q1210.88 66.3376 1215.54 66.3376 L1223.2 66.3376 L1223.2 72.576 L1215.54 72.576 Q1206.91 72.576 1203.63 69.3758 Q1200.35 66.1351 1200.35 57.6282 L1200.35 32.9987 L1194.88 32.9987 L1194.88 27.2059 L1200.35 27.2059 L1200.35 14.324 L1207.85 14.324 Z" fill="#000000" fill-rule="nonzero" fill-opacity="1" /><path clip-path="url(#clip070)" d="M1240.37 14.324 L1240.37 27.2059 L1255.73 27.2059 L1255.73 32.9987 L1240.37 32.9987 L1240.37 57.6282 Q1240.37 63.1779 1241.87 64.7578 Q1243.41 66.3376 1248.07 66.3376 L1255.73 66.3376 L1255.73 72.576 L1248.07 72.576 Q1239.44 72.576 1236.16 69.3758 Q1232.88 66.1351 1232.88 57.6282 L1232.88 32.9987 L1227.41 32.9987 L1227.41 27.2059 L1232.88 27.2059 L1232.88 14.324 L1240.37 14.324 Z" fill="#000000" fill-rule="nonzero" fill-opacity="1" /><path clip-path="url(#clip070)" d="M1304.34 48.0275 L1304.34 51.6733 L1270.07 51.6733 Q1270.55 59.3701 1274.68 63.421 Q1278.86 67.4314 1286.27 67.4314 Q1290.56 67.4314 1294.57 66.3781 Q1298.63 65.3249 1302.6 63.2184 L1302.6 70.267 Q1298.59 71.9684 1294.37 72.8596 Q1290.16 73.7508 1285.82 73.7508 Q1274.97 73.7508 1268.61 67.4314 Q1262.29 61.1119 1262.29 50.3365 Q1262.29 39.1965 1268.28 32.6746 Q1274.32 26.1121 1284.53 26.1121 Q1293.68 26.1121 1298.99 32.0264 Q1304.34 37.9003 1304.34 48.0275 M1296.88 45.84 Q1296.8 39.7232 1293.44 36.0774 Q1290.12 32.4315 1284.61 32.4315 Q1278.37 32.4315 1274.6 35.9558 Q1270.88 39.4801 1270.31 45.8805 L1296.88 45.84 Z" fill="#000000" fill-rule="nonzero" fill-opacity="1" /><path clip-path="url(#clip070)" d="M1342.86 34.1734 Q1341.61 33.4443 1340.11 33.1202 Q1338.65 32.7556 1336.87 32.7556 Q1330.55 32.7556 1327.14 36.8875 Q1323.78 40.9789 1323.78 48.6757 L1323.78 72.576 L1316.29 72.576 L1316.29 27.2059 L1323.78 27.2059 L1323.78 34.2544 Q1326.13 30.1225 1329.9 28.1376 Q1333.67 26.1121 1339.05 26.1121 Q1339.82 26.1121 1340.76 26.2337 Q1341.69 26.3147 1342.82 26.5172 L1342.86 34.1734 Z" fill="#000000" fill-rule="nonzero" fill-opacity="1" /><path clip-path="url(#clip070)" d="M1385.56 18.8205 L1385.56 41.5461 L1395.85 41.5461 Q1401.56 41.5461 1404.68 38.5889 Q1407.8 35.6318 1407.8 30.163 Q1407.8 24.7348 1404.68 21.7777 Q1401.56 18.8205 1395.85 18.8205 L1385.56 18.8205 M1377.38 12.096 L1395.85 12.096 Q1406.02 12.096 1411.2 16.714 Q1416.43 21.2916 1416.43 30.163 Q1416.43 39.1155 1411.2 43.6931 Q1406.02 48.2706 1395.85 48.2706 L1385.56 48.2706 L1385.56 72.576 L1377.38 72.576 L1377.38 12.096 Z" fill="#000000" fill-rule="nonzero" fill-opacity="1" /><path clip-path="url(#clip070)" d="M1427.08 9.54393 L1434.53 9.54393 L1434.53 72.576 L1427.08 72.576 L1427.08 9.54393 Z" fill="#000000" fill-rule="nonzero" fill-opacity="1" /><path clip-path="url(#clip070)" d="M1467.71 32.4315 Q1461.72 32.4315 1458.23 37.1306 Q1454.75 41.7891 1454.75 49.9314 Q1454.75 58.0738 1458.19 62.7728 Q1461.67 67.4314 1467.71 67.4314 Q1473.67 67.4314 1477.15 62.7323 Q1480.63 58.0333 1480.63 49.9314 Q1480.63 41.8701 1477.15 37.1711 Q1473.67 32.4315 1467.71 32.4315 M1467.71 26.1121 Q1477.43 26.1121 1482.98 32.4315 Q1488.53 38.7509 1488.53 49.9314 Q1488.53 61.0714 1482.98 67.4314 Q1477.43 73.7508 1467.71 73.7508 Q1457.95 73.7508 1452.4 67.4314 Q1446.89 61.0714 1446.89 49.9314 Q1446.89 38.7509 1452.4 32.4315 Q1457.95 26.1121 1467.71 26.1121 Z" fill="#000000" fill-rule="nonzero" fill-opacity="1" /><path clip-path="url(#clip070)" d="M1508.26 14.324 L1508.26 27.2059 L1523.61 27.2059 L1523.61 32.9987 L1508.26 32.9987 L1508.26 57.6282 Q1508.26 63.1779 1509.76 64.7578 Q1511.3 66.3376 1515.96 66.3376 L1523.61 66.3376 L1523.61 72.576 L1515.96 72.576 Q1507.33 72.576 1504.05 69.3758 Q1500.77 66.1351 1500.77 57.6282 L1500.77 32.9987 L1495.3 32.9987 L1495.3 27.2059 L1500.77 27.2059 L1500.77 14.324 L1508.26 14.324 Z" fill="#000000" fill-rule="nonzero" fill-opacity="1" /><circle clip-path="url(#clip072)" cx="280.231" cy="310.169" r="14.4" fill="#009af9" fill-rule="evenodd" fill-opacity="1" stroke="#000000" stroke-opacity="1" stroke-width="3.2"/>
<circle clip-path="url(#clip072)" cx="503.804" cy="800.659" r="14.4" fill="#009af9" fill-rule="evenodd" fill-opacity="1" stroke="#000000" stroke-opacity="1" stroke-width="3.2"/>
<circle clip-path="url(#clip072)" cx="727.378" cy="160.256" r="14.4" fill="#009af9" fill-rule="evenodd" fill-opacity="1" stroke="#000000" stroke-opacity="1" stroke-width="3.2"/>
<circle clip-path="url(#clip072)" cx="950.951" cy="409.114" r="14.4" fill="#009af9" fill-rule="evenodd" fill-opacity="1" stroke="#000000" stroke-opacity="1" stroke-width="3.2"/>
<circle clip-path="url(#clip072)" cx="1174.52" cy="1067.09" r="14.4" fill="#009af9" fill-rule="evenodd" fill-opacity="1" stroke="#000000" stroke-opacity="1" stroke-width="3.2"/>
<circle clip-path="url(#clip072)" cx="1398.1" cy="183.782" r="14.4" fill="#009af9" fill-rule="evenodd" fill-opacity="1" stroke="#000000" stroke-opacity="1" stroke-width="3.2"/>
<circle clip-path="url(#clip072)" cx="1621.67" cy="832.002" r="14.4" fill="#009af9" fill-rule="evenodd" fill-opacity="1" stroke="#000000" stroke-opacity="1" stroke-width="3.2"/>
<circle clip-path="url(#clip072)" cx="1845.24" cy="659.71" r="14.4" fill="#009af9" fill-rule="evenodd" fill-opacity="1" stroke="#000000" stroke-opacity="1" stroke-width="3.2"/>
<circle clip-path="url(#clip072)" cx="2068.82" cy="615.265" r="14.4" fill="#009af9" fill-rule="evenodd" fill-opacity="1" stroke="#000000" stroke-opacity="1" stroke-width="3.2"/>
<circle clip-path="url(#clip072)" cx="2292.39" cy="1386.4" r="14.4" fill="#009af9" fill-rule="evenodd" fill-opacity="1" stroke="#000000" stroke-opacity="1" stroke-width="3.2"/>
<path clip-path="url(#clip070)" d="M2015.94 270.476 L2281.66 270.476 L2281.66 166.796 L2015.94 166.796  Z" fill="#ffffff" fill-rule="evenodd" fill-opacity="1"/>
<polyline clip-path="url(#clip070)" style="stroke:#000000; stroke-linecap:round; stroke-linejoin:round; stroke-width:4; stroke-opacity:1; fill:none" points="2015.94,270.476 2281.66,270.476 2281.66,166.796 2015.94,166.796 2015.94,270.476 "/>
<circle clip-path="url(#clip070)" cx="2110.74" cy="218.636" r="20.48" fill="#009af9" fill-rule="evenodd" fill-opacity="1" stroke="#000000" stroke-opacity="1" stroke-width="4.55111"/>
<path clip-path="url(#clip070)" d="M2219.37 238.323 Q2217.57 242.953 2215.85 244.365 Q2214.14 245.777 2211.27 245.777 L2207.87 245.777 L2207.87 242.212 L2210.37 242.212 Q2212.13 242.212 2213.1 241.379 Q2214.07 240.545 2215.25 237.443 L2216.02 235.499 L2205.53 209.99 L2210.04 209.99 L2218.15 230.268 L2226.25 209.99 L2230.76 209.99 L2219.37 238.323 Z" fill="#000000" fill-rule="nonzero" fill-opacity="1" /><path clip-path="url(#clip070)" d="M2238.05 231.981 L2245.69 231.981 L2245.69 205.615 L2237.38 207.282 L2237.38 203.022 L2245.65 201.356 L2250.32 201.356 L2250.32 231.981 L2257.96 231.981 L2257.96 235.916 L2238.05 235.916 L2238.05 231.981 Z" fill="#000000" fill-rule="nonzero" fill-opacity="1" /></svg>