<?xml version="1.0" encoding="utf-8"?>
<svg xmlns="http://www.w3.org/2000/svg" xmlns:xlink="http://www.w3.org/1999/xlink" width="600" height="400" viewBox="0 0 2400 1600">
<defs>
  <clipPath id="clip340">
    <rect x="0" y="0" width="2400" height="1600"/>
  </clipPath>
</defs>
<path clip-path="url(#clip340)" d="M0 1600 L2400 1600 L2400 8.88178e-14 L0 8.88178e-14  Z" fill="#ffffff" fill-rule="evenodd" fill-opacity="1"/>
<defs>
  <clipPath id="clip341">
    <rect x="480" y="0" width="1681" height="1600"/>
  </clipPath>
</defs>
<path clip-path="url(#clip340)" d="M156.598 1486.45 L2352.76 1486.45 L2352.76 47.2441 L156.598 47.2441  Z" fill="#ffffff" fill-rule="evenodd" fill-opacity="1"/>
<defs>
  <clipPath id="clip342">
    <rect x="156" y="47" width="2197" height="1440"/>
  </clipPath>
</defs>
<polyline clip-path="url(#clip342)" style="stroke:#000000; stroke-linecap:round; stroke-linejoin:round; stroke-width:2; stroke-opacity:0.1; fill:none" points="448.959,1486.45 448.959,47.2441 "/>
<polyline clip-path="url(#clip342)" style="stroke:#000000; stroke-linecap:round; stroke-linejoin:round; stroke-width:2; stroke-opacity:0.1; fill:none" points="909.369,1486.45 909.369,47.2441 "/>
<polyline clip-path="url(#clip342)" style="stroke:#000000; stroke-linecap:round; stroke-linejoin:round; stroke-width:2; stroke-opacity:0.1; fill:none" points="1369.78,1486.45 1369.78,47.2441 "/>
<polyline clip-path="url(#clip342)" style="stroke:#000000; stroke-linecap:round; stroke-linejoin:round; stroke-width:2; stroke-opacity:0.1; fill:none" points="1830.19,1486.45 1830.19,47.2441 "/>
<polyline clip-path="url(#clip342)" style="stroke:#000000; stroke-linecap:round; stroke-linejoin:round; stroke-width:2; stroke-opacity:0.1; fill:none" points="2290.6,1486.45 2290.6,47.2441 "/>
<polyline clip-path="url(#clip340)" style="stroke:#000000; stroke-linecap:round; stroke-linejoin:round; stroke-width:4; stroke-opacity:1; fill:none" points="156.598,1486.45 2352.76,1486.45 "/>
<polyline clip-path="url(#clip340)" style="stroke:#000000; stroke-linecap:round; stroke-linejoin:round; stroke-width:4; stroke-opacity:1; fill:none" points="448.959,1486.45 448.959,1467.55 "/>
<polyline clip-path="url(#clip340)" style="stroke:#000000; stroke-linecap:round; stroke-linejoin:round; stroke-width:4; stroke-opacity:1; fill:none" points="909.369,1486.45 909.369,1467.55 "/>
<polyline clip-path="url(#clip340)" style="stroke:#000000; stroke-linecap:round; stroke-linejoin:round; stroke-width:4; stroke-opacity:1; fill:none" points="1369.78,1486.45 1369.78,1467.55 "/>
<polyline clip-path="url(#clip340)" style="stroke:#000000; stroke-linecap:round; stroke-linejoin:round; stroke-width:4; stroke-opacity:1; fill:none" points="1830.19,1486.45 1830.19,1467.55 "/>
<polyline clip-path="url(#clip340)" style="stroke:#000000; stroke-linecap:round; stroke-linejoin:round; stroke-width:4; stroke-opacity:1; fill:none" points="2290.6,1486.45 2290.6,1467.55 "/>
<path clip-path="url(#clip340)" d="M443.612 1544.91 L459.931 1544.91 L459.931 1548.85 L437.987 1548.85 L437.987 1544.91 Q440.649 1542.16 445.232 1537.53 Q449.838 1532.88 451.019 1531.53 Q453.264 1529.01 454.144 1527.27 Q455.047 1525.51 455.047 1523.82 Q455.047 1521.07 453.102 1519.33 Q451.181 1517.6 448.079 1517.6 Q445.88 1517.6 443.426 1518.36 Q440.996 1519.13 438.218 1520.68 L438.218 1515.95 Q441.042 1514.82 443.496 1514.24 Q445.95 1513.66 447.987 1513.66 Q453.357 1513.66 456.551 1516.35 Q459.746 1519.03 459.746 1523.52 Q459.746 1525.65 458.936 1527.57 Q458.149 1529.47 456.042 1532.07 Q455.463 1532.74 452.362 1535.95 Q449.26 1539.15 443.612 1544.91 Z" fill="#000000" fill-rule="nonzero" fill-opacity="1" /><path clip-path="url(#clip340)" d="M912.379 1518.36 L900.573 1536.81 L912.379 1536.81 L912.379 1518.36 M911.152 1514.29 L917.031 1514.29 L917.031 1536.81 L921.962 1536.81 L921.962 1540.7 L917.031 1540.7 L917.031 1548.85 L912.379 1548.85 L912.379 1540.7 L896.777 1540.7 L896.777 1536.19 L911.152 1514.29 Z" fill="#000000" fill-rule="nonzero" fill-opacity="1" /><path clip-path="url(#clip340)" d="M1370.18 1529.7 Q1367.04 1529.7 1365.18 1531.86 Q1363.36 1534.01 1363.36 1537.76 Q1363.36 1541.49 1365.18 1543.66 Q1367.04 1545.82 1370.18 1545.82 Q1373.33 1545.82 1375.16 1543.66 Q1377.01 1541.49 1377.01 1537.76 Q1377.01 1534.01 1375.16 1531.86 Q1373.33 1529.7 1370.18 1529.7 M1379.47 1515.05 L1379.47 1519.31 Q1377.71 1518.48 1375.9 1518.04 Q1374.12 1517.6 1372.36 1517.6 Q1367.73 1517.6 1365.28 1520.72 Q1362.85 1523.85 1362.5 1530.17 Q1363.87 1528.15 1365.93 1527.09 Q1367.99 1526 1370.46 1526 Q1375.67 1526 1378.68 1529.17 Q1381.71 1532.32 1381.71 1537.76 Q1381.71 1543.08 1378.56 1546.3 Q1375.42 1549.52 1370.18 1549.52 Q1364.19 1549.52 1361.02 1544.94 Q1357.85 1540.33 1357.85 1531.6 Q1357.85 1523.41 1361.74 1518.55 Q1365.62 1513.66 1372.18 1513.66 Q1373.93 1513.66 1375.72 1514.01 Q1377.52 1514.36 1379.47 1515.05 Z" fill="#000000" fill-rule="nonzero" fill-opacity="1" /><path clip-path="url(#clip340)" d="M1830.19 1532.44 Q1826.86 1532.44 1824.94 1534.22 Q1823.04 1536 1823.04 1539.13 Q1823.04 1542.25 1824.94 1544.03 Q1826.86 1545.82 1830.19 1545.82 Q1833.52 1545.82 1835.44 1544.03 Q1837.37 1542.23 1837.37 1539.13 Q1837.37 1536 1835.44 1534.22 Q1833.55 1532.44 1830.19 1532.44 M1825.51 1530.45 Q1822.5 1529.7 1820.82 1527.64 Q1819.15 1525.58 1819.15 1522.62 Q1819.15 1518.48 1822.09 1516.07 Q1825.05 1513.66 1830.19 1513.66 Q1835.35 1513.66 1838.29 1516.07 Q1841.23 1518.48 1841.23 1522.62 Q1841.23 1525.58 1839.54 1527.64 Q1837.88 1529.7 1834.89 1530.45 Q1838.27 1531.23 1840.14 1533.52 Q1842.04 1535.82 1842.04 1539.13 Q1842.04 1544.15 1838.96 1546.83 Q1835.91 1549.52 1830.19 1549.52 Q1824.47 1549.52 1821.39 1546.83 Q1818.34 1544.15 1818.34 1539.13 Q1818.34 1535.82 1820.24 1533.52 Q1822.13 1531.23 1825.51 1530.45 M1823.8 1523.06 Q1823.8 1525.75 1825.47 1527.25 Q1827.16 1528.76 1830.19 1528.76 Q1833.2 1528.76 1834.89 1527.25 Q1836.6 1525.75 1836.6 1523.06 Q1836.6 1520.38 1834.89 1518.87 Q1833.2 1517.37 1830.19 1517.37 Q1827.16 1517.37 1825.47 1518.87 Q1823.8 1520.38 1823.8 1523.06 Z" fill="#000000" fill-rule="nonzero" fill-opacity="1" /><path clip-path="url(#clip340)" d="M2265.29 1544.91 L2272.93 1544.91 L2272.93 1518.55 L2264.62 1520.21 L2264.62 1515.95 L2272.88 1514.29 L2277.56 1514.29 L2277.56 1544.91 L2285.2 1544.91 L2285.2 1548.85 L2265.29 1548.85 L2265.29 1544.91 Z" fill="#000000" fill-rule="nonzero" fill-opacity="1" /><path clip-path="url(#clip340)" d="M2304.64 1517.37 Q2301.03 1517.37 2299.2 1520.93 Q2297.39 1524.47 2297.39 1531.6 Q2297.39 1538.71 2299.2 1542.27 Q2301.03 1545.82 2304.64 1545.82 Q2308.27 1545.82 2310.08 1542.27 Q2311.91 1538.71 2311.91 1531.6 Q2311.91 1524.47 2310.08 1520.93 Q2308.27 1517.37 2304.64 1517.37 M2304.64 1513.66 Q2310.45 1513.66 2313.51 1518.27 Q2316.58 1522.85 2316.58 1531.6 Q2316.58 1540.33 2313.51 1544.94 Q2310.45 1549.52 2304.64 1549.52 Q2298.83 1549.52 2295.75 1544.94 Q2292.7 1540.33 2292.7 1531.6 Q2292.7 1522.85 2295.75 1518.27 Q2298.83 1513.66 2304.64 1513.66 Z" fill="#000000" fill-rule="nonzero" fill-opacity="1" /><polyline clip-path="url(#clip342)" style="stroke:#000000; stroke-linecap:round; stroke-linejoin:round; stroke-width:2; stroke-opacity:0.1; fill:none" points="156.598,1293.6 2352.76,1293.6 "/>
<polyline clip-path="url(#clip342)" style="stroke:#000000; stroke-linecap:round; stroke-linejoin:round; stroke-width:2; stroke-opacity:0.1; fill:none" points="156.598,938.789 2352.76,938.789 "/>
<polyline clip-path="url(#clip342)" style="stroke:#000000; stroke-linecap:round; stroke-linejoin:round; stroke-width:2; stroke-opacity:0.1; fill:none" points="156.598,583.982 2352.76,583.982 "/>
<polyline clip-path="url(#clip342)" style="stroke:#000000; stroke-linecap:round; stroke-linejoin:round; stroke-width:2; stroke-opacity:0.1; fill:none" points="156.598,229.175 2352.76,229.175 "/>
<polyline clip-path="url(#clip340)" style="stroke:#000000; stroke-linecap:round; stroke-linejoin:round; stroke-width:4; stroke-opacity:1; fill:none" points="156.598,1486.45 156.598,47.2441 "/>
<polyline clip-path="url(#clip340)" style="stroke:#000000; stroke-linecap:round; stroke-linejoin:round; stroke-width:4; stroke-opacity:1; fill:none" points="156.598,1293.6 175.496,1293.6 "/>
<polyline clip-path="url(#clip340)" style="stroke:#000000; stroke-linecap:round; stroke-linejoin:round; stroke-width:4; stroke-opacity:1; fill:none" points="156.598,938.789 175.496,938.789 "/>
<polyline clip-path="url(#clip340)" style="stroke:#000000; stroke-linecap:round; stroke-linejoin:round; stroke-width:4; stroke-opacity:1; fill:none" points="156.598,583.982 175.496,583.982 "/>
<polyline clip-path="url(#clip340)" style="stroke:#000000; stroke-linecap:round; stroke-linejoin:round; stroke-width:4; stroke-opacity:1; fill:none" points="156.598,229.175 175.496,229.175 "/>
<path clip-path="url(#clip340)" d="M65.0198 1279.39 Q61.4087 1279.39 59.58 1282.96 Q57.7745 1286.5 57.7745 1293.63 Q57.7745 1300.74 59.58 1304.3 Q61.4087 1307.84 65.0198 1307.84 Q68.6541 1307.84 70.4596 1304.3 Q72.2883 1300.74 72.2883 1293.63 Q72.2883 1286.5 70.4596 1282.96 Q68.6541 1279.39 65.0198 1279.39 M65.0198 1275.69 Q70.83 1275.69 73.8855 1280.3 Q76.9642 1284.88 76.9642 1293.63 Q76.9642 1302.36 73.8855 1306.96 Q70.83 1311.55 65.0198 1311.55 Q59.2097 1311.55 56.131 1306.96 Q53.0754 1302.36 53.0754 1293.63 Q53.0754 1284.88 56.131 1280.3 Q59.2097 1275.69 65.0198 1275.69 Z" fill="#000000" fill-rule="nonzero" fill-opacity="1" /><path clip-path="url(#clip340)" d="M85.1818 1305 L90.066 1305 L90.066 1310.88 L85.1818 1310.88 L85.1818 1305 Z" fill="#000000" fill-rule="nonzero" fill-opacity="1" /><path clip-path="url(#clip340)" d="M104.279 1306.94 L120.598 1306.94 L120.598 1310.88 L98.6539 1310.88 L98.6539 1306.94 Q101.316 1304.19 105.899 1299.56 Q110.506 1294.9 111.686 1293.56 Q113.932 1291.04 114.811 1289.3 Q115.714 1287.54 115.714 1285.85 Q115.714 1283.1 113.77 1281.36 Q111.848 1279.63 108.746 1279.63 Q106.547 1279.63 104.094 1280.39 Q101.663 1281.15 98.8854 1282.7 L98.8854 1277.98 Q101.709 1276.85 104.163 1276.27 Q106.617 1275.69 108.654 1275.69 Q114.024 1275.69 117.219 1278.38 Q120.413 1281.06 120.413 1285.55 Q120.413 1287.68 119.603 1289.6 Q118.816 1291.5 116.709 1294.09 Q116.131 1294.76 113.029 1297.98 Q109.927 1301.18 104.279 1306.94 Z" fill="#000000" fill-rule="nonzero" fill-opacity="1" /><path clip-path="url(#clip340)" d="M62.9365 924.588 Q59.3254 924.588 57.4967 928.152 Q55.6912 931.694 55.6912 938.824 Q55.6912 945.93 57.4967 949.495 Q59.3254 953.036 62.9365 953.036 Q66.5707 953.036 68.3763 949.495 Q70.205 945.93 70.205 938.824 Q70.205 931.694 68.3763 928.152 Q66.5707 924.588 62.9365 924.588 M62.9365 920.884 Q68.7467 920.884 71.8022 925.49 Q74.8809 930.074 74.8809 938.824 Q74.8809 947.55 71.8022 952.157 Q68.7467 956.74 62.9365 956.74 Q57.1264 956.74 54.0477 952.157 Q50.9921 947.55 50.9921 938.824 Q50.9921 930.074 54.0477 925.49 Q57.1264 920.884 62.9365 920.884 Z" fill="#000000" fill-rule="nonzero" fill-opacity="1" /><path clip-path="url(#clip340)" d="M83.0984 950.189 L87.9827 950.189 L87.9827 956.069 L83.0984 956.069 L83.0984 950.189 Z" fill="#000000" fill-rule="nonzero" fill-opacity="1" /><path clip-path="url(#clip340)" d="M111.015 925.583 L99.2095 944.032 L111.015 944.032 L111.015 925.583 M109.788 921.509 L115.668 921.509 L115.668 944.032 L120.598 944.032 L120.598 947.921 L115.668 947.921 L115.668 956.069 L111.015 956.069 L111.015 947.921 L95.4132 947.921 L95.4132 943.407 L109.788 921.509 Z" fill="#000000" fill-rule="nonzero" fill-opacity="1" /><path clip-path="url(#clip340)" d="M63.2606 569.78 Q59.6495 569.78 57.8208 573.345 Q56.0152 576.887 56.0152 584.016 Q56.0152 591.123 57.8208 594.688 Q59.6495 598.229 63.2606 598.229 Q66.8948 598.229 68.7004 594.688 Q70.5291 591.123 70.5291 584.016 Q70.5291 576.887 68.7004 573.345 Q66.8948 569.78 63.2606 569.78 M63.2606 566.077 Q69.0707 566.077 72.1263 570.683 Q75.205 575.267 75.205 584.016 Q75.205 592.743 72.1263 597.35 Q69.0707 601.933 63.2606 601.933 Q57.4504 601.933 54.3717 597.35 Q51.3162 592.743 51.3162 584.016 Q51.3162 575.267 54.3717 570.683 Q57.4504 566.077 63.2606 566.077 Z" fill="#000000" fill-rule="nonzero" fill-opacity="1" /><path clip-path="url(#clip340)" d="M83.4225 595.382 L88.3067 595.382 L88.3067 601.262 L83.4225 601.262 L83.4225 595.382 Z" fill="#000000" fill-rule="nonzero" fill-opacity="1" /><path clip-path="url(#clip340)" d="M109.071 582.118 Q105.922 582.118 104.071 584.271 Q102.242 586.424 102.242 590.174 Q102.242 593.901 104.071 596.077 Q105.922 598.229 109.071 598.229 Q112.219 598.229 114.047 596.077 Q115.899 593.901 115.899 590.174 Q115.899 586.424 114.047 584.271 Q112.219 582.118 109.071 582.118 M118.353 567.466 L118.353 571.725 Q116.594 570.892 114.788 570.452 Q113.006 570.012 111.246 570.012 Q106.617 570.012 104.163 573.137 Q101.733 576.262 101.385 582.581 Q102.751 580.567 104.811 579.503 Q106.871 578.415 109.348 578.415 Q114.557 578.415 117.566 581.586 Q120.598 584.734 120.598 590.174 Q120.598 595.498 117.45 598.715 Q114.302 601.933 109.071 601.933 Q103.075 601.933 99.9039 597.35 Q96.7326 592.743 96.7326 584.016 Q96.7326 575.822 100.621 570.961 Q104.51 566.077 111.061 566.077 Q112.82 566.077 114.603 566.424 Q116.408 566.771 118.353 567.466 Z" fill="#000000" fill-rule="nonzero" fill-opacity="1" /><path clip-path="url(#clip340)" d="M63.5152 214.973 Q59.9041 214.973 58.0754 218.538 Q56.2699 222.08 56.2699 229.209 Q56.2699 236.316 58.0754 239.881 Q59.9041 243.422 63.5152 243.422 Q67.1494 243.422 68.955 239.881 Q70.7837 236.316 70.7837 229.209 Q70.7837 222.08 68.955 218.538 Q67.1494 214.973 63.5152 214.973 M63.5152 211.27 Q69.3254 211.27 72.3809 215.876 Q75.4596 220.459 75.4596 229.209 Q75.4596 237.936 72.3809 242.543 Q69.3254 247.126 63.5152 247.126 Q57.7051 247.126 54.6264 242.543 Q51.5708 237.936 51.5708 229.209 Q51.5708 220.459 54.6264 215.876 Q57.7051 211.27 63.5152 211.27 Z" fill="#000000" fill-rule="nonzero" fill-opacity="1" /><path clip-path="url(#clip340)" d="M83.6771 240.575 L88.5614 240.575 L88.5614 246.455 L83.6771 246.455 L83.6771 240.575 Z" fill="#000000" fill-rule="nonzero" fill-opacity="1" /><path clip-path="url(#clip340)" d="M108.746 230.043 Q105.413 230.043 103.492 231.825 Q101.594 233.607 101.594 236.732 Q101.594 239.857 103.492 241.64 Q105.413 243.422 108.746 243.422 Q112.08 243.422 114.001 241.64 Q115.922 239.834 115.922 236.732 Q115.922 233.607 114.001 231.825 Q112.103 230.043 108.746 230.043 M104.071 228.052 Q101.061 227.311 99.3715 225.251 Q97.7048 223.191 97.7048 220.228 Q97.7048 216.084 100.645 213.677 Q103.608 211.27 108.746 211.27 Q113.908 211.27 116.848 213.677 Q119.788 216.084 119.788 220.228 Q119.788 223.191 118.098 225.251 Q116.432 227.311 113.445 228.052 Q116.825 228.839 118.7 231.131 Q120.598 233.422 120.598 236.732 Q120.598 241.756 117.52 244.441 Q114.464 247.126 108.746 247.126 Q103.029 247.126 99.9502 244.441 Q96.8947 241.756 96.8947 236.732 Q96.8947 233.422 98.7928 231.131 Q100.691 228.839 104.071 228.052 M102.358 220.668 Q102.358 223.353 104.024 224.858 Q105.714 226.362 108.746 226.362 Q111.756 226.362 113.445 224.858 Q115.158 223.353 115.158 220.668 Q115.158 217.983 113.445 216.478 Q111.756 214.973 108.746 214.973 Q105.714 214.973 104.024 216.478 Q102.358 217.983 102.358 220.668 Z" fill="#000000" fill-rule="nonzero" fill-opacity="1" /><polyline clip-path="url(#clip342)" style="stroke:#ff0000; stroke-linecap:round; stroke-linejoin:round; stroke-width:8; stroke-opacity:1; fill:none" stroke-dasharray="32, 20" points="218.754,253.979 448.959,797.113 679.164,87.9763 909.369,363.544 1139.57,1092.13 1369.78,114.027 1599.98,831.819 1830.19,641.036 2060.4,591.82 2290.6,1445.72 "/>
<path clip-path="url(#clip340)" d="M2007.5 198.898 L2279.55 198.898 L2279.55 95.2176 L2007.5 95.2176  Z" fill="#ffffff" fill-rule="evenodd" fill-opacity="1"/>
<polyline clip-path="url(#clip340)" style="stroke:#000000; stroke-linecap:round; stroke-linejoin:round; stroke-width:4; stroke-opacity:1; fill:none" points="2007.5,198.898 2279.55,198.898 2279.55,95.2176 2007.5,95.2176 2007.5,198.898 "/>
<polyline clip-path="url(#clip340)" style="stroke:#ff0000; stroke-linecap:round; stroke-linejoin:round; stroke-width:8; stroke-opacity:1; fill:none" stroke-dasharray="32, 20" points="2031.91,147.058 2178.32,147.058 "/>
<path clip-path="url(#clip340)" d="M2216.56 166.745 Q2214.76 171.375 2213.04 172.787 Q2211.33 174.199 2208.46 174.199 L2205.06 174.199 L2205.06 170.634 L2207.56 170.634 Q2209.32 170.634 2210.29 169.8 Q2211.26 168.967 2212.44 165.865 L2213.2 163.921 L2202.72 138.412 L2207.23 138.412 L2215.33 158.689 L2223.44 138.412 L2227.95 138.412 L2216.56 166.745 Z" fill="#000000" fill-rule="nonzero" fill-opacity="1" /><path clip-path="url(#clip340)" d="M2235.24 160.402 L2242.88 160.402 L2242.88 134.037 L2234.57 135.703 L2234.57 131.444 L2242.83 129.778 L2247.51 129.778 L2247.51 160.402 L2255.15 160.402 L2255.15 164.338 L2235.24 164.338 L2235.24 160.402 Z" fill="#000000" fill-rule="nonzero" fill-opacity="1" /></svg>