<?xml version="1.0" encoding="utf-8"?>
<svg xmlns="http://www.w3.org/2000/svg" xmlns:xlink="http://www.w3.org/1999/xlink" width="600" height="400" viewBox="0 0 2400 1600">
<defs>
  <clipPath id="clip400">
    <rect x="0" y="0" width="2400" height="1600"/>
  </clipPath>
</defs>
<path clip-path="url(#clip400)" d="M0 1600 L2400 1600 L2400 8.88178e-14 L0 8.88178e-14  Z" fill="#ffffff" fill-rule="evenodd" fill-opacity="1"/>
<defs>
  <clipPath id="clip401">
    <rect x="480" y="0" width="1681" height="1600"/>
  </clipPath>
</defs>
<path clip-path="url(#clip400)" d="M156.598 1486.45 L2352.76 1486.45 L2352.76 47.2441 L156.598 47.2441  Z" fill="#ffffff" fill-rule="evenodd" fill-opacity="1"/>
<defs>
  <clipPath id="clip402">
    <rect x="156" y="47" width="2197" height="1440"/>
  </clipPath>
</defs>
<polyline clip-path="url(#clip402)" style="stroke:#000000; stroke-linecap:round; stroke-linejoin:round; stroke-width:2; stroke-opacity:0.1; fill:none" points="448.959,1486.45 448.959,47.2441 "/>
<polyline clip-path="url(#clip402)" style="stroke:#000000; stroke-linecap:round; stroke-linejoin:round; stroke-width:2; stroke-opacity:0.1; fill:none" points="909.369,1486.45 909.369,47.2441 "/>
<polyline clip-path="url(#clip402)" style="stroke:#000000; stroke-linecap:round; stroke-linejoin:round; stroke-width:2; stroke-opacity:0.1; fill:none" points="1369.78,1486.45 1369.78,47.2441 "/>
<polyline clip-path="url(#clip402)" style="stroke:#000000; stroke-linecap:round; stroke-linejoin:round; stroke-width:2; stroke-opacity:0.1; fill:none" points="1830.19,1486.45 1830.19,47.2441 "/>
<polyline clip-path="url(#clip402)" style="stroke:#000000; stroke-linecap:round; stroke-linejoin:round; stroke-width:2; stroke-opacity:0.1; fill:none" points="2290.6,1486.45 2290.6,47.2441 "/>
<polyline clip-path="url(#clip400)" style="stroke:#000000; stroke-linecap:round; stroke-linejoin:round; stroke-width:4; stroke-opacity:1; fill:none" points="156.598,1486.45 2352.76,1486.45 "/>
<polyline clip-path="url(#clip400)" style="stroke:#000000; stroke-linecap:round; stroke-linejoin:round; stroke-width:4; stroke-opacity:1; fill:none" points="448.959,1486.45 448.959,1467.55 "/>
<polyline clip-path="url(#clip400)" style="stroke:#000000; stroke-linecap:round; stroke-linejoin:round; stroke-width:4; stroke-opacity:1; fill:none" points="909.369,1486.45 909.369,1467.55 "/>
<polyline clip-path="url(#clip400)" style="stroke:#000000; stroke-linecap:round; stroke-linejoin:round; stroke-width:4; stroke-opacity:1; fill:none" points="1369.78,1486.45 1369.78,1467.55 "/>
<polyline clip-path="url(#clip400)" style="stroke:#000000; stroke-linecap:round; stroke-linejoin:round; stroke-width:4; stroke-opacity:1; fill:none" points="1830.19,1486.45 1830.19,1467.55 "/>
<polyline clip-path="url(#clip400)" style="stroke:#000000; stroke-linecap:round; stroke-linejoin:round; stroke-width:4; stroke-opacity:1; fill:none" points="2290.6,1486.45 2290.6,1467.55 "/>
<path clip-path="url(#clip400)" d="M443.612 1544.91 L459.931 1544.91 L459.931 1548.85 L437.987 1548.85 L437.987 1544.91 Q440.649 1542.16 445.232 1537.53 Q449.838 1532.88 451.019 1531.53 Q453.264 1529.01 454.144 1527.27 Q455.047 1525.51 455.047 1523.82 Q455.047 1521.07 453.102 1519.33 Q451.181 1517.6 448.079 1517.6 Q445.88 1517.6 443.426 1518.36 Q440.996 1519.13 438.218 1520.68 L438.218 1515.95 Q441.042 1514.82 443.496 1514.24 Q445.95 1513.66 447.987 1513.66 Q453.357 1513.66 456.551 1516.35 Q459.746 1519.03 459.746 1523.52 Q459.746 1525.65 458.936 1527.57 Q458.149 1529.47 456.042 1532.07 Q455.463 1532.74 452.362 1535.95 Q449.26 1539.15 443.612 1544.91 Z" fill="#000000" fill-rule="nonzero" fill-opacity="1" /><path clip-path="url(#clip400)" d="M912.379 1518.36 L900.573 1536.81 L912.379 1536.81 L912.379 1518.36 M911.152 1514.29 L917.031 1514.29 L917.031 1536.81 L921.962 1536.81 L921.962 1540.7 L917.031 1540.7 L917.031 1548.85 L912.379 1548.85 L912.379 1540.7 L896.777 1540.7 L896.777 1536.19 L911.152 1514.29 Z" fill="#000000" fill-rule="nonzero" fill-opacity="1" /><path clip-path="url(#clip400)" d="M1370.18 1529.7 Q1367.04 1529.7 1365.18 1531.86 Q1363.36 1534.01 1363.36 1537.76 Q1363.36 1541.49 1365.18 1543.66 Q1367.04 1545.82 1370.18 1545.82 Q1373.33 1545.82 1375.16 1543.66 Q1377.01 1541.49 1377.01 1537.76 Q1377.01 1534.01 1375.16 1531.86 Q1373.33 1529.7 1370.18 1529.7 M1379.47 1515.05 L1379.47 1519.31 Q1377.71 1518.48 1375.9 1518.04 Q1374.12 1517.6 1372.36 1517.6 Q1367.73 1517.6 1365.28 1520.72 Q1362.85 1523.85 1362.5 1530.17 Q1363.87 1528.15 1365.93 1527.09 Q1367.99 1526 1370.46 1526 Q1375.67 1526 1378.68 1529.17 Q1381.71 1532.32 1381.71 1537.76 Q1381.71 1543.08 1378.56 1546.3 Q1375.42 1549.52 1370.18 1549.52 Q1364.19 1549.52 1361.02 1544.94 Q1357.85 1540.33 1357.85 1531.6 Q1357.85 1523.41 1361.74 1518.55 Q1365.62 1513.66 1372.18 1513.66 Q1373.93 1513.66 1375.72 1514.01 Q1377.52 1514.36 1379.47 1515.05 Z" fill="#000000" fill-rule="nonzero" fill-opacity="1" /><path clip-path="url(#clip400)" d="M1830.19 1532.44 Q1826.86 1532.44 1824.94 1534.22 Q1823.04 1536 1823.04 1539.13 Q1823.04 1542.25 1824.94 1544.03 Q1826.86 1545.82 1830.19 1545.82 Q1833.52 1545.82 1835.44 1544.03 Q1837.37 1542.23 1837.37 1539.13 Q1837.37 1536 1835.44 1534.22 Q1833.55 1532.44 1830.19 1532.44 M1825.51 1530.45 Q1822.5 1529.7 1820.82 1527.64 Q1819.15 1525.58 1819.15 1522.62 Q1819.15 1518.48 1822.09 1516.07 Q1825.05 1513.66 1830.19 1513.66 Q1835.35 1513.66 1838.29 1516.07 Q1841.23 1518.48 1841.23 1522.62 Q1841.23 1525.58 1839.54 1527.64 Q1837.88 1529.7 1834.89 1530.45 Q1838.27 1531.23 1840.14 1533.52 Q1842.04 1535.82 1842.04 1539.13 Q1842.04 1544.15 1838.96 1546.83 Q1835.91 1549.52 1830.19 1549.52 Q1824.47 1549.52 1821.39 1546.83 Q1818.34 1544.15 1818.34 1539.13 Q1818.34 1535.82 1820.24 1533.52 Q1822.13 1531.23 1825.51 1530.45 M1823.8 1523.06 Q1823.8 1525.75 1825.47 1527.25 Q1827.16 1528.76 1830.19 1528.76 Q1833.2 1528.76 1834.89 1527.25 Q1836.6 1525.75 1836.6 1523.06 Q1836.6 1520.38 1834.89 1518.87 Q1833.2 1517.37 1830.19 1517.37 Q1827.16 1517.37 1825.47 1518.87 Q1823.8 1520.38 1823.8 1523.06 Z" fill="#000000" fill-rule="nonzero" fill-opacity="1" /><path clip-path="url(#clip400)" d="M2265.29 1544.91 L2272.93 1544.91 L2272.93 1518.55 L2264.62 1520.21 L2264.62 1515.95 L2272.88 1514.29 L2277.56 1514.29 L2277.56 1544.91 L2285.2 1544.91 L2285.2 1548.85 L2265.29 1548.85 L2265.29 1544.91 Z" fill="#000000" fill-rule="nonzero" fill-opacity="1" /><path clip-path="url(#clip400)" d="M2304.64 1517.37 Q2301.03 1517.37 2299.2 1520.93 Q2297.39 1524.47 2297.39 1531.6 Q2297.39 1538.71 2299.2 1542.27 Q2301.03 1545.82 2304.64 1545.82 Q2308.27 1545.82 2310.08 1542.27 Q2311.91 1538.71 2311.91 1531.6 Q2311.91 1524.47 2310.08 1520.93 Q2308.27 1517.37 2304.64 1517.37 M2304.64 1513.66 Q2310.45 1513.66 2313.51 1518.27 Q2316.58 1522.85 2316.58 1531.6 Q2316.58 1540.33 2313.51 1544.94 Q2310.45 1549.52 2304.64 1549.52 Q2298.83 1549.52 2295.75 1544.94 Q2292.7 1540.33 2292.7 1531.6 Q2292.7 1522.85 2295.75 1518.27 Q2298.83 1513.66 2304.64 1513.66 Z" fill="#000000" fill-rule="nonzero" fill-opacity="1" /><polyline clip-path="url(#clip402)" style="stroke:#000000; stroke-linecap:round; stroke-linejoin:round; stroke-width:2; stroke-opacity:0.1; fill:none" points="156.598,1220.66 2352.76,1220.66 "/>
<polyline clip-path="url(#clip402)" style="stroke:#000000; stroke-linecap:round; stroke-linejoin:round; stroke-width:2; stroke-opacity:0.1; fill:none" points="156.598,919.698 2352.76,919.698 "/>
<polyline clip-path="url(#clip402)" style="stroke:#000000; stroke-linecap:round; stroke-linejoin:round; stroke-width:2; stroke-opacity:0.1; fill:none" points="156.598,618.738 2352.76,618.738 "/>
<polyline clip-path="url(#clip402)" style="stroke:#000000; stroke-linecap:round; stroke-linejoin:round; stroke-width:2; stroke-opacity:0.1; fill:none" points="156.598,317.778 2352.76,317.778 "/>
<polyline clip-path="url(#clip400)" style="stroke:#000000; stroke-linecap:round; stroke-linejoin:round; stroke-width:4; stroke-opacity:1; fill:none" points="156.598,1486.45 156.598,47.2441 "/>
<polyline clip-path="url(#clip400)" style="stroke:#000000; stroke-linecap:round; stroke-linejoin:round; stroke-width:4; stroke-opacity:1; fill:none" points="156.598,1220.66 175.496,1220.66 "/>
<polyline clip-path="url(#clip400)" style="stroke:#000000; stroke-linecap:round; stroke-linejoin:round; stroke-width:4; stroke-opacity:1; fill:none" points="156.598,919.698 175.496,919.698 "/>
<polyline clip-path="url(#clip400)" style="stroke:#000000; stroke-linecap:round; stroke-linejoin:round; stroke-width:4; stroke-opacity:1; fill:none" points="156.598,618.738 175.496,618.738 "/>
<polyline clip-path="url(#clip400)" style="stroke:#000000; stroke-linecap:round; stroke-linejoin:round; stroke-width:4; stroke-opacity:1; fill:none" points="156.598,317.778 175.496,317.778 "/>
<path clip-path="url(#clip400)" d="M65.0198 1206.46 Q61.4087 1206.46 59.58 1210.02 Q57.7745 1213.56 57.7745 1220.69 Q57.7745 1227.8 59.58 1231.36 Q61.4087 1234.91 65.0198 1234.91 Q68.6541 1234.91 70.4596 1231.36 Q72.2883 1227.8 72.2883 1220.69 Q72.2883 1213.56 70.4596 1210.02 Q68.6541 1206.46 65.0198 1206.46 M65.0198 1202.75 Q70.83 1202.75 73.8855 1207.36 Q76.9642 1211.94 76.9642 1220.69 Q76.9642 1229.42 73.8855 1234.03 Q70.83 1238.61 65.0198 1238.61 Q59.2097 1238.61 56.131 1234.03 Q53.0754 1229.42 53.0754 1220.69 Q53.0754 1211.94 56.131 1207.36 Q59.2097 1202.75 65.0198 1202.75 Z" fill="#000000" fill-rule="nonzero" fill-opacity="1" /><path clip-path="url(#clip400)" d="M85.1818 1232.06 L90.066 1232.06 L90.066 1237.94 L85.1818 1237.94 L85.1818 1232.06 Z" fill="#000000" fill-rule="nonzero" fill-opacity="1" /><path clip-path="url(#clip400)" d="M104.279 1234 L120.598 1234 L120.598 1237.94 L98.6539 1237.94 L98.6539 1234 Q101.316 1231.25 105.899 1226.62 Q110.506 1221.97 111.686 1220.62 Q113.932 1218.1 114.811 1216.36 Q115.714 1214.6 115.714 1212.91 Q115.714 1210.16 113.77 1208.42 Q111.848 1206.69 108.746 1206.69 Q106.547 1206.69 104.094 1207.45 Q101.663 1208.22 98.8854 1209.77 L98.8854 1205.04 Q101.709 1203.91 104.163 1203.33 Q106.617 1202.75 108.654 1202.75 Q114.024 1202.75 117.219 1205.44 Q120.413 1208.12 120.413 1212.61 Q120.413 1214.74 119.603 1216.66 Q118.816 1218.56 116.709 1221.16 Q116.131 1221.83 113.029 1225.04 Q109.927 1228.24 104.279 1234 Z" fill="#000000" fill-rule="nonzero" fill-opacity="1" /><path clip-path="url(#clip400)" d="M62.9365 905.497 Q59.3254 905.497 57.4967 909.061 Q55.6912 912.603 55.6912 919.733 Q55.6912 926.839 57.4967 930.404 Q59.3254 933.945 62.9365 933.945 Q66.5707 933.945 68.3763 930.404 Q70.205 926.839 70.205 919.733 Q70.205 912.603 68.3763 909.061 Q66.5707 905.497 62.9365 905.497 M62.9365 901.793 Q68.7467 901.793 71.8022 906.399 Q74.8809 910.983 74.8809 919.733 Q74.8809 928.459 71.8022 933.066 Q68.7467 937.649 62.9365 937.649 Q57.1264 937.649 54.0477 933.066 Q50.9921 928.459 50.9921 919.733 Q50.9921 910.983 54.0477 906.399 Q57.1264 901.793 62.9365 901.793 Z" fill="#000000" fill-rule="nonzero" fill-opacity="1" /><path clip-path="url(#clip400)" d="M83.0984 931.098 L87.9827 931.098 L87.9827 936.978 L83.0984 936.978 L83.0984 931.098 Z" fill="#000000" fill-rule="nonzero" fill-opacity="1" /><path clip-path="url(#clip400)" d="M111.015 906.492 L99.2095 924.941 L111.015 924.941 L111.015 906.492 M109.788 902.418 L115.668 902.418 L115.668 924.941 L120.598 924.941 L120.598 928.83 L115.668 928.83 L115.668 936.978 L111.015 936.978 L111.015 928.83 L95.4132 928.83 L95.4132 924.316 L109.788 902.418 Z" fill="#000000" fill-rule="nonzero" fill-opacity="1" /><path clip-path="url(#clip400)" d="M63.2606 604.537 Q59.6495 604.537 57.8208 608.101 Q56.0152 611.643 56.0152 618.773 Q56.0152 625.879 57.8208 629.444 Q59.6495 632.985 63.2606 632.985 Q66.8948 632.985 68.7004 629.444 Q70.5291 625.879 70.5291 618.773 Q70.5291 611.643 68.7004 608.101 Q66.8948 604.537 63.2606 604.537 M63.2606 600.833 Q69.0707 600.833 72.1263 605.439 Q75.205 610.023 75.205 618.773 Q75.205 627.499 72.1263 632.106 Q69.0707 636.689 63.2606 636.689 Q57.4504 636.689 54.3717 632.106 Q51.3162 627.499 51.3162 618.773 Q51.3162 610.023 54.3717 605.439 Q57.4504 600.833 63.2606 600.833 Z" fill="#000000" fill-rule="nonzero" fill-opacity="1" /><path clip-path="url(#clip400)" d="M83.4225 630.138 L88.3067 630.138 L88.3067 636.018 L83.4225 636.018 L83.4225 630.138 Z" fill="#000000" fill-rule="nonzero" fill-opacity="1" /><path clip-path="url(#clip400)" d="M109.071 616.874 Q105.922 616.874 104.071 619.027 Q102.242 621.18 102.242 624.93 Q102.242 628.657 104.071 630.833 Q105.922 632.985 109.071 632.985 Q112.219 632.985 114.047 630.833 Q115.899 628.657 115.899 624.93 Q115.899 621.18 114.047 619.027 Q112.219 616.874 109.071 616.874 M118.353 602.222 L118.353 606.481 Q116.594 605.648 114.788 605.208 Q113.006 604.768 111.246 604.768 Q106.617 604.768 104.163 607.893 Q101.733 611.018 101.385 617.337 Q102.751 615.323 104.811 614.259 Q106.871 613.171 109.348 613.171 Q114.557 613.171 117.566 616.342 Q120.598 619.49 120.598 624.93 Q120.598 630.254 117.45 633.472 Q114.302 636.689 109.071 636.689 Q103.075 636.689 99.9039 632.106 Q96.7326 627.499 96.7326 618.773 Q96.7326 610.578 100.621 605.717 Q104.51 600.833 111.061 600.833 Q112.82 600.833 114.603 601.18 Q116.408 601.527 118.353 602.222 Z" fill="#000000" fill-rule="nonzero" fill-opacity="1" /><path clip-path="url(#clip400)" d="M63.5152 303.576 Q59.9041 303.576 58.0754 307.141 Q56.2699 310.683 56.2699 317.813 Q56.2699 324.919 58.0754 328.484 Q59.9041 332.025 63.5152 332.025 Q67.1494 332.025 68.955 328.484 Q70.7837 324.919 70.7837 317.813 Q70.7837 310.683 68.955 307.141 Q67.1494 303.576 63.5152 303.576 M63.5152 299.873 Q69.3254 299.873 72.3809 304.479 Q75.4596 309.063 75.4596 317.813 Q75.4596 326.539 72.3809 331.146 Q69.3254 335.729 63.5152 335.729 Q57.7051 335.729 54.6264 331.146 Q51.5708 326.539 51.5708 317.813 Q51.5708 309.063 54.6264 304.479 Q57.7051 299.873 63.5152 299.873 Z" fill="#000000" fill-rule="nonzero" fill-opacity="1" /><path clip-path="url(#clip400)" d="M83.6771 329.178 L88.5614 329.178 L88.5614 335.058 L83.6771 335.058 L83.6771 329.178 Z" fill="#000000" fill-rule="nonzero" fill-opacity="1" /><path clip-path="url(#clip400)" d="M108.746 318.646 Q105.413 318.646 103.492 320.428 Q101.594 322.211 101.594 325.336 Q101.594 328.461 103.492 330.243 Q105.413 332.025 108.746 332.025 Q112.08 332.025 114.001 330.243 Q115.922 328.437 115.922 325.336 Q115.922 322.211 114.001 320.428 Q112.103 318.646 108.746 318.646 M104.071 316.655 Q101.061 315.914 99.3715 313.854 Q97.7048 311.794 97.7048 308.831 Q97.7048 304.688 100.645 302.28 Q103.608 299.873 108.746 299.873 Q113.908 299.873 116.848 302.28 Q119.788 304.688 119.788 308.831 Q119.788 311.794 118.098 313.854 Q116.432 315.914 113.445 316.655 Q116.825 317.442 118.7 319.734 Q120.598 322.025 120.598 325.336 Q120.598 330.359 117.52 333.044 Q114.464 335.729 108.746 335.729 Q103.029 335.729 99.9502 333.044 Q96.8947 330.359 96.8947 325.336 Q96.8947 322.025 98.7928 319.734 Q100.691 317.442 104.071 316.655 M102.358 309.271 Q102.358 311.956 104.024 313.461 Q105.714 314.965 108.746 314.965 Q111.756 314.965 113.445 313.461 Q115.158 311.956 115.158 309.271 Q115.158 306.586 113.445 305.081 Q111.756 303.576 108.746 303.576 Q105.714 303.576 104.024 305.081 Q102.358 306.586 102.358 309.271 Z" fill="#000000" fill-rule="nonzero" fill-opacity="1" /><polyline clip-path="url(#clip402)" style="stroke:#ff0000; stroke-linecap:round; stroke-linejoin:round; stroke-width:8; stroke-opacity:1; fill:none" stroke-dasharray="32, 20" points="218.754,1358.62 448.959,1133.98 679.164,241.984 909.369,1303.23 1139.57,1445.72 1369.78,1244.27 1599.98,687.806 1830.19,121.137 2060.4,87.9763 2290.6,904.391 "/>
<path clip-path="url(#clip400)" d="M2007.5 1438.47 L2279.55 1438.47 L2279.55 1334.79 L2007.5 1334.79  Z" fill="#ffffff" fill-rule="evenodd" fill-opacity="1"/>
<polyline clip-path="url(#clip400)" style="stroke:#000000; stroke-linecap:round; stroke-linejoin:round; stroke-width:4; stroke-opacity:1; fill:none" points="2007.5,1438.47 2279.55,1438.47 2279.55,1334.79 2007.5,1334.79 2007.5,1438.47 "/>
<polyline clip-path="url(#clip400)" style="stroke:#ff0000; stroke-linecap:round; stroke-linejoin:round; stroke-width:8; stroke-opacity:1; fill:none" stroke-dasharray="32, 20" points="2031.91,1386.63 2178.32,1386.63 "/>
<path clip-path="url(#clip400)" d="M2216.56 1406.32 Q2214.76 1410.95 2213.04 1412.36 Q2211.33 1413.78 2208.46 1413.78 L2205.06 1413.78 L2205.06 1410.21 L2207.56 1410.21 Q2209.32 1410.21 2210.29 1409.38 Q2211.26 1408.54 2212.44 1405.44 L2213.2 1403.5 L2202.72 1377.99 L2207.23 1377.99 L2215.33 1398.27 L2223.44 1377.99 L2227.95 1377.99 L2216.56 1406.32 Z" fill="#000000" fill-rule="nonzero" fill-opacity="1" /><path clip-path="url(#clip400)" d="M2235.24 1399.98 L2242.88 1399.98 L2242.88 1373.61 L2234.57 1375.28 L2234.57 1371.02 L2242.83 1369.35 L2247.51 1369.35 L2247.51 1399.98 L2255.15 1399.98 L2255.15 1403.91 L2235.24 1403.91 L2235.24 1399.98 Z" fill="#000000" fill-rule="nonzero" fill-opacity="1" /></svg>