<?xml version="1.0" encoding="utf-8"?>
<svg xmlns="http://www.w3.org/2000/svg" xmlns:xlink="http://www.w3.org/1999/xlink" width="600" height="400" viewBox="0 0 2400 1600">
<defs>
  <clipPath id="clip220">
    <rect x="0" y="0" width="2400" height="1600"/>
  </clipPath>
</defs>
<path clip-path="url(#clip220)" d="M0 1600 L2400 1600 L2400 8.88178e-14 L0 8.88178e-14  Z" fill="#ffffff" fill-rule="evenodd" fill-opacity="1"/>
<defs>
  <clipPath id="clip221">
    <rect x="480" y="0" width="1681" height="1600"/>
  </clipPath>
</defs>
<path clip-path="url(#clip220)" d="M219.866 1423.18 L2352.76 1423.18 L2352.76 123.472 L219.866 123.472  Z" fill="#ffffff" fill-rule="evenodd" fill-opacity="1"/>
<defs>
  <clipPath id="clip222">
    <rect x="219" y="123" width="2134" height="1301"/>
  </clipPath>
</defs>
<polyline clip-path="url(#clip222)" style="stroke:#000000; stroke-linecap:round; stroke-linejoin:round; stroke-width:2; stroke-opacity:0.1; fill:none" points="220.959,1423.18 220.959,123.472 "/>
<polyline clip-path="url(#clip222)" style="stroke:#000000; stroke-linecap:round; stroke-linejoin:round; stroke-width:2; stroke-opacity:0.1; fill:none" points="705.21,1423.18 705.21,123.472 "/>
<polyline clip-path="url(#clip222)" style="stroke:#000000; stroke-linecap:round; stroke-linejoin:round; stroke-width:2; stroke-opacity:0.1; fill:none" points="1189.46,1423.18 1189.46,123.472 "/>
<polyline clip-path="url(#clip222)" style="stroke:#000000; stroke-linecap:round; stroke-linejoin:round; stroke-width:2; stroke-opacity:0.1; fill:none" points="1673.71,1423.18 1673.71,123.472 "/>
<polyline clip-path="url(#clip222)" style="stroke:#000000; stroke-linecap:round; stroke-linejoin:round; stroke-width:2; stroke-opacity:0.1; fill:none" points="2157.96,1423.18 2157.96,123.472 "/>
<polyline clip-path="url(#clip220)" style="stroke:#000000; stroke-linecap:round; stroke-linejoin:round; stroke-width:4; stroke-opacity:1; fill:none" points="219.866,1423.18 2352.76,1423.18 "/>
<polyline clip-path="url(#clip220)" style="stroke:#000000; stroke-linecap:round; stroke-linejoin:round; stroke-width:4; stroke-opacity:1; fill:none" points="220.959,1423.18 220.959,1404.28 "/>
<polyline clip-path="url(#clip220)" style="stroke:#000000; stroke-linecap:round; stroke-linejoin:round; stroke-width:4; stroke-opacity:1; fill:none" points="705.21,1423.18 705.21,1404.28 "/>
<polyline clip-path="url(#clip220)" style="stroke:#000000; stroke-linecap:round; stroke-linejoin:round; stroke-width:4; stroke-opacity:1; fill:none" points="1189.46,1423.18 1189.46,1404.28 "/>
<polyline clip-path="url(#clip220)" style="stroke:#000000; stroke-linecap:round; stroke-linejoin:round; stroke-width:4; stroke-opacity:1; fill:none" points="1673.71,1423.18 1673.71,1404.28 "/>
<polyline clip-path="url(#clip220)" style="stroke:#000000; stroke-linecap:round; stroke-linejoin:round; stroke-width:4; stroke-opacity:1; fill:none" points="2157.96,1423.18 2157.96,1404.28 "/>
<path clip-path="url(#clip220)" d="M198.343 1454.1 Q194.732 1454.1 192.903 1457.66 Q191.098 1461.2 191.098 1468.33 Q191.098 1475.44 192.903 1479.01 Q194.732 1482.55 198.343 1482.55 Q201.977 1482.55 203.783 1479.01 Q205.612 1475.44 205.612 1468.33 Q205.612 1461.2 203.783 1457.66 Q201.977 1454.1 198.343 1454.1 M198.343 1450.39 Q204.153 1450.39 207.209 1455 Q210.287 1459.58 210.287 1468.33 Q210.287 1477.06 207.209 1481.67 Q204.153 1486.25 198.343 1486.25 Q192.533 1486.25 189.454 1481.67 Q186.399 1477.06 186.399 1468.33 Q186.399 1459.58 189.454 1455 Q192.533 1450.39 198.343 1450.39 Z" fill="#000000" fill-rule="nonzero" fill-opacity="1" /><path clip-path="url(#clip220)" d="M218.505 1479.7 L223.389 1479.7 L223.389 1485.58 L218.505 1485.58 L218.505 1479.7 Z" fill="#000000" fill-rule="nonzero" fill-opacity="1" /><path clip-path="url(#clip220)" d="M243.574 1454.1 Q239.963 1454.1 238.135 1457.66 Q236.329 1461.2 236.329 1468.33 Q236.329 1475.44 238.135 1479.01 Q239.963 1482.55 243.574 1482.55 Q247.209 1482.55 249.014 1479.01 Q250.843 1475.44 250.843 1468.33 Q250.843 1461.2 249.014 1457.66 Q247.209 1454.1 243.574 1454.1 M243.574 1450.39 Q249.385 1450.39 252.44 1455 Q255.519 1459.58 255.519 1468.33 Q255.519 1477.06 252.44 1481.67 Q249.385 1486.25 243.574 1486.25 Q237.764 1486.25 234.686 1481.67 Q231.63 1477.06 231.63 1468.33 Q231.63 1459.58 234.686 1455 Q237.764 1450.39 243.574 1450.39 Z" fill="#000000" fill-rule="nonzero" fill-opacity="1" /><path clip-path="url(#clip220)" d="M676.946 1481.64 L693.265 1481.64 L693.265 1485.58 L671.321 1485.58 L671.321 1481.64 Q673.983 1478.89 678.566 1474.26 Q683.173 1469.61 684.353 1468.27 Q686.599 1465.74 687.478 1464.01 Q688.381 1462.25 688.381 1460.56 Q688.381 1457.8 686.437 1456.07 Q684.515 1454.33 681.414 1454.33 Q679.215 1454.33 676.761 1455.09 Q674.33 1455.86 671.553 1457.41 L671.553 1452.69 Q674.377 1451.55 676.83 1450.97 Q679.284 1450.39 681.321 1450.39 Q686.691 1450.39 689.886 1453.08 Q693.08 1455.77 693.08 1460.26 Q693.08 1462.39 692.27 1464.31 Q691.483 1466.2 689.377 1468.8 Q688.798 1469.47 685.696 1472.69 Q682.594 1475.88 676.946 1481.64 Z" fill="#000000" fill-rule="nonzero" fill-opacity="1" /><path clip-path="url(#clip220)" d="M703.08 1479.7 L707.964 1479.7 L707.964 1485.58 L703.08 1485.58 L703.08 1479.7 Z" fill="#000000" fill-rule="nonzero" fill-opacity="1" /><path clip-path="url(#clip220)" d="M718.196 1451.02 L736.552 1451.02 L736.552 1454.96 L722.478 1454.96 L722.478 1463.43 Q723.497 1463.08 724.515 1462.92 Q725.534 1462.73 726.552 1462.73 Q732.339 1462.73 735.719 1465.9 Q739.099 1469.08 739.099 1474.49 Q739.099 1480.07 735.626 1483.17 Q732.154 1486.25 725.835 1486.25 Q723.659 1486.25 721.39 1485.88 Q719.145 1485.51 716.738 1484.77 L716.738 1480.07 Q718.821 1481.2 721.043 1481.76 Q723.265 1482.32 725.742 1482.32 Q729.747 1482.32 732.085 1480.21 Q734.423 1478.1 734.423 1474.49 Q734.423 1470.88 732.085 1468.77 Q729.747 1466.67 725.742 1466.67 Q723.867 1466.67 721.992 1467.08 Q720.14 1467.5 718.196 1468.38 L718.196 1451.02 Z" fill="#000000" fill-rule="nonzero" fill-opacity="1" /><path clip-path="url(#clip220)" d="M1156.63 1451.02 L1174.98 1451.02 L1174.98 1454.96 L1160.91 1454.96 L1160.91 1463.43 Q1161.93 1463.08 1162.94 1462.92 Q1163.96 1462.73 1164.98 1462.73 Q1170.77 1462.73 1174.15 1465.9 Q1177.53 1469.08 1177.53 1474.49 Q1177.53 1480.07 1174.06 1483.17 Q1170.58 1486.25 1164.26 1486.25 Q1162.09 1486.25 1159.82 1485.88 Q1157.57 1485.51 1155.17 1484.77 L1155.17 1480.07 Q1157.25 1481.2 1159.47 1481.76 Q1161.69 1482.32 1164.17 1482.32 Q1168.18 1482.32 1170.51 1480.21 Q1172.85 1478.1 1172.85 1474.49 Q1172.85 1470.88 1170.51 1468.77 Q1168.18 1466.67 1164.17 1466.67 Q1162.3 1466.67 1160.42 1467.08 Q1158.57 1467.5 1156.63 1468.38 L1156.63 1451.02 Z" fill="#000000" fill-rule="nonzero" fill-opacity="1" /><path clip-path="url(#clip220)" d="M1186.74 1479.7 L1191.63 1479.7 L1191.63 1485.58 L1186.74 1485.58 L1186.74 1479.7 Z" fill="#000000" fill-rule="nonzero" fill-opacity="1" /><path clip-path="url(#clip220)" d="M1211.81 1454.1 Q1208.2 1454.1 1206.37 1457.66 Q1204.56 1461.2 1204.56 1468.33 Q1204.56 1475.44 1206.37 1479.01 Q1208.2 1482.55 1211.81 1482.55 Q1215.44 1482.55 1217.25 1479.01 Q1219.08 1475.44 1219.08 1468.33 Q1219.08 1461.2 1217.25 1457.66 Q1215.44 1454.1 1211.81 1454.1 M1211.81 1450.39 Q1217.62 1450.39 1220.68 1455 Q1223.75 1459.58 1223.75 1468.33 Q1223.75 1477.06 1220.68 1481.67 Q1217.62 1486.25 1211.81 1486.25 Q1206 1486.25 1202.92 1481.67 Q1199.87 1477.06 1199.87 1468.33 Q1199.87 1459.58 1202.92 1455 Q1206 1450.39 1211.81 1450.39 Z" fill="#000000" fill-rule="nonzero" fill-opacity="1" /><path clip-path="url(#clip220)" d="M1640.03 1451.02 L1662.25 1451.02 L1662.25 1453.01 L1649.71 1485.58 L1644.82 1485.58 L1656.63 1454.96 L1640.03 1454.96 L1640.03 1451.02 Z" fill="#000000" fill-rule="nonzero" fill-opacity="1" /><path clip-path="url(#clip220)" d="M1671.37 1479.7 L1676.26 1479.7 L1676.26 1485.58 L1671.37 1485.58 L1671.37 1479.7 Z" fill="#000000" fill-rule="nonzero" fill-opacity="1" /><path clip-path="url(#clip220)" d="M1686.49 1451.02 L1704.85 1451.02 L1704.85 1454.96 L1690.77 1454.96 L1690.77 1463.43 Q1691.79 1463.08 1692.81 1462.92 Q1693.83 1462.73 1694.85 1462.73 Q1700.63 1462.73 1704.01 1465.9 Q1707.39 1469.08 1707.39 1474.49 Q1707.39 1480.07 1703.92 1483.17 Q1700.45 1486.25 1694.13 1486.25 Q1691.95 1486.25 1689.68 1485.88 Q1687.44 1485.51 1685.03 1484.77 L1685.03 1480.07 Q1687.11 1481.2 1689.34 1481.76 Q1691.56 1482.32 1694.04 1482.32 Q1698.04 1482.32 1700.38 1480.21 Q1702.72 1478.1 1702.72 1474.49 Q1702.72 1470.88 1700.38 1468.77 Q1698.04 1466.67 1694.04 1466.67 Q1692.16 1466.67 1690.29 1467.08 Q1688.43 1467.5 1686.49 1468.38 L1686.49 1451.02 Z" fill="#000000" fill-rule="nonzero" fill-opacity="1" /><path clip-path="url(#clip220)" d="M2110.04 1481.64 L2117.67 1481.64 L2117.67 1455.28 L2109.36 1456.95 L2109.36 1452.69 L2117.63 1451.02 L2122.3 1451.02 L2122.3 1481.64 L2129.94 1481.64 L2129.94 1485.58 L2110.04 1485.58 L2110.04 1481.64 Z" fill="#000000" fill-rule="nonzero" fill-opacity="1" /><path clip-path="url(#clip220)" d="M2149.39 1454.1 Q2145.78 1454.1 2143.95 1457.66 Q2142.14 1461.2 2142.14 1468.33 Q2142.14 1475.44 2143.95 1479.01 Q2145.78 1482.55 2149.39 1482.55 Q2153.02 1482.55 2154.83 1479.01 Q2156.66 1475.44 2156.66 1468.33 Q2156.66 1461.2 2154.83 1457.66 Q2153.02 1454.1 2149.39 1454.1 M2149.39 1450.39 Q2155.2 1450.39 2158.25 1455 Q2161.33 1459.58 2161.33 1468.33 Q2161.33 1477.06 2158.25 1481.67 Q2155.2 1486.25 2149.39 1486.25 Q2143.58 1486.25 2140.5 1481.67 Q2137.44 1477.06 2137.44 1468.33 Q2137.44 1459.58 2140.5 1455 Q2143.58 1450.39 2149.39 1450.39 Z" fill="#000000" fill-rule="nonzero" fill-opacity="1" /><path clip-path="url(#clip220)" d="M2169.55 1479.7 L2174.43 1479.7 L2174.43 1485.58 L2169.55 1485.58 L2169.55 1479.7 Z" fill="#000000" fill-rule="nonzero" fill-opacity="1" /><path clip-path="url(#clip220)" d="M2194.62 1454.1 Q2191.01 1454.1 2189.18 1457.66 Q2187.37 1461.2 2187.37 1468.33 Q2187.37 1475.44 2189.18 1479.01 Q2191.01 1482.55 2194.62 1482.55 Q2198.25 1482.55 2200.06 1479.01 Q2201.89 1475.44 2201.89 1468.33 Q2201.89 1461.2 2200.06 1457.66 Q2198.25 1454.1 2194.62 1454.1 M2194.62 1450.39 Q2200.43 1450.39 2203.48 1455 Q2206.56 1459.58 2206.56 1468.33 Q2206.56 1477.06 2203.48 1481.67 Q2200.43 1486.25 2194.62 1486.25 Q2188.81 1486.25 2185.73 1481.67 Q2182.67 1477.06 2182.67 1468.33 Q2182.67 1459.58 2185.73 1455 Q2188.81 1450.39 2194.62 1450.39 Z" fill="#000000" fill-rule="nonzero" fill-opacity="1" /><path clip-path="url(#clip220)" d="M1193.28 1520.52 L1200.18 1520.52 L1211.99 1538.19 L1223.86 1520.52 L1230.77 1520.52 L1215.49 1543.34 L1231.79 1568.04 L1224.88 1568.04 L1211.51 1547.83 L1198.05 1568.04 L1191.11 1568.04 L1208.08 1542.68 L1193.28 1520.52 Z" fill="#000000" fill-rule="nonzero" fill-opacity="1" /><path clip-path="url(#clip220)" d="M1233.76 1547.58 L1250.92 1547.58 L1250.92 1552.8 L1233.76 1552.8 L1233.76 1547.58 Z" fill="#000000" fill-rule="nonzero" fill-opacity="1" /><path clip-path="url(#clip220)" d="M1276.44 1550.12 Q1269.35 1550.12 1266.61 1551.75 Q1263.87 1553.37 1263.87 1557.29 Q1263.87 1560.4 1265.91 1562.25 Q1267.98 1564.07 1271.51 1564.07 Q1276.38 1564.07 1279.31 1560.63 Q1282.27 1557.16 1282.27 1551.43 L1282.27 1550.12 L1276.44 1550.12 M1288.13 1547.71 L1288.13 1568.04 L1282.27 1568.04 L1282.27 1562.63 Q1280.26 1565.88 1277.27 1567.44 Q1274.28 1568.97 1269.95 1568.97 Q1264.48 1568.97 1261.23 1565.91 Q1258.02 1562.82 1258.02 1557.67 Q1258.02 1551.65 1262.03 1548.6 Q1266.07 1545.54 1274.06 1545.54 L1282.27 1545.54 L1282.27 1544.97 Q1282.27 1540.93 1279.6 1538.73 Q1276.95 1536.5 1272.15 1536.5 Q1269.09 1536.5 1266.2 1537.23 Q1263.3 1537.97 1260.63 1539.43 L1260.63 1534.02 Q1263.84 1532.78 1266.86 1532.17 Q1269.89 1531.54 1272.75 1531.54 Q1280.49 1531.54 1284.31 1535.55 Q1288.13 1539.56 1288.13 1547.71 Z" fill="#000000" fill-rule="nonzero" fill-opacity="1" /><path clip-path="url(#clip220)" d="M1329.82 1532.4 L1316.93 1549.74 L1330.49 1568.04 L1323.58 1568.04 L1313.21 1554.04 L1302.83 1568.04 L1295.92 1568.04 L1309.77 1549.39 L1297.1 1532.4 L1304.01 1532.4 L1313.46 1545.1 L1322.91 1532.4 L1329.82 1532.4 Z" fill="#000000" fill-rule="nonzero" fill-opacity="1" /><path clip-path="url(#clip220)" d="M1338.76 1532.4 L1344.62 1532.4 L1344.62 1568.04 L1338.76 1568.04 L1338.76 1532.4 M1338.76 1518.52 L1344.62 1518.52 L1344.62 1525.93 L1338.76 1525.93 L1338.76 1518.52 Z" fill="#000000" fill-rule="nonzero" fill-opacity="1" /><path clip-path="url(#clip220)" d="M1379.6 1533.45 L1379.6 1538.98 Q1377.12 1537.71 1374.44 1537.07 Q1371.77 1536.44 1368.91 1536.44 Q1364.55 1536.44 1362.35 1537.77 Q1360.19 1539.11 1360.19 1541.79 Q1360.19 1543.82 1361.74 1545 Q1363.3 1546.15 1368.01 1547.2 L1370.02 1547.64 Q1376.26 1548.98 1378.87 1551.43 Q1381.51 1553.85 1381.51 1558.21 Q1381.51 1563.17 1377.56 1566.07 Q1373.65 1568.97 1366.77 1568.97 Q1363.91 1568.97 1360.79 1568.39 Q1357.7 1567.85 1354.27 1566.74 L1354.27 1560.69 Q1357.51 1562.38 1360.66 1563.24 Q1363.81 1564.07 1366.9 1564.07 Q1371.04 1564.07 1373.27 1562.66 Q1375.49 1561.23 1375.49 1558.65 Q1375.49 1556.27 1373.87 1554.99 Q1372.28 1553.72 1366.84 1552.54 L1364.8 1552.07 Q1359.36 1550.92 1356.94 1548.56 Q1354.52 1546.18 1354.52 1542.04 Q1354.52 1537.01 1358.08 1534.27 Q1361.65 1531.54 1368.21 1531.54 Q1371.45 1531.54 1374.32 1532.01 Q1377.18 1532.49 1379.6 1533.45 Z" fill="#000000" fill-rule="nonzero" fill-opacity="1" /><polyline clip-path="url(#clip222)" style="stroke:#000000; stroke-linecap:round; stroke-linejoin:round; stroke-width:2; stroke-opacity:0.1; fill:none" points="219.866,1423.18 2352.76,1423.18 "/>
<polyline clip-path="url(#clip222)" style="stroke:#000000; stroke-linecap:round; stroke-linejoin:round; stroke-width:2; stroke-opacity:0.1; fill:none" points="219.866,1150.34 2352.76,1150.34 "/>
<polyline clip-path="url(#clip222)" style="stroke:#000000; stroke-linecap:round; stroke-linejoin:round; stroke-width:2; stroke-opacity:0.1; fill:none" points="219.866,877.492 2352.76,877.492 "/>
<polyline clip-path="url(#clip222)" style="stroke:#000000; stroke-linecap:round; stroke-linejoin:round; stroke-width:2; stroke-opacity:0.1; fill:none" points="219.866,604.649 2352.76,604.649 "/>
<polyline clip-path="url(#clip222)" style="stroke:#000000; stroke-linecap:round; stroke-linejoin:round; stroke-width:2; stroke-opacity:0.1; fill:none" points="219.866,331.805 2352.76,331.805 "/>
<polyline clip-path="url(#clip220)" style="stroke:#000000; stroke-linecap:round; stroke-linejoin:round; stroke-width:4; stroke-opacity:1; fill:none" points="219.866,1423.18 219.866,123.472 "/>
<polyline clip-path="url(#clip220)" style="stroke:#000000; stroke-linecap:round; stroke-linejoin:round; stroke-width:4; stroke-opacity:1; fill:none" points="219.866,1423.18 238.764,1423.18 "/>
<polyline clip-path="url(#clip220)" style="stroke:#000000; stroke-linecap:round; stroke-linejoin:round; stroke-width:4; stroke-opacity:1; fill:none" points="219.866,1150.34 238.764,1150.34 "/>
<polyline clip-path="url(#clip220)" style="stroke:#000000; stroke-linecap:round; stroke-linejoin:round; stroke-width:4; stroke-opacity:1; fill:none" points="219.866,877.492 238.764,877.492 "/>
<polyline clip-path="url(#clip220)" style="stroke:#000000; stroke-linecap:round; stroke-linejoin:round; stroke-width:4; stroke-opacity:1; fill:none" points="219.866,604.649 238.764,604.649 "/>
<polyline clip-path="url(#clip220)" style="stroke:#000000; stroke-linecap:round; stroke-linejoin:round; stroke-width:4; stroke-opacity:1; fill:none" points="219.866,331.805 238.764,331.805 "/>
<path clip-path="url(#clip220)" d="M126.691 1408.98 Q123.08 1408.98 121.251 1412.54 Q119.445 1416.08 119.445 1423.21 Q119.445 1430.32 121.251 1433.89 Q123.08 1437.43 126.691 1437.43 Q130.325 1437.43 132.13 1433.89 Q133.959 1430.32 133.959 1423.21 Q133.959 1416.08 132.13 1412.54 Q130.325 1408.98 126.691 1408.98 M126.691 1405.27 Q132.501 1405.27 135.556 1409.88 Q138.635 1414.46 138.635 1423.21 Q138.635 1431.94 135.556 1436.55 Q132.501 1441.13 126.691 1441.13 Q120.88 1441.13 117.802 1436.55 Q114.746 1431.94 114.746 1423.21 Q114.746 1414.46 117.802 1409.88 Q120.88 1405.27 126.691 1405.27 Z" fill="#000000" fill-rule="nonzero" fill-opacity="1" /><path clip-path="url(#clip220)" d="M146.853 1434.58 L151.737 1434.58 L151.737 1440.46 L146.853 1440.46 L146.853 1434.58 Z" fill="#000000" fill-rule="nonzero" fill-opacity="1" /><path clip-path="url(#clip220)" d="M171.922 1408.98 Q168.311 1408.98 166.482 1412.54 Q164.677 1416.08 164.677 1423.21 Q164.677 1430.32 166.482 1433.89 Q168.311 1437.43 171.922 1437.43 Q175.556 1437.43 177.362 1433.89 Q179.19 1430.32 179.19 1423.21 Q179.19 1416.08 177.362 1412.54 Q175.556 1408.98 171.922 1408.98 M171.922 1405.27 Q177.732 1405.27 180.788 1409.88 Q183.866 1414.46 183.866 1423.21 Q183.866 1431.94 180.788 1436.55 Q177.732 1441.13 171.922 1441.13 Q166.112 1441.13 163.033 1436.55 Q159.978 1431.94 159.978 1423.21 Q159.978 1414.46 163.033 1409.88 Q166.112 1405.27 171.922 1405.27 Z" fill="#000000" fill-rule="nonzero" fill-opacity="1" /><path clip-path="url(#clip220)" d="M128.288 1136.13 Q124.677 1136.13 122.848 1139.7 Q121.043 1143.24 121.043 1150.37 Q121.043 1157.48 122.848 1161.04 Q124.677 1164.58 128.288 1164.58 Q131.922 1164.58 133.728 1161.04 Q135.556 1157.48 135.556 1150.37 Q135.556 1143.24 133.728 1139.7 Q131.922 1136.13 128.288 1136.13 M128.288 1132.43 Q134.098 1132.43 137.154 1137.04 Q140.232 1141.62 140.232 1150.37 Q140.232 1159.1 137.154 1163.7 Q134.098 1168.29 128.288 1168.29 Q122.478 1168.29 119.399 1163.7 Q116.343 1159.1 116.343 1150.37 Q116.343 1141.62 119.399 1137.04 Q122.478 1132.43 128.288 1132.43 Z" fill="#000000" fill-rule="nonzero" fill-opacity="1" /><path clip-path="url(#clip220)" d="M148.45 1161.74 L153.334 1161.74 L153.334 1167.62 L148.45 1167.62 L148.45 1161.74 Z" fill="#000000" fill-rule="nonzero" fill-opacity="1" /><path clip-path="url(#clip220)" d="M167.547 1163.68 L183.866 1163.68 L183.866 1167.62 L161.922 1167.62 L161.922 1163.68 Q164.584 1160.93 169.167 1156.3 Q173.774 1151.64 174.954 1150.3 Q177.2 1147.78 178.079 1146.04 Q178.982 1144.28 178.982 1142.59 Q178.982 1139.84 177.038 1138.1 Q175.116 1136.37 172.014 1136.37 Q169.815 1136.37 167.362 1137.13 Q164.931 1137.89 162.153 1139.45 L162.153 1134.72 Q164.977 1133.59 167.431 1133.01 Q169.885 1132.43 171.922 1132.43 Q177.292 1132.43 180.487 1135.12 Q183.681 1137.8 183.681 1142.29 Q183.681 1144.42 182.871 1146.34 Q182.084 1148.24 179.977 1150.83 Q179.399 1151.51 176.297 1154.72 Q173.195 1157.92 167.547 1163.68 Z" fill="#000000" fill-rule="nonzero" fill-opacity="1" /><path clip-path="url(#clip220)" d="M126.205 863.291 Q122.593 863.291 120.765 866.856 Q118.959 870.398 118.959 877.527 Q118.959 884.634 120.765 888.198 Q122.593 891.74 126.205 891.74 Q129.839 891.74 131.644 888.198 Q133.473 884.634 133.473 877.527 Q133.473 870.398 131.644 866.856 Q129.839 863.291 126.205 863.291 M126.205 859.587 Q132.015 859.587 135.07 864.194 Q138.149 868.777 138.149 877.527 Q138.149 886.254 135.07 890.86 Q132.015 895.444 126.205 895.444 Q120.394 895.444 117.316 890.86 Q114.26 886.254 114.26 877.527 Q114.26 868.777 117.316 864.194 Q120.394 859.587 126.205 859.587 Z" fill="#000000" fill-rule="nonzero" fill-opacity="1" /><path clip-path="url(#clip220)" d="M146.366 888.893 L151.251 888.893 L151.251 894.772 L146.366 894.772 L146.366 888.893 Z" fill="#000000" fill-rule="nonzero" fill-opacity="1" /><path clip-path="url(#clip220)" d="M174.283 864.287 L162.477 882.735 L174.283 882.735 L174.283 864.287 M173.056 860.212 L178.936 860.212 L178.936 882.735 L183.866 882.735 L183.866 886.624 L178.936 886.624 L178.936 894.772 L174.283 894.772 L174.283 886.624 L158.681 886.624 L158.681 882.11 L173.056 860.212 Z" fill="#000000" fill-rule="nonzero" fill-opacity="1" /><path clip-path="url(#clip220)" d="M126.529 590.447 Q122.918 590.447 121.089 594.012 Q119.283 597.554 119.283 604.684 Q119.283 611.79 121.089 615.355 Q122.918 618.896 126.529 618.896 Q130.163 618.896 131.968 615.355 Q133.797 611.79 133.797 604.684 Q133.797 597.554 131.968 594.012 Q130.163 590.447 126.529 590.447 M126.529 586.744 Q132.339 586.744 135.394 591.35 Q138.473 595.934 138.473 604.684 Q138.473 613.41 135.394 618.017 Q132.339 622.6 126.529 622.6 Q120.718 622.6 117.64 618.017 Q114.584 613.41 114.584 604.684 Q114.584 595.934 117.64 591.35 Q120.718 586.744 126.529 586.744 Z" fill="#000000" fill-rule="nonzero" fill-opacity="1" /><path clip-path="url(#clip220)" d="M146.691 616.049 L151.575 616.049 L151.575 621.929 L146.691 621.929 L146.691 616.049 Z" fill="#000000" fill-rule="nonzero" fill-opacity="1" /><path clip-path="url(#clip220)" d="M172.339 602.785 Q169.19 602.785 167.339 604.938 Q165.51 607.091 165.51 610.841 Q165.51 614.568 167.339 616.744 Q169.19 618.896 172.339 618.896 Q175.487 618.896 177.315 616.744 Q179.167 614.568 179.167 610.841 Q179.167 607.091 177.315 604.938 Q175.487 602.785 172.339 602.785 M181.621 588.133 L181.621 592.392 Q179.862 591.559 178.056 591.119 Q176.274 590.679 174.514 590.679 Q169.885 590.679 167.431 593.804 Q165.001 596.929 164.653 603.248 Q166.019 601.234 168.079 600.17 Q170.139 599.082 172.616 599.082 Q177.825 599.082 180.834 602.253 Q183.866 605.401 183.866 610.841 Q183.866 616.165 180.718 619.382 Q177.57 622.6 172.339 622.6 Q166.343 622.6 163.172 618.017 Q160.001 613.41 160.001 604.684 Q160.001 596.489 163.89 591.628 Q167.778 586.744 174.329 586.744 Q176.089 586.744 177.871 587.091 Q179.676 587.438 181.621 588.133 Z" fill="#000000" fill-rule="nonzero" fill-opacity="1" /><path clip-path="url(#clip220)" d="M126.783 317.604 Q123.172 317.604 121.343 321.169 Q119.538 324.71 119.538 331.84 Q119.538 338.946 121.343 342.511 Q123.172 346.053 126.783 346.053 Q130.417 346.053 132.223 342.511 Q134.052 338.946 134.052 331.84 Q134.052 324.71 132.223 321.169 Q130.417 317.604 126.783 317.604 M126.783 313.9 Q132.593 313.9 135.649 318.507 Q138.728 323.09 138.728 331.84 Q138.728 340.567 135.649 345.173 Q132.593 349.756 126.783 349.756 Q120.973 349.756 117.894 345.173 Q114.839 340.567 114.839 331.84 Q114.839 323.09 117.894 318.507 Q120.973 313.9 126.783 313.9 Z" fill="#000000" fill-rule="nonzero" fill-opacity="1" /><path clip-path="url(#clip220)" d="M146.945 343.205 L151.829 343.205 L151.829 349.085 L146.945 349.085 L146.945 343.205 Z" fill="#000000" fill-rule="nonzero" fill-opacity="1" /><path clip-path="url(#clip220)" d="M172.014 332.673 Q168.681 332.673 166.76 334.456 Q164.862 336.238 164.862 339.363 Q164.862 342.488 166.76 344.27 Q168.681 346.053 172.014 346.053 Q175.348 346.053 177.269 344.27 Q179.19 342.465 179.19 339.363 Q179.19 336.238 177.269 334.456 Q175.371 332.673 172.014 332.673 M167.339 330.682 Q164.329 329.942 162.64 327.882 Q160.973 325.821 160.973 322.858 Q160.973 318.715 163.913 316.307 Q166.876 313.9 172.014 313.9 Q177.176 313.9 180.116 316.307 Q183.056 318.715 183.056 322.858 Q183.056 325.821 181.366 327.882 Q179.7 329.942 176.714 330.682 Q180.093 331.469 181.968 333.761 Q183.866 336.053 183.866 339.363 Q183.866 344.386 180.788 347.071 Q177.732 349.756 172.014 349.756 Q166.297 349.756 163.218 347.071 Q160.163 344.386 160.163 339.363 Q160.163 336.053 162.061 333.761 Q163.959 331.469 167.339 330.682 M165.626 323.298 Q165.626 325.983 167.292 327.488 Q168.982 328.993 172.014 328.993 Q175.024 328.993 176.714 327.488 Q178.426 325.983 178.426 323.298 Q178.426 320.613 176.714 319.108 Q175.024 317.604 172.014 317.604 Q168.982 317.604 167.292 319.108 Q165.626 320.613 165.626 323.298 Z" fill="#000000" fill-rule="nonzero" fill-opacity="1" /><path clip-path="url(#clip220)" d="M16.4842 864.897 L16.4842 857.99 L36.0269 844.813 L16.4842 831.731 L16.4842 824.825 L41.3741 841.63 L64.0042 841.63 L64.0042 848.091 L41.3741 848.091 L16.4842 864.897 Z" fill="#000000" fill-rule="nonzero" fill-opacity="1" /><path clip-path="url(#clip220)" d="M43.5384 829.503 L43.5384 812.348 L48.7583 812.348 L48.7583 829.503 L43.5384 829.503 Z" fill="#000000" fill-rule="nonzero" fill-opacity="1" /><path clip-path="url(#clip220)" d="M46.0847 786.821 Q46.0847 793.919 47.7079 796.656 Q49.3312 799.394 53.2461 799.394 Q56.3653 799.394 58.2114 797.357 Q60.0256 795.288 60.0256 791.755 Q60.0256 786.885 56.5881 783.957 Q53.1188 780.997 47.3897 780.997 L46.0847 780.997 L46.0847 786.821 M43.6657 775.14 L64.0042 775.14 L64.0042 780.997 L58.5933 780.997 Q61.8398 783.002 63.3994 785.994 Q64.9272 788.986 64.9272 793.314 Q64.9272 798.789 61.8716 802.035 Q58.7843 805.25 53.6281 805.25 Q47.6125 805.25 44.5569 801.24 Q41.5014 797.197 41.5014 789.208 L41.5014 780.997 L40.9285 780.997 Q36.8862 780.997 34.6901 783.67 Q32.4621 786.312 32.4621 791.118 Q32.4621 794.174 33.1941 797.07 Q33.9262 799.966 35.3903 802.64 L29.9795 802.64 Q28.7381 799.425 28.1334 796.402 Q27.4968 793.378 27.4968 790.513 Q27.4968 782.779 31.5072 778.96 Q35.5176 775.14 43.6657 775.14 Z" fill="#000000" fill-rule="nonzero" fill-opacity="1" /><path clip-path="url(#clip220)" d="M28.3562 733.445 L45.7028 746.335 L64.0042 732.776 L64.0042 739.683 L49.9996 750.059 L64.0042 760.435 L64.0042 767.342 L45.3526 753.497 L28.3562 766.165 L28.3562 759.258 L41.0558 749.805 L28.3562 740.352 L28.3562 733.445 Z" fill="#000000" fill-rule="nonzero" fill-opacity="1" /><path clip-path="url(#clip220)" d="M28.3562 724.501 L28.3562 718.645 L64.0042 718.645 L64.0042 724.501 L28.3562 724.501 M14.479 724.501 L14.479 718.645 L21.895 718.645 L21.895 724.501 L14.479 724.501 Z" fill="#000000" fill-rule="nonzero" fill-opacity="1" /><path clip-path="url(#clip220)" d="M29.4065 683.665 L34.9447 683.665 Q33.6716 686.148 33.035 688.821 Q32.3984 691.495 32.3984 694.359 Q32.3984 698.72 33.7352 700.916 Q35.072 703.08 37.7456 703.08 Q39.7826 703.08 40.9603 701.521 Q42.1061 699.961 43.1565 695.251 L43.6021 693.245 Q44.9389 687.007 47.3897 684.397 Q49.8086 681.755 54.1691 681.755 Q59.1344 681.755 62.0308 685.702 Q64.9272 689.617 64.9272 696.492 Q64.9272 699.356 64.3543 702.476 Q63.8132 705.563 62.6992 709.001 L56.6518 709.001 Q58.3387 705.754 59.198 702.603 Q60.0256 699.452 60.0256 696.365 Q60.0256 692.227 58.6251 689.999 Q57.1929 687.771 54.6147 687.771 Q52.2276 687.771 50.9545 689.394 Q49.6813 690.986 48.5037 696.428 L48.0262 698.465 Q46.8804 703.908 44.5251 706.327 Q42.138 708.746 38.0002 708.746 Q32.9713 708.746 30.2341 705.181 Q27.4968 701.616 27.4968 695.06 Q27.4968 691.813 27.9743 688.949 Q28.4517 686.084 29.4065 683.665 Z" fill="#000000" fill-rule="nonzero" fill-opacity="1" /><path clip-path="url(#clip220)" d="M1137.26 43.6931 L1137.26 65.8515 L1150.38 65.8515 Q1156.99 65.8515 1160.15 63.1374 Q1163.35 60.3828 1163.35 54.752 Q1163.35 49.0808 1160.15 46.4072 Q1156.99 43.6931 1150.38 43.6931 L1137.26 43.6931 M1137.26 18.8205 L1137.26 37.0496 L1149.37 37.0496 Q1155.37 37.0496 1158.28 34.8216 Q1161.24 32.5531 1161.24 27.935 Q1161.24 23.3575 1158.28 21.089 Q1155.37 18.8205 1149.37 18.8205 L1137.26 18.8205 M1129.08 12.096 L1149.98 12.096 Q1159.34 12.096 1164.4 15.9849 Q1169.46 19.8737 1169.46 27.0438 Q1169.46 32.5936 1166.87 35.8748 Q1164.28 39.156 1159.25 39.9662 Q1165.29 41.2625 1168.61 45.3944 Q1171.97 49.4858 1171.97 55.6432 Q1171.97 63.745 1166.47 68.1605 Q1160.96 72.576 1150.79 72.576 L1129.08 72.576 L1129.08 12.096 Z" fill="#000000" fill-rule="nonzero" fill-opacity="1" /><path clip-path="url(#clip220)" d="M1206.29 49.7694 Q1197.25 49.7694 1193.77 51.8354 Q1190.28 53.9013 1190.28 58.8839 Q1190.28 62.8538 1192.88 65.2034 Q1195.51 67.5124 1200.01 67.5124 Q1206.2 67.5124 1209.93 63.1374 Q1213.7 58.7219 1213.7 51.4303 L1213.7 49.7694 L1206.29 49.7694 M1221.15 46.6907 L1221.15 72.576 L1213.7 72.576 L1213.7 65.6895 Q1211.15 69.8214 1207.34 71.8063 Q1203.53 73.7508 1198.02 73.7508 Q1191.05 73.7508 1186.92 69.8619 Q1182.83 65.9325 1182.83 59.3701 Q1182.83 51.7138 1187.93 47.825 Q1193.08 43.9361 1203.25 43.9361 L1213.7 43.9361 L1213.7 43.2069 Q1213.7 38.0623 1210.3 35.2672 Q1206.93 32.4315 1200.82 32.4315 Q1196.93 32.4315 1193.24 33.3632 Q1189.56 34.295 1186.15 36.1584 L1186.15 29.2718 Q1190.24 27.692 1194.09 26.9223 Q1197.94 26.1121 1201.59 26.1121 Q1211.43 26.1121 1216.29 31.2163 Q1221.15 36.3204 1221.15 46.6907 Z" fill="#000000" fill-rule="nonzero" fill-opacity="1" /><path clip-path="url(#clip220)" d="M1262.8 34.1734 Q1261.54 33.4443 1260.04 33.1202 Q1258.58 32.7556 1256.8 32.7556 Q1250.48 32.7556 1247.08 36.8875 Q1243.72 40.9789 1243.72 48.6757 L1243.72 72.576 L1236.22 72.576 L1236.22 27.2059 L1243.72 27.2059 L1243.72 34.2544 Q1246.07 30.1225 1249.83 28.1376 Q1253.6 26.1121 1258.99 26.1121 Q1259.76 26.1121 1260.69 26.2337 Q1261.62 26.3147 1262.76 26.5172 L1262.8 34.1734 Z" fill="#000000" fill-rule="nonzero" fill-opacity="1" /><path clip-path="url(#clip220)" d="M1305.49 18.8205 L1305.49 41.5461 L1315.78 41.5461 Q1321.49 41.5461 1324.61 38.5889 Q1327.73 35.6318 1327.73 30.163 Q1327.73 24.7348 1324.61 21.7777 Q1321.49 18.8205 1315.78 18.8205 L1305.49 18.8205 M1297.31 12.096 L1315.78 12.096 Q1325.95 12.096 1331.13 16.714 Q1336.36 21.2916 1336.36 30.163 Q1336.36 39.1155 1331.13 43.6931 Q1325.95 48.2706 1315.78 48.2706 L1305.49 48.2706 L1305.49 72.576 L1297.31 72.576 L1297.31 12.096 Z" fill="#000000" fill-rule="nonzero" fill-opacity="1" /><path clip-path="url(#clip220)" d="M1347.01 9.54393 L1354.47 9.54393 L1354.47 72.576 L1347.01 72.576 L1347.01 9.54393 Z" fill="#000000" fill-rule="nonzero" fill-opacity="1" /><path clip-path="url(#clip220)" d="M1387.64 32.4315 Q1381.65 32.4315 1378.17 37.1306 Q1374.68 41.7891 1374.68 49.9314 Q1374.68 58.0738 1378.12 62.7728 Q1381.61 67.4314 1387.64 67.4314 Q1393.6 67.4314 1397.08 62.7323 Q1400.57 58.0333 1400.57 49.9314 Q1400.57 41.8701 1397.08 37.1711 Q1393.6 32.4315 1387.64 32.4315 M1387.64 26.1121 Q1397.37 26.1121 1402.92 32.4315 Q1408.47 38.7509 1408.47 49.9314 Q1408.47 61.0714 1402.92 67.4314 Q1397.37 73.7508 1387.64 73.7508 Q1377.88 73.7508 1372.33 67.4314 Q1366.82 61.0714 1366.82 49.9314 Q1366.82 38.7509 1372.33 32.4315 Q1377.88 26.1121 1387.64 26.1121 Z" fill="#000000" fill-rule="nonzero" fill-opacity="1" /><path clip-path="url(#clip220)" d="M1428.19 14.324 L1428.19 27.2059 L1443.55 27.2059 L1443.55 32.9987 L1428.19 32.9987 L1428.19 57.6282 Q1428.19 63.1779 1429.69 64.7578 Q1431.23 66.3376 1435.89 66.3376 L1443.55 66.3376 L1443.55 72.576 L1435.89 72.576 Q1427.26 72.576 1423.98 69.3758 Q1420.7 66.1351 1420.7 57.6282 L1420.7 32.9987 L1415.23 32.9987 L1415.23 27.2059 L1420.7 27.2059 L1420.7 14.324 L1428.19 14.324 Z" fill="#000000" fill-rule="nonzero" fill-opacity="1" /><path clip-path="url(#clip222)" d="M337.179 1275.41 L337.179 1423.18 L492.139 1423.18 L492.139 1275.41 L337.179 1275.41 L337.179 1275.41  Z" fill="#009af9" fill-rule="evenodd" fill-opacity="1"/>
<polyline clip-path="url(#clip222)" style="stroke:#000000; stroke-linecap:round; stroke-linejoin:round; stroke-width:4; stroke-opacity:1; fill:none" points="337.179,1275.41 337.179,1423.18 492.139,1423.18 492.139,1275.41 337.179,1275.41 "/>
<path clip-path="url(#clip222)" d="M530.879 1071.75 L530.879 1423.18 L685.84 1423.18 L685.84 1071.75 L530.879 1071.75 L530.879 1071.75  Z" fill="#009af9" fill-rule="evenodd" fill-opacity="1"/>
<polyline clip-path="url(#clip222)" style="stroke:#000000; stroke-linecap:round; stroke-linejoin:round; stroke-width:4; stroke-opacity:1; fill:none" points="530.879,1071.75 530.879,1423.18 685.84,1423.18 685.84,1071.75 530.879,1071.75 "/>
<path clip-path="url(#clip222)" d="M724.58 263.092 L724.58 1423.18 L879.54 1423.18 L879.54 263.092 L724.58 263.092 L724.58 263.092  Z" fill="#009af9" fill-rule="evenodd" fill-opacity="1"/>
<polyline clip-path="url(#clip222)" style="stroke:#000000; stroke-linecap:round; stroke-linejoin:round; stroke-width:4; stroke-opacity:1; fill:none" points="724.58,263.092 724.58,1423.18 879.54,1423.18 879.54,263.092 724.58,263.092 "/>
<path clip-path="url(#clip222)" d="M918.28 1225.19 L918.28 1423.18 L1073.24 1423.18 L1073.24 1225.19 L918.28 1225.19 L918.28 1225.19  Z" fill="#009af9" fill-rule="evenodd" fill-opacity="1"/>
<polyline clip-path="url(#clip222)" style="stroke:#000000; stroke-linecap:round; stroke-linejoin:round; stroke-width:4; stroke-opacity:1; fill:none" points="918.28,1225.19 918.28,1423.18 1073.24,1423.18 1073.24,1225.19 918.28,1225.19 "/>
<path clip-path="url(#clip222)" d="M1111.98 1354.37 L1111.98 1423.18 L1266.94 1423.18 L1266.94 1354.37 L1111.98 1354.37 L1111.98 1354.37  Z" fill="#009af9" fill-rule="evenodd" fill-opacity="1"/>
<polyline clip-path="url(#clip222)" style="stroke:#000000; stroke-linecap:round; stroke-linejoin:round; stroke-width:4; stroke-opacity:1; fill:none" points="1111.98,1354.37 1111.98,1423.18 1266.94,1423.18 1266.94,1354.37 1111.98,1354.37 "/>
<path clip-path="url(#clip222)" d="M1305.68 1171.74 L1305.68 1423.18 L1460.64 1423.18 L1460.64 1171.74 L1305.68 1171.74 L1305.68 1171.74  Z" fill="#009af9" fill-rule="evenodd" fill-opacity="1"/>
<polyline clip-path="url(#clip222)" style="stroke:#000000; stroke-linecap:round; stroke-linejoin:round; stroke-width:4; stroke-opacity:1; fill:none" points="1305.68,1171.74 1305.68,1423.18 1460.64,1423.18 1460.64,1171.74 1305.68,1171.74 "/>
<path clip-path="url(#clip222)" d="M1499.38 667.264 L1499.38 1423.18 L1654.34 1423.18 L1654.34 667.264 L1499.38 667.264 L1499.38 667.264  Z" fill="#009af9" fill-rule="evenodd" fill-opacity="1"/>
<polyline clip-path="url(#clip222)" style="stroke:#000000; stroke-linecap:round; stroke-linejoin:round; stroke-width:4; stroke-opacity:1; fill:none" points="1499.38,667.264 1499.38,1423.18 1654.34,1423.18 1654.34,667.264 1499.38,667.264 "/>
<path clip-path="url(#clip222)" d="M1693.08 153.535 L1693.08 1423.18 L1848.04 1423.18 L1848.04 153.535 L1693.08 153.535 L1693.08 153.535  Z" fill="#009af9" fill-rule="evenodd" fill-opacity="1"/>
<polyline clip-path="url(#clip222)" style="stroke:#000000; stroke-linecap:round; stroke-linejoin:round; stroke-width:4; stroke-opacity:1; fill:none" points="1693.08,153.535 1693.08,1423.18 1848.04,1423.18 1848.04,153.535 1693.08,153.535 "/>
<path clip-path="url(#clip222)" d="M1886.78 123.472 L1886.78 1423.18 L2041.74 1423.18 L2041.74 123.472 L1886.78 123.472 L1886.78 123.472  Z" fill="#009af9" fill-rule="evenodd" fill-opacity="1"/>
<polyline clip-path="url(#clip222)" style="stroke:#000000; stroke-linecap:round; stroke-linejoin:round; stroke-width:4; stroke-opacity:1; fill:none" points="1886.78,123.472 1886.78,1423.18 2041.74,1423.18 2041.74,123.472 1886.78,123.472 "/>
<path clip-path="url(#clip222)" d="M2080.48 863.616 L2080.48 1423.18 L2235.44 1423.18 L2235.44 863.616 L2080.48 863.616 L2080.48 863.616  Z" fill="#009af9" fill-rule="evenodd" fill-opacity="1"/>
<polyline clip-path="url(#clip222)" style="stroke:#000000; stroke-linecap:round; stroke-linejoin:round; stroke-width:4; stroke-opacity:1; fill:none" points="2080.48,863.616 2080.48,1423.18 2235.44,1423.18 2235.44,863.616 2080.48,863.616 "/>
<circle clip-path="url(#clip222)" style="fill:#009af9; stroke:none; fill-opacity:0" cx="414.659" cy="1275.41" r="2"/>
<circle clip-path="url(#clip222)" style="fill:#009af9; stroke:none; fill-opacity:0" cx="608.36" cy="1071.75" r="2"/>
<circle clip-path="url(#clip222)" style="fill:#009af9; stroke:none; fill-opacity:0" cx="802.06" cy="263.092" r="2"/>
<circle clip-path="url(#clip222)" style="fill:#009af9; stroke:none; fill-opacity:0" cx="995.76" cy="1225.19" r="2"/>
<circle clip-path="url(#clip222)" style="fill:#009af9; stroke:none; fill-opacity:0" cx="1189.46" cy="1354.37" r="2"/>
<circle clip-path="url(#clip222)" style="fill:#009af9; stroke:none; fill-opacity:0" cx="1383.16" cy="1171.74" r="2"/>
<circle clip-path="url(#clip222)" style="fill:#009af9; stroke:none; fill-opacity:0" cx="1576.86" cy="667.264" r="2"/>
<circle clip-path="url(#clip222)" style="fill:#009af9; stroke:none; fill-opacity:0" cx="1770.56" cy="153.535" r="2"/>
<circle clip-path="url(#clip222)" style="fill:#009af9; stroke:none; fill-opacity:0" cx="1964.26" cy="123.472" r="2"/>
<circle clip-path="url(#clip222)" style="fill:#009af9; stroke:none; fill-opacity:0" cx="2157.96" cy="863.616" r="2"/>
<path clip-path="url(#clip220)" d="M290.963 270.476 L556.682 270.476 L556.682 166.796 L290.963 166.796  Z" fill="#ffffff" fill-rule="evenodd" fill-opacity="1"/>
<polyline clip-path="url(#clip220)" style="stroke:#000000; stroke-linecap:round; stroke-linejoin:round; stroke-width:4; stroke-opacity:1; fill:none" points="290.963,270.476 556.682,270.476 556.682,166.796 290.963,166.796 290.963,270.476 "/>
<path clip-path="url(#clip220)" d="M314.661 239.372 L456.854 239.372 L456.854 197.9 L314.661 197.9 L314.661 239.372  Z" fill="#009af9" fill-rule="evenodd" fill-opacity="1"/>
<polyline clip-path="url(#clip220)" style="stroke:#000000; stroke-linecap:round; stroke-linejoin:round; stroke-width:4; stroke-opacity:1; fill:none" points="314.661,239.372 456.854,239.372 456.854,197.9 314.661,197.9 314.661,239.372 "/>
<path clip-path="url(#clip220)" d="M494.395 238.323 Q492.59 242.953 490.877 244.365 Q489.164 245.777 486.293 245.777 L482.891 245.777 L482.891 242.212 L485.391 242.212 Q487.15 242.212 488.122 241.379 Q489.094 240.545 490.275 237.443 L491.039 235.499 L480.553 209.99 L485.067 209.99 L493.168 230.268 L501.27 209.99 L505.784 209.99 L494.395 238.323 Z" fill="#000000" fill-rule="nonzero" fill-opacity="1" /><path clip-path="url(#clip220)" d="M513.076 231.981 L520.715 231.981 L520.715 205.615 L512.404 207.282 L512.404 203.022 L520.668 201.356 L525.344 201.356 L525.344 231.981 L532.983 231.981 L532.983 235.916 L513.076 235.916 L513.076 231.981 Z" fill="#000000" fill-rule="nonzero" fill-opacity="1" /></svg>