<?xml version="1.0" encoding="utf-8"?>
<svg xmlns="http://www.w3.org/2000/svg" xmlns:xlink="http://www.w3.org/1999/xlink" width="600" height="400" viewBox="0 0 2400 1600">
<defs>
  <clipPath id="clip130">
    <rect x="0" y="0" width="2400" height="1600"/>
  </clipPath>
</defs>
<path clip-path="url(#clip130)" d="M0 1600 L2400 1600 L2400 8.88178e-14 L0 8.88178e-14  Z" fill="#ffffff" fill-rule="evenodd" fill-opacity="1"/>
<defs>
  <clipPath id="clip131">
    <rect x="480" y="0" width="1681" height="1600"/>
  </clipPath>
</defs>
<path clip-path="url(#clip130)" d="M219.866 1423.18 L2352.76 1423.18 L2352.76 123.472 L219.866 123.472  Z" fill="#ffffff" fill-rule="evenodd" fill-opacity="1"/>
<defs>
  <clipPath id="clip132">
    <rect x="219" y="123" width="2134" height="1301"/>
  </clipPath>
</defs>
<polyline clip-path="url(#clip132)" style="stroke:#000000; stroke-linecap:round; stroke-linejoin:round; stroke-width:2; stroke-opacity:0.1; fill:none" points="503.804,1423.18 503.804,123.472 "/>
<polyline clip-path="url(#clip132)" style="stroke:#000000; stroke-linecap:round; stroke-linejoin:round; stroke-width:2; stroke-opacity:0.1; fill:none" points="950.951,1423.18 950.951,123.472 "/>
<polyline clip-path="url(#clip132)" style="stroke:#000000; stroke-linecap:round; stroke-linejoin:round; stroke-width:2; stroke-opacity:0.1; fill:none" points="1398.1,1423.18 1398.1,123.472 "/>
<polyline clip-path="url(#clip132)" style="stroke:#000000; stroke-linecap:round; stroke-linejoin:round; stroke-width:2; stroke-opacity:0.1; fill:none" points="1845.24,1423.18 1845.24,123.472 "/>
<polyline clip-path="url(#clip132)" style="stroke:#000000; stroke-linecap:round; stroke-linejoin:round; stroke-width:2; stroke-opacity:0.1; fill:none" points="2292.39,1423.18 2292.39,123.472 "/>
<polyline clip-path="url(#clip130)" style="stroke:#000000; stroke-linecap:round; stroke-linejoin:round; stroke-width:4; stroke-opacity:1; fill:none" points="219.866,1423.18 2352.76,1423.18 "/>
<polyline clip-path="url(#clip130)" style="stroke:#000000; stroke-linecap:round; stroke-linejoin:round; stroke-width:4; stroke-opacity:1; fill:none" points="503.804,1423.18 503.804,1404.28 "/>
<polyline clip-path="url(#clip130)" style="stroke:#000000; stroke-linecap:round; stroke-linejoin:round; stroke-width:4; stroke-opacity:1; fill:none" points="950.951,1423.18 950.951,1404.28 "/>
<polyline clip-path="url(#clip130)" style="stroke:#000000; stroke-linecap:round; stroke-linejoin:round; stroke-width:4; stroke-opacity:1; fill:none" points="1398.1,1423.18 1398.1,1404.28 "/>
<polyline clip-path="url(#clip130)" style="stroke:#000000; stroke-linecap:round; stroke-linejoin:round; stroke-width:4; stroke-opacity:1; fill:none" points="1845.24,1423.18 1845.24,1404.28 "/>
<polyline clip-path="url(#clip130)" style="stroke:#000000; stroke-linecap:round; stroke-linejoin:round; stroke-width:4; stroke-opacity:1; fill:none" points="2292.39,1423.18 2292.39,1404.28 "/>
<path clip-path="url(#clip130)" d="M498.457 1481.64 L514.777 1481.64 L514.777 1485.58 L492.832 1485.58 L492.832 1481.64 Q495.494 1478.89 500.078 1474.26 Q504.684 1469.61 505.865 1468.27 Q508.11 1465.74 508.99 1464.01 Q509.892 1462.25 509.892 1460.56 Q509.892 1457.8 507.948 1456.07 Q506.027 1454.33 502.925 1454.33 Q500.726 1454.33 498.272 1455.09 Q495.841 1455.86 493.064 1457.41 L493.064 1452.69 Q495.888 1451.55 498.341 1450.97 Q500.795 1450.39 502.832 1450.39 Q508.203 1450.39 511.397 1453.08 Q514.591 1455.77 514.591 1460.26 Q514.591 1462.39 513.781 1464.31 Q512.994 1466.2 510.888 1468.8 Q510.309 1469.47 507.207 1472.69 Q504.105 1475.88 498.457 1481.64 Z" fill="#000000" fill-rule="nonzero" fill-opacity="1" /><path clip-path="url(#clip130)" d="M953.96 1455.09 L942.155 1473.54 L953.96 1473.54 L953.96 1455.09 M952.733 1451.02 L958.613 1451.02 L958.613 1473.54 L963.544 1473.54 L963.544 1477.43 L958.613 1477.43 L958.613 1485.58 L953.96 1485.58 L953.96 1477.43 L938.359 1477.43 L938.359 1472.92 L952.733 1451.02 Z" fill="#000000" fill-rule="nonzero" fill-opacity="1" /><path clip-path="url(#clip130)" d="M1398.5 1466.44 Q1395.35 1466.44 1393.5 1468.59 Q1391.67 1470.74 1391.67 1474.49 Q1391.67 1478.22 1393.5 1480.39 Q1395.35 1482.55 1398.5 1482.55 Q1401.65 1482.55 1403.48 1480.39 Q1405.33 1478.22 1405.33 1474.49 Q1405.33 1470.74 1403.48 1468.59 Q1401.65 1466.44 1398.5 1466.44 M1407.79 1451.78 L1407.79 1456.04 Q1406.03 1455.21 1404.22 1454.77 Q1402.44 1454.33 1400.68 1454.33 Q1396.05 1454.33 1393.6 1457.45 Q1391.16 1460.58 1390.82 1466.9 Q1392.18 1464.89 1394.24 1463.82 Q1396.3 1462.73 1398.78 1462.73 Q1403.99 1462.73 1407 1465.9 Q1410.03 1469.05 1410.03 1474.49 Q1410.03 1479.82 1406.88 1483.03 Q1403.73 1486.25 1398.5 1486.25 Q1392.51 1486.25 1389.34 1481.67 Q1386.16 1477.06 1386.16 1468.33 Q1386.16 1460.14 1390.05 1455.28 Q1393.94 1450.39 1400.49 1450.39 Q1402.25 1450.39 1404.04 1450.74 Q1405.84 1451.09 1407.79 1451.78 Z" fill="#000000" fill-rule="nonzero" fill-opacity="1" /><path clip-path="url(#clip130)" d="M1845.24 1469.17 Q1841.91 1469.17 1839.99 1470.95 Q1838.09 1472.73 1838.09 1475.86 Q1838.09 1478.98 1839.99 1480.77 Q1841.91 1482.55 1845.24 1482.55 Q1848.58 1482.55 1850.5 1480.77 Q1852.42 1478.96 1852.42 1475.86 Q1852.42 1472.73 1850.5 1470.95 Q1848.6 1469.17 1845.24 1469.17 M1840.57 1467.18 Q1837.56 1466.44 1835.87 1464.38 Q1834.2 1462.32 1834.2 1459.35 Q1834.2 1455.21 1837.14 1452.8 Q1840.11 1450.39 1845.24 1450.39 Q1850.41 1450.39 1853.35 1452.8 Q1856.29 1455.21 1856.29 1459.35 Q1856.29 1462.32 1854.6 1464.38 Q1852.93 1466.44 1849.94 1467.18 Q1853.32 1467.96 1855.2 1470.26 Q1857.1 1472.55 1857.1 1475.86 Q1857.1 1480.88 1854.02 1483.57 Q1850.96 1486.25 1845.24 1486.25 Q1839.53 1486.25 1836.45 1483.57 Q1833.39 1480.88 1833.39 1475.86 Q1833.39 1472.55 1835.29 1470.26 Q1837.19 1467.96 1840.57 1467.18 M1838.86 1459.79 Q1838.86 1462.48 1840.52 1463.98 Q1842.21 1465.49 1845.24 1465.49 Q1848.25 1465.49 1849.94 1463.98 Q1851.66 1462.48 1851.66 1459.79 Q1851.66 1457.11 1849.94 1455.6 Q1848.25 1454.1 1845.24 1454.1 Q1842.21 1454.1 1840.52 1455.6 Q1838.86 1457.11 1838.86 1459.79 Z" fill="#000000" fill-rule="nonzero" fill-opacity="1" /><path clip-path="url(#clip130)" d="M2267.08 1481.64 L2274.72 1481.64 L2274.72 1455.28 L2266.41 1456.95 L2266.41 1452.69 L2274.67 1451.02 L2279.35 1451.02 L2279.35 1481.64 L2286.99 1481.64 L2286.99 1485.58 L2267.08 1485.58 L2267.08 1481.64 Z" fill="#000000" fill-rule="nonzero" fill-opacity="1" /><path clip-path="url(#clip130)" d="M2306.43 1454.1 Q2302.82 1454.1 2300.99 1457.66 Q2299.19 1461.2 2299.19 1468.33 Q2299.19 1475.44 2300.99 1479.01 Q2302.82 1482.55 2306.43 1482.55 Q2310.06 1482.55 2311.87 1479.01 Q2313.7 1475.44 2313.7 1468.33 Q2313.7 1461.2 2311.87 1457.66 Q2310.06 1454.1 2306.43 1454.1 M2306.43 1450.39 Q2312.24 1450.39 2315.3 1455 Q2318.37 1459.58 2318.37 1468.33 Q2318.37 1477.06 2315.3 1481.67 Q2312.24 1486.25 2306.43 1486.25 Q2300.62 1486.25 2297.54 1481.67 Q2294.49 1477.06 2294.49 1468.33 Q2294.49 1459.58 2297.54 1455 Q2300.62 1450.39 2306.43 1450.39 Z" fill="#000000" fill-rule="nonzero" fill-opacity="1" /><path clip-path="url(#clip130)" d="M1193.28 1520.52 L1200.18 1520.52 L1211.99 1538.19 L1223.86 1520.52 L1230.77 1520.52 L1215.49 1543.34 L1231.79 1568.04 L1224.88 1568.04 L1211.51 1547.83 L1198.05 1568.04 L1191.11 1568.04 L1208.08 1542.68 L1193.28 1520.52 Z" fill="#000000" fill-rule="nonzero" fill-opacity="1" /><path clip-path="url(#clip130)" d="M1233.76 1547.58 L1250.92 1547.58 L1250.92 1552.8 L1233.76 1552.8 L1233.76 1547.58 Z" fill="#000000" fill-rule="nonzero" fill-opacity="1" /><path clip-path="url(#clip130)" d="M1276.44 1550.12 Q1269.35 1550.12 1266.61 1551.75 Q1263.87 1553.37 1263.87 1557.29 Q1263.87 1560.4 1265.91 1562.25 Q1267.98 1564.07 1271.51 1564.07 Q1276.38 1564.07 1279.31 1560.63 Q1282.27 1557.16 1282.27 1551.43 L1282.27 1550.12 L1276.44 1550.12 M1288.13 1547.71 L1288.13 1568.04 L1282.27 1568.04 L1282.27 1562.63 Q1280.26 1565.88 1277.27 1567.44 Q1274.28 1568.97 1269.95 1568.97 Q1264.48 1568.97 1261.23 1565.91 Q1258.02 1562.82 1258.02 1557.67 Q1258.02 1551.65 1262.03 1548.6 Q1266.07 1545.54 1274.06 1545.54 L1282.27 1545.54 L1282.27 1544.97 Q1282.27 1540.93 1279.6 1538.73 Q1276.95 1536.5 1272.15 1536.5 Q1269.09 1536.5 1266.2 1537.23 Q1263.3 1537.97 1260.63 1539.43 L1260.63 1534.02 Q1263.84 1532.78 1266.86 1532.17 Q1269.89 1531.54 1272.75 1531.54 Q1280.49 1531.54 1284.31 1535.55 Q1288.13 1539.56 1288.13 1547.71 Z" fill="#000000" fill-rule="nonzero" fill-opacity="1" /><path clip-path="url(#clip130)" d="M1329.82 1532.4 L1316.93 1549.74 L1330.49 1568.04 L1323.58 1568.04 L1313.21 1554.04 L1302.83 1568.04 L1295.92 1568.04 L1309.77 1549.39 L1297.1 1532.4 L1304.01 1532.4 L1313.46 1545.1 L1322.91 1532.4 L1329.82 1532.4 Z" fill="#000000" fill-rule="nonzero" fill-opacity="1" /><path clip-path="url(#clip130)" d="M1338.76 1532.4 L1344.62 1532.4 L1344.62 1568.04 L1338.76 1568.04 L1338.76 1532.4 M1338.76 1518.52 L1344.62 1518.52 L1344.62 1525.93 L1338.76 1525.93 L1338.76 1518.52 Z" fill="#000000" fill-rule="nonzero" fill-opacity="1" /><path clip-path="url(#clip130)" d="M1379.6 1533.45 L1379.6 1538.98 Q1377.12 1537.71 1374.44 1537.07 Q1371.77 1536.44 1368.91 1536.44 Q1364.55 1536.44 1362.35 1537.77 Q1360.19 1539.11 1360.19 1541.79 Q1360.19 1543.82 1361.74 1545 Q1363.3 1546.15 1368.01 1547.2 L1370.02 1547.64 Q1376.26 1548.98 1378.87 1551.43 Q1381.51 1553.85 1381.51 1558.21 Q1381.51 1563.17 1377.56 1566.07 Q1373.65 1568.97 1366.77 1568.97 Q1363.91 1568.97 1360.79 1568.39 Q1357.7 1567.85 1354.27 1566.74 L1354.27 1560.69 Q1357.51 1562.38 1360.66 1563.24 Q1363.81 1564.07 1366.9 1564.07 Q1371.04 1564.07 1373.27 1562.66 Q1375.49 1561.23 1375.49 1558.65 Q1375.49 1556.27 1373.87 1554.99 Q1372.28 1553.72 1366.84 1552.54 L1364.8 1552.07 Q1359.36 1550.92 1356.94 1548.56 Q1354.52 1546.18 1354.52 1542.04 Q1354.52 1537.01 1358.08 1534.27 Q1361.65 1531.54 1368.21 1531.54 Q1371.45 1531.54 1374.32 1532.01 Q1377.18 1532.49 1379.6 1533.45 Z" fill="#000000" fill-rule="nonzero" fill-opacity="1" /><polyline clip-path="url(#clip132)" style="stroke:#000000; stroke-linecap:round; stroke-linejoin:round; stroke-width:2; stroke-opacity:0.1; fill:none" points="219.866,1183.15 2352.76,1183.15 "/>
<polyline clip-path="url(#clip132)" style="stroke:#000000; stroke-linecap:round; stroke-linejoin:round; stroke-width:2; stroke-opacity:0.1; fill:none" points="219.866,911.363 2352.76,911.363 "/>
<polyline clip-path="url(#clip132)" style="stroke:#000000; stroke-linecap:round; stroke-linejoin:round; stroke-width:2; stroke-opacity:0.1; fill:none" points="219.866,639.573 2352.76,639.573 "/>
<polyline clip-path="url(#clip132)" style="stroke:#000000; stroke-linecap:round; stroke-linejoin:round; stroke-width:2; stroke-opacity:0.1; fill:none" points="219.866,367.784 2352.76,367.784 "/>
<polyline clip-path="url(#clip130)" style="stroke:#000000; stroke-linecap:round; stroke-linejoin:round; stroke-width:4; stroke-opacity:1; fill:none" points="219.866,1423.18 219.866,123.472 "/>
<polyline clip-path="url(#clip130)" style="stroke:#000000; stroke-linecap:round; stroke-linejoin:round; stroke-width:4; stroke-opacity:1; fill:none" points="219.866,1183.15 238.764,1183.15 "/>
<polyline clip-path="url(#clip130)" style="stroke:#000000; stroke-linecap:round; stroke-linejoin:round; stroke-width:4; stroke-opacity:1; fill:none" points="219.866,911.363 238.764,911.363 "/>
<polyline clip-path="url(#clip130)" style="stroke:#000000; stroke-linecap:round; stroke-linejoin:round; stroke-width:4; stroke-opacity:1; fill:none" points="219.866,639.573 238.764,639.573 "/>
<polyline clip-path="url(#clip130)" style="stroke:#000000; stroke-linecap:round; stroke-linejoin:round; stroke-width:4; stroke-opacity:1; fill:none" points="219.866,367.784 238.764,367.784 "/>
<path clip-path="url(#clip130)" d="M128.288 1168.95 Q124.677 1168.95 122.848 1172.52 Q121.043 1176.06 121.043 1183.19 Q121.043 1190.29 122.848 1193.86 Q124.677 1197.4 128.288 1197.4 Q131.922 1197.4 133.728 1193.86 Q135.556 1190.29 135.556 1183.19 Q135.556 1176.06 133.728 1172.52 Q131.922 1168.95 128.288 1168.95 M128.288 1165.25 Q134.098 1165.25 137.154 1169.85 Q140.232 1174.44 140.232 1183.19 Q140.232 1191.91 137.154 1196.52 Q134.098 1201.1 128.288 1201.1 Q122.478 1201.1 119.399 1196.52 Q116.343 1191.91 116.343 1183.19 Q116.343 1174.44 119.399 1169.85 Q122.478 1165.25 128.288 1165.25 Z" fill="#000000" fill-rule="nonzero" fill-opacity="1" /><path clip-path="url(#clip130)" d="M148.45 1194.55 L153.334 1194.55 L153.334 1200.43 L148.45 1200.43 L148.45 1194.55 Z" fill="#000000" fill-rule="nonzero" fill-opacity="1" /><path clip-path="url(#clip130)" d="M167.547 1196.5 L183.866 1196.5 L183.866 1200.43 L161.922 1200.43 L161.922 1196.5 Q164.584 1193.74 169.167 1189.11 Q173.774 1184.46 174.954 1183.12 Q177.2 1180.59 178.079 1178.86 Q178.982 1177.1 178.982 1175.41 Q178.982 1172.65 177.038 1170.92 Q175.116 1169.18 172.014 1169.18 Q169.815 1169.18 167.362 1169.95 Q164.931 1170.71 162.153 1172.26 L162.153 1167.54 Q164.977 1166.4 167.431 1165.83 Q169.885 1165.25 171.922 1165.25 Q177.292 1165.25 180.487 1167.93 Q183.681 1170.62 183.681 1175.11 Q183.681 1177.24 182.871 1179.16 Q182.084 1181.06 179.977 1183.65 Q179.399 1184.32 176.297 1187.54 Q173.195 1190.73 167.547 1196.5 Z" fill="#000000" fill-rule="nonzero" fill-opacity="1" /><path clip-path="url(#clip130)" d="M126.205 897.161 Q122.593 897.161 120.765 900.726 Q118.959 904.268 118.959 911.397 Q118.959 918.504 120.765 922.069 Q122.593 925.61 126.205 925.61 Q129.839 925.61 131.644 922.069 Q133.473 918.504 133.473 911.397 Q133.473 904.268 131.644 900.726 Q129.839 897.161 126.205 897.161 M126.205 893.458 Q132.015 893.458 135.07 898.064 Q138.149 902.647 138.149 911.397 Q138.149 920.124 135.07 924.731 Q132.015 929.314 126.205 929.314 Q120.394 929.314 117.316 924.731 Q114.26 920.124 114.26 911.397 Q114.26 902.647 117.316 898.064 Q120.394 893.458 126.205 893.458 Z" fill="#000000" fill-rule="nonzero" fill-opacity="1" /><path clip-path="url(#clip130)" d="M146.366 922.763 L151.251 922.763 L151.251 928.643 L146.366 928.643 L146.366 922.763 Z" fill="#000000" fill-rule="nonzero" fill-opacity="1" /><path clip-path="url(#clip130)" d="M174.283 898.157 L162.477 916.606 L174.283 916.606 L174.283 898.157 M173.056 894.083 L178.936 894.083 L178.936 916.606 L183.866 916.606 L183.866 920.494 L178.936 920.494 L178.936 928.643 L174.283 928.643 L174.283 920.494 L158.681 920.494 L158.681 915.981 L173.056 894.083 Z" fill="#000000" fill-rule="nonzero" fill-opacity="1" /><path clip-path="url(#clip130)" d="M126.529 625.372 Q122.918 625.372 121.089 628.937 Q119.283 632.478 119.283 639.608 Q119.283 646.715 121.089 650.279 Q122.918 653.821 126.529 653.821 Q130.163 653.821 131.968 650.279 Q133.797 646.715 133.797 639.608 Q133.797 632.478 131.968 628.937 Q130.163 625.372 126.529 625.372 M126.529 621.668 Q132.339 621.668 135.394 626.275 Q138.473 630.858 138.473 639.608 Q138.473 648.335 135.394 652.941 Q132.339 657.525 126.529 657.525 Q120.718 657.525 117.64 652.941 Q114.584 648.335 114.584 639.608 Q114.584 630.858 117.64 626.275 Q120.718 621.668 126.529 621.668 Z" fill="#000000" fill-rule="nonzero" fill-opacity="1" /><path clip-path="url(#clip130)" d="M146.691 650.974 L151.575 650.974 L151.575 656.853 L146.691 656.853 L146.691 650.974 Z" fill="#000000" fill-rule="nonzero" fill-opacity="1" /><path clip-path="url(#clip130)" d="M172.339 637.71 Q169.19 637.71 167.339 639.863 Q165.51 642.015 165.51 645.765 Q165.51 649.492 167.339 651.668 Q169.19 653.821 172.339 653.821 Q175.487 653.821 177.315 651.668 Q179.167 649.492 179.167 645.765 Q179.167 642.015 177.315 639.863 Q175.487 637.71 172.339 637.71 M181.621 623.057 L181.621 627.316 Q179.862 626.483 178.056 626.043 Q176.274 625.604 174.514 625.604 Q169.885 625.604 167.431 628.728 Q165.001 631.853 164.653 638.173 Q166.019 636.159 168.079 635.094 Q170.139 634.006 172.616 634.006 Q177.825 634.006 180.834 637.178 Q183.866 640.326 183.866 645.765 Q183.866 651.089 180.718 654.307 Q177.57 657.525 172.339 657.525 Q166.343 657.525 163.172 652.941 Q160.001 648.335 160.001 639.608 Q160.001 631.414 163.89 626.553 Q167.778 621.668 174.329 621.668 Q176.089 621.668 177.871 622.016 Q179.676 622.363 181.621 623.057 Z" fill="#000000" fill-rule="nonzero" fill-opacity="1" /><path clip-path="url(#clip130)" d="M126.783 353.583 Q123.172 353.583 121.343 357.148 Q119.538 360.689 119.538 367.819 Q119.538 374.925 121.343 378.49 Q123.172 382.032 126.783 382.032 Q130.417 382.032 132.223 378.49 Q134.052 374.925 134.052 367.819 Q134.052 360.689 132.223 357.148 Q130.417 353.583 126.783 353.583 M126.783 349.879 Q132.593 349.879 135.649 354.486 Q138.728 359.069 138.728 367.819 Q138.728 376.546 135.649 381.152 Q132.593 385.735 126.783 385.735 Q120.973 385.735 117.894 381.152 Q114.839 376.546 114.839 367.819 Q114.839 359.069 117.894 354.486 Q120.973 349.879 126.783 349.879 Z" fill="#000000" fill-rule="nonzero" fill-opacity="1" /><path clip-path="url(#clip130)" d="M146.945 379.185 L151.829 379.185 L151.829 385.064 L146.945 385.064 L146.945 379.185 Z" fill="#000000" fill-rule="nonzero" fill-opacity="1" /><path clip-path="url(#clip130)" d="M172.014 368.652 Q168.681 368.652 166.76 370.435 Q164.862 372.217 164.862 375.342 Q164.862 378.467 166.76 380.249 Q168.681 382.032 172.014 382.032 Q175.348 382.032 177.269 380.249 Q179.19 378.444 179.19 375.342 Q179.19 372.217 177.269 370.435 Q175.371 368.652 172.014 368.652 M167.339 366.661 Q164.329 365.921 162.64 363.861 Q160.973 361.8 160.973 358.837 Q160.973 354.694 163.913 352.287 Q166.876 349.879 172.014 349.879 Q177.176 349.879 180.116 352.287 Q183.056 354.694 183.056 358.837 Q183.056 361.8 181.366 363.861 Q179.7 365.921 176.714 366.661 Q180.093 367.448 181.968 369.74 Q183.866 372.032 183.866 375.342 Q183.866 380.365 180.788 383.05 Q177.732 385.735 172.014 385.735 Q166.297 385.735 163.218 383.05 Q160.163 380.365 160.163 375.342 Q160.163 372.032 162.061 369.74 Q163.959 367.448 167.339 366.661 M165.626 359.277 Q165.626 361.962 167.292 363.467 Q168.982 364.972 172.014 364.972 Q175.024 364.972 176.714 363.467 Q178.426 361.962 178.426 359.277 Q178.426 356.592 176.714 355.087 Q175.024 353.583 172.014 353.583 Q168.982 353.583 167.292 355.087 Q165.626 356.592 165.626 359.277 Z" fill="#000000" fill-rule="nonzero" fill-opacity="1" /><path clip-path="url(#clip130)" d="M16.4842 864.897 L16.4842 857.99 L36.0269 844.813 L16.4842 831.731 L16.4842 824.825 L41.3741 841.63 L64.0042 841.63 L64.0042 848.091 L41.3741 848.091 L16.4842 864.897 Z" fill="#000000" fill-rule="nonzero" fill-opacity="1" /><path clip-path="url(#clip130)" d="M43.5384 829.503 L43.5384 812.348 L48.7583 812.348 L48.7583 829.503 L43.5384 829.503 Z" fill="#000000" fill-rule="nonzero" fill-opacity="1" /><path clip-path="url(#clip130)" d="M46.0847 786.821 Q46.0847 793.919 47.7079 796.656 Q49.3312 799.394 53.2461 799.394 Q56.3653 799.394 58.2114 797.357 Q60.0256 795.288 60.0256 791.755 Q60.0256 786.885 56.5881 783.957 Q53.1188 780.997 47.3897 780.997 L46.0847 780.997 L46.0847 786.821 M43.6657 775.14 L64.0042 775.14 L64.0042 780.997 L58.5933 780.997 Q61.8398 783.002 63.3994 785.994 Q64.9272 788.986 64.9272 793.314 Q64.9272 798.789 61.8716 802.035 Q58.7843 805.25 53.6281 805.25 Q47.6125 805.25 44.5569 801.24 Q41.5014 797.197 41.5014 789.208 L41.5014 780.997 L40.9285 780.997 Q36.8862 780.997 34.6901 783.67 Q32.4621 786.312 32.4621 791.118 Q32.4621 794.174 33.1941 797.07 Q33.9262 799.966 35.3903 802.64 L29.9795 802.64 Q28.7381 799.425 28.1334 796.402 Q27.4968 793.378 27.4968 790.513 Q27.4968 782.779 31.5072 778.96 Q35.5176 775.14 43.6657 775.14 Z" fill="#000000" fill-rule="nonzero" fill-opacity="1" /><path clip-path="url(#clip130)" d="M28.3562 733.445 L45.7028 746.335 L64.0042 732.776 L64.0042 739.683 L49.9996 750.059 L64.0042 760.435 L64.0042 767.342 L45.3526 753.497 L28.3562 766.165 L28.3562 759.258 L41.0558 749.805 L28.3562 740.352 L28.3562 733.445 Z" fill="#000000" fill-rule="nonzero" fill-opacity="1" /><path clip-path="url(#clip130)" d="M28.3562 724.501 L28.3562 718.645 L64.0042 718.645 L64.0042 724.501 L28.3562 724.501 M14.479 724.501 L14.479 718.645 L21.895 718.645 L21.895 724.501 L14.479 724.501 Z" fill="#000000" fill-rule="nonzero" fill-opacity="1" /><path clip-path="url(#clip130)" d="M29.4065 683.665 L34.9447 683.665 Q33.6716 686.148 33.035 688.821 Q32.3984 691.495 32.3984 694.359 Q32.3984 698.72 33.7352 700.916 Q35.072 703.08 37.7456 703.08 Q39.7826 703.08 40.9603 701.521 Q42.1061 699.961 43.1565 695.251 L43.6021 693.245 Q44.9389 687.007 47.3897 684.397 Q49.8086 681.755 54.1691 681.755 Q59.1344 681.755 62.0308 685.702 Q64.9272 689.617 64.9272 696.492 Q64.9272 699.356 64.3543 702.476 Q63.8132 705.563 62.6992 709.001 L56.6518 709.001 Q58.3387 705.754 59.198 702.603 Q60.0256 699.452 60.0256 696.365 Q60.0256 692.227 58.6251 689.999 Q57.1929 687.771 54.6147 687.771 Q52.2276 687.771 50.9545 689.394 Q49.6813 690.986 48.5037 696.428 L48.0262 698.465 Q46.8804 703.908 44.5251 706.327 Q42.138 708.746 38.0002 708.746 Q32.9713 708.746 30.2341 705.181 Q27.4968 701.616 27.4968 695.06 Q27.4968 691.813 27.9743 688.949 Q28.4517 686.084 29.4065 683.665 Z" fill="#000000" fill-rule="nonzero" fill-opacity="1" /><path clip-path="url(#clip130)" d="M1087.94 14.0809 L1087.94 22.0612 Q1083.28 19.8332 1079.15 18.7395 Q1075.02 17.6457 1071.17 17.6457 Q1064.48 17.6457 1060.84 20.2383 Q1057.23 22.8309 1057.23 27.611 Q1057.23 31.6214 1059.62 33.6873 Q1062.05 35.7128 1068.78 36.9686 L1073.72 37.9813 Q1082.87 39.7232 1087.21 44.1387 Q1091.58 48.5136 1091.58 55.8863 Q1091.58 64.6767 1085.67 69.2137 Q1079.8 73.7508 1068.41 73.7508 Q1064.12 73.7508 1059.26 72.7785 Q1054.44 71.8063 1049.25 69.9024 L1049.25 61.4765 Q1054.23 64.2716 1059.01 65.6895 Q1063.79 67.1073 1068.41 67.1073 Q1075.42 67.1073 1079.23 64.3527 Q1083.04 61.598 1083.04 56.4939 Q1083.04 52.0379 1080.28 49.5264 Q1077.57 47.0148 1071.33 45.759 L1066.35 44.7868 Q1057.19 42.9639 1053.1 39.075 Q1049.01 35.1862 1049.01 28.2591 Q1049.01 20.2383 1054.64 15.6203 Q1060.31 11.0023 1070.24 11.0023 Q1074.49 11.0023 1078.9 11.7719 Q1083.32 12.5416 1087.94 14.0809 Z" fill="#000000" fill-rule="nonzero" fill-opacity="1" /><path clip-path="url(#clip130)" d="M1136.67 28.9478 L1136.67 35.9153 Q1133.51 34.1734 1130.31 33.3227 Q1127.15 32.4315 1123.91 32.4315 Q1116.66 32.4315 1112.65 37.0496 Q1108.64 41.6271 1108.64 49.9314 Q1108.64 58.2358 1112.65 62.8538 Q1116.66 67.4314 1123.91 67.4314 Q1127.15 67.4314 1130.31 66.5807 Q1133.51 65.6895 1136.67 63.9476 L1136.67 70.8341 Q1133.55 72.2924 1130.19 73.0216 Q1126.87 73.7508 1123.1 73.7508 Q1112.85 73.7508 1106.82 67.3098 Q1100.78 60.8689 1100.78 49.9314 Q1100.78 38.832 1106.86 32.472 Q1112.97 26.1121 1123.59 26.1121 Q1127.03 26.1121 1130.31 26.8413 Q1133.59 27.5299 1136.67 28.9478 Z" fill="#000000" fill-rule="nonzero" fill-opacity="1" /><path clip-path="url(#clip130)" d="M1170.25 49.7694 Q1161.22 49.7694 1157.74 51.8354 Q1154.25 53.9013 1154.25 58.8839 Q1154.25 62.8538 1156.84 65.2034 Q1159.48 67.5124 1163.97 67.5124 Q1170.17 67.5124 1173.9 63.1374 Q1177.67 58.7219 1177.67 51.4303 L1177.67 49.7694 L1170.25 49.7694 M1185.12 46.6907 L1185.12 72.576 L1177.67 72.576 L1177.67 65.6895 Q1175.11 69.8214 1171.31 71.8063 Q1167.5 73.7508 1161.99 73.7508 Q1155.02 73.7508 1150.89 69.8619 Q1146.8 65.9325 1146.8 59.3701 Q1146.8 51.7138 1151.9 47.825 Q1157.05 43.9361 1167.21 43.9361 L1177.67 43.9361 L1177.67 43.2069 Q1177.67 38.0623 1174.26 35.2672 Q1170.9 32.4315 1164.78 32.4315 Q1160.9 32.4315 1157.21 33.3632 Q1153.52 34.295 1150.12 36.1584 L1150.12 29.2718 Q1154.21 27.692 1158.06 26.9223 Q1161.91 26.1121 1165.55 26.1121 Q1175.4 26.1121 1180.26 31.2163 Q1185.12 36.3204 1185.12 46.6907 Z" fill="#000000" fill-rule="nonzero" fill-opacity="1" /><path clip-path="url(#clip130)" d="M1207.85 14.324 L1207.85 27.2059 L1223.2 27.2059 L1223.2 32.9987 L1207.85 32.9987 L1207.85 57.6282 Q1207.85 63.1779 1209.34 64.7578 Q1210.88 66.3376 1215.54 66.3376 L1223.2 66.3376 L1223.2 72.576 L1215.54 72.576 Q1206.91 72.576 1203.63 69.3758 Q1200.35 66.1351 1200.35 57.6282 L1200.35 32.9987 L1194.88 32.9987 L1194.88 27.2059 L1200.35 27.2059 L1200.35 14.324 L1207.85 14.324 Z" fill="#000000" fill-rule="nonzero" fill-opacity="1" /><path clip-path="url(#clip130)" d="M1240.37 14.324 L1240.37 27.2059 L1255.73 27.2059 L1255.73 32.9987 L1240.37 32.9987 L1240.37 57.6282 Q1240.37 63.1779 1241.87 64.7578 Q1243.41 66.3376 1248.07 66.3376 L1255.73 66.3376 L1255.73 72.576 L1248.07 72.576 Q1239.44 72.576 1236.16 69.3758 Q1232.88 66.1351 1232.88 57.6282 L1232.88 32.9987 L1227.41 32.9987 L1227.41 27.2059 L1232.88 27.2059 L1232.88 14.324 L1240.37 14.324 Z" fill="#000000" fill-rule="nonzero" fill-opacity="1" /><path clip-path="url(#clip130)" d="M1304.34 48.0275 L1304.34 51.6733 L1270.07 51.6733 Q1270.55 59.3701 1274.68 63.421 Q1278.86 67.4314 1286.27 67.4314 Q1290.56 67.4314 1294.57 66.3781 Q1298.63 65.3249 1302.6 63.2184 L1302.6 70.267 Q1298.59 71.9684 1294.37 72.8596 Q1290.16 73.7508 1285.82 73.7508 Q1274.97 73.7508 1268.61 67.4314 Q1262.29 61.1119 1262.29 50.3365 Q1262.29 39.1965 1268.28 32.6746 Q1274.32 26.1121 1284.53 26.1121 Q1293.68 26.1121 1298.99 32.0264 Q1304.34 37.9003 1304.34 48.0275 M1296.88 45.84 Q1296.8 39.7232 1293.44 36.0774 Q1290.12 32.4315 1284.61 32.4315 Q1278.37 32.4315 1274.6 35.9558 Q1270.88 39.4801 1270.31 45.8805 L1296.88 45.84 Z" fill="#000000" fill-rule="nonzero" fill-opacity="1" /><path clip-path="url(#clip130)" d="M1342.86 34.1734 Q1341.61 33.4443 1340.11 33.1202 Q1338.65 32.7556 1336.87 32.7556 Q1330.55 32.7556 1327.14 36.8875 Q1323.78 40.9789 1323.78 48.6757 L1323.78 72.576 L1316.29 72.576 L1316.29 27.2059 L1323.78 27.2059 L1323.78 34.2544 Q1326.13 30.1225 1329.9 28.1376 Q1333.67 26.1121 1339.05 26.1121 Q1339.82 26.1121 1340.76 26.2337 Q1341.69 26.3147 1342.82 26.5172 L1342.86 34.1734 Z" fill="#000000" fill-rule="nonzero" fill-opacity="1" /><path clip-path="url(#clip130)" d="M1385.56 18.8205 L1385.56 41.5461 L1395.85 41.5461 Q1401.56 41.5461 1404.68 38.5889 Q1407.8 35.6318 1407.8 30.163 Q1407.8 24.7348 1404.68 21.7777 Q1401.56 18.8205 1395.85 18.8205 L1385.56 18.8205 M1377.38 12.096 L1395.85 12.096 Q1406.02 12.096 1411.2 16.714 Q1416.43 21.2916 1416.43 30.163 Q1416.43 39.1155 1411.2 43.6931 Q1406.02 48.2706 1395.85 48.2706 L1385.56 48.2706 L1385.56 72.576 L1377.38 72.576 L1377.38 12.096 Z" fill="#000000" fill-rule="nonzero" fill-opacity="1" /><path clip-path="url(#clip130)" d="M1427.08 9.54393 L1434.53 9.54393 L1434.53 72.576 L1427.08 72.576 L1427.08 9.54393 Z" fill="#000000" fill-rule="nonzero" fill-opacity="1" /><path clip-path="url(#clip130)" d="M1467.71 32.4315 Q1461.72 32.4315 1458.23 37.1306 Q1454.75 41.7891 1454.75 49.9314 Q1454.75 58.0738 1458.19 62.7728 Q1461.67 67.4314 1467.71 67.4314 Q1473.67 67.4314 1477.15 62.7323 Q1480.63 58.0333 1480.63 49.9314 Q1480.63 41.8701 1477.15 37.1711 Q1473.67 32.4315 1467.71 32.4315 M1467.71 26.1121 Q1477.43 26.1121 1482.98 32.4315 Q1488.53 38.7509 1488.53 49.9314 Q1488.53 61.0714 1482.98 67.4314 Q1477.43 73.7508 1467.71 73.7508 Q1457.95 73.7508 1452.4 67.4314 Q1446.89 61.0714 1446.89 49.9314 Q1446.89 38.7509 1452.4 32.4315 Q1457.95 26.1121 1467.71 26.1121 Z" fill="#000000" fill-rule="nonzero" fill-opacity="1" /><path clip-path="url(#clip130)" d="M1508.26 14.324 L1508.26 27.2059 L1523.61 27.2059 L1523.61 32.9987 L1508.26 32.9987 L1508.26 57.6282 Q1508.26 63.1779 1509.76 64.7578 Q1511.3 66.3376 1515.96 66.3376 L1523.61 66.3376 L1523.61 72.576 L1515.96 72.576 Q1507.33 72.576 1504.05 69.3758 Q1500.77 66.1351 1500.77 57.6282 L1500.77 32.9987 L1495.3 32.9987 L1495.3 27.2059 L1500.77 27.2059 L1500.77 14.324 L1508.26 14.324 Z" fill="#000000" fill-rule="nonzero" fill-opacity="1" /><circle clip-path="url(#clip132)" cx="280.231" cy="1307.74" r="14.4" fill="#009af9" fill-rule="evenodd" fill-opacity="1" stroke="#000000" stroke-opacity="1" stroke-width="3.2"/>
<circle clip-path="url(#clip132)" cx="503.804" cy="1104.87" r="14.4" fill="#009af9" fill-rule="evenodd" fill-opacity="1" stroke="#000000" stroke-opacity="1" stroke-width="3.2"/>
<circle clip-path="url(#clip132)" cx="727.378" cy="299.337" r="14.4" fill="#009af9" fill-rule="evenodd" fill-opacity="1" stroke="#000000" stroke-opacity="1" stroke-width="3.2"/>
<circle clip-path="url(#clip132)" cx="950.951" cy="1257.72" r="14.4" fill="#009af9" fill-rule="evenodd" fill-opacity="1" stroke="#000000" stroke-opacity="1" stroke-width="3.2"/>
<circle clip-path="url(#clip132)" cx="1174.52" cy="1386.4" r="14.4" fill="#009af9" fill-rule="evenodd" fill-opacity="1" stroke="#000000" stroke-opacity="1" stroke-width="3.2"/>
<circle clip-path="url(#clip132)" cx="1398.1" cy="1204.47" r="14.4" fill="#009af9" fill-rule="evenodd" fill-opacity="1" stroke="#000000" stroke-opacity="1" stroke-width="3.2"/>
<circle clip-path="url(#clip132)" cx="1621.67" cy="701.947" r="14.4" fill="#009af9" fill-rule="evenodd" fill-opacity="1" stroke="#000000" stroke-opacity="1" stroke-width="3.2"/>
<circle clip-path="url(#clip132)" cx="1845.24" cy="190.203" r="14.4" fill="#009af9" fill-rule="evenodd" fill-opacity="1" stroke="#000000" stroke-opacity="1" stroke-width="3.2"/>
<circle clip-path="url(#clip132)" cx="2068.82" cy="160.256" r="14.4" fill="#009af9" fill-rule="evenodd" fill-opacity="1" stroke="#000000" stroke-opacity="1" stroke-width="3.2"/>
<circle clip-path="url(#clip132)" cx="2292.39" cy="897.54" r="14.4" fill="#009af9" fill-rule="evenodd" fill-opacity="1" stroke="#000000" stroke-opacity="1" stroke-width="3.2"/>
<path clip-path="url(#clip130)" d="M2015.94 1379.86 L2281.66 1379.86 L2281.66 1276.18 L2015.94 1276.18  Z" fill="#ffffff" fill-rule="evenodd" fill-opacity="1"/>
<polyline clip-path="url(#clip130)" style="stroke:#000000; stroke-linecap:round; stroke-linejoin:round; stroke-width:4; stroke-opacity:1; fill:none" points="2015.94,1379.86 2281.66,1379.86 2281.66,1276.18 2015.94,1276.18 2015.94,1379.86 "/>
<circle clip-path="url(#clip130)" cx="2110.74" cy="1328.02" r="20.48" fill="#009af9" fill-rule="evenodd" fill-opacity="1" stroke="#000000" stroke-opacity="1" stroke-width="4.55111"/>
<path clip-path="url(#clip130)" d="M2219.37 1347.7 Q2217.57 1352.33 2215.85 1353.75 Q2214.14 1355.16 2211.27 1355.16 L2207.87 1355.16 L2207.87 1351.59 L2210.37 1351.59 Q2212.13 1351.59 2213.1 1350.76 Q2214.07 1349.93 2215.25 1346.82 L2216.02 1344.88 L2205.53 1319.37 L2210.04 1319.37 L2218.15 1339.65 L2226.25 1319.37 L2230.76 1319.37 L2219.37 1347.7 Z" fill="#000000" fill-rule="nonzero" fill-opacity="1" /><path clip-path="url(#clip130)" d="M2238.05 1341.36 L2245.69 1341.36 L2245.69 1315 L2237.38 1316.66 L2237.38 1312.4 L2245.65 1310.74 L2250.32 1310.74 L2250.32 1341.36 L2257.96 1341.36 L2257.96 1345.3 L2238.05 1345.3 L2238.05 1341.36 Z" fill="#000000" fill-rule="nonzero" fill-opacity="1" /></svg>