<?xml version="1.0" encoding="utf-8"?>
<svg xmlns="http://www.w3.org/2000/svg" xmlns:xlink="http://www.w3.org/1999/xlink" width="600" height="400" viewBox="0 0 2400 1600">
<defs>
  <clipPath id="clip250">
    <rect x="0" y="0" width="2400" height="1600"/>
  </clipPath>
</defs>
<path clip-path="url(#clip250)" d="M0 1600 L2400 1600 L2400 8.88178e-14 L0 8.88178e-14  Z" fill="#ffffff" fill-rule="evenodd" fill-opacity="1"/>
<defs>
  <clipPath id="clip251">
    <rect x="480" y="0" width="1681" height="1600"/>
  </clipPath>
</defs>
<path clip-path="url(#clip250)" d="M219.866 1423.18 L2352.76 1423.18 L2352.76 123.472 L219.866 123.472  Z" fill="#ffffff" fill-rule="evenodd" fill-opacity="1"/>
<defs>
  <clipPath id="clip252">
    <rect x="219" y="123" width="2134" height="1301"/>
  </clipPath>
</defs>
<polyline clip-path="url(#clip252)" style="stroke:#000000; stroke-linecap:round; stroke-linejoin:round; stroke-width:2; stroke-opacity:0.1; fill:none" points="503.804,1423.18 503.804,123.472 "/>
<polyline clip-path="url(#clip252)" style="stroke:#000000; stroke-linecap:round; stroke-linejoin:round; stroke-width:2; stroke-opacity:0.1; fill:none" points="950.951,1423.18 950.951,123.472 "/>
<polyline clip-path="url(#clip252)" style="stroke:#000000; stroke-linecap:round; stroke-linejoin:round; stroke-width:2; stroke-opacity:0.1; fill:none" points="1398.1,1423.18 1398.1,123.472 "/>
<polyline clip-path="url(#clip252)" style="stroke:#000000; stroke-linecap:round; stroke-linejoin:round; stroke-width:2; stroke-opacity:0.1; fill:none" points="1845.24,1423.18 1845.24,123.472 "/>
<polyline clip-path="url(#clip252)" style="stroke:#000000; stroke-linecap:round; stroke-linejoin:round; stroke-width:2; stroke-opacity:0.1; fill:none" points="2292.39,1423.18 2292.39,123.472 "/>
<polyline clip-path="url(#clip250)" style="stroke:#000000; stroke-linecap:round; stroke-linejoin:round; stroke-width:4; stroke-opacity:1; fill:none" points="219.866,1423.18 2352.76,1423.18 "/>
<polyline clip-path="url(#clip250)" style="stroke:#000000; stroke-linecap:round; stroke-linejoin:round; stroke-width:4; stroke-opacity:1; fill:none" points="503.804,1423.18 503.804,1404.28 "/>
<polyline clip-path="url(#clip250)" style="stroke:#000000; stroke-linecap:round; stroke-linejoin:round; stroke-width:4; stroke-opacity:1; fill:none" points="950.951,1423.18 950.951,1404.28 "/>
<polyline clip-path="url(#clip250)" style="stroke:#000000; stroke-linecap:round; stroke-linejoin:round; stroke-width:4; stroke-opacity:1; fill:none" points="1398.1,1423.18 1398.1,1404.28 "/>
<polyline clip-path="url(#clip250)" style="stroke:#000000; stroke-linecap:round; stroke-linejoin:round; stroke-width:4; stroke-opacity:1; fill:none" points="1845.24,1423.18 1845.24,1404.28 "/>
<polyline clip-path="url(#clip250)" style="stroke:#000000; stroke-linecap:round; stroke-linejoin:round; stroke-width:4; stroke-opacity:1; fill:none" points="2292.39,1423.18 2292.39,1404.28 "/>
<path clip-path="url(#clip250)" d="M498.457 1481.64 L514.777 1481.64 L514.777 1485.58 L492.832 1485.58 L492.832 1481.64 Q495.494 1478.89 500.078 1474.26 Q504.684 1469.61 505.865 1468.27 Q508.11 1465.74 508.99 1464.01 Q509.892 1462.25 509.892 1460.56 Q509.892 1457.8 507.948 1456.07 Q506.027 1454.33 502.925 1454.33 Q500.726 1454.33 498.272 1455.09 Q495.841 1455.86 493.064 1457.41 L493.064 1452.69 Q495.888 1451.55 498.341 1450.97 Q500.795 1450.39 502.832 1450.39 Q508.203 1450.39 511.397 1453.08 Q514.591 1455.77 514.591 1460.26 Q514.591 1462.39 513.781 1464.31 Q512.994 1466.2 510.888 1468.8 Q510.309 1469.47 507.207 1472.69 Q504.105 1475.88 498.457 1481.64 Z" fill="#000000" fill-rule="nonzero" fill-opacity="1" /><path clip-path="url(#clip250)" d="M953.96 1455.09 L942.155 1473.54 L953.96 1473.54 L953.96 1455.09 M952.733 1451.02 L958.613 1451.02 L958.613 1473.54 L963.544 1473.54 L963.544 1477.43 L958.613 1477.43 L958.613 1485.58 L953.96 1485.58 L953.96 1477.43 L938.359 1477.43 L938.359 1472.92 L952.733 1451.02 Z" fill="#000000" fill-rule="nonzero" fill-opacity="1" /><path clip-path="url(#clip250)" d="M1398.5 1466.44 Q1395.35 1466.44 1393.5 1468.59 Q1391.67 1470.74 1391.67 1474.49 Q1391.67 1478.22 1393.5 1480.39 Q1395.35 1482.55 1398.5 1482.55 Q1401.65 1482.55 1403.48 1480.39 Q1405.33 1478.22 1405.33 1474.49 Q1405.33 1470.74 1403.48 1468.59 Q1401.65 1466.44 1398.5 1466.44 M1407.79 1451.78 L1407.79 1456.04 Q1406.03 1455.21 1404.22 1454.77 Q1402.44 1454.33 1400.68 1454.33 Q1396.05 1454.33 1393.6 1457.45 Q1391.16 1460.58 1390.82 1466.9 Q1392.18 1464.89 1394.24 1463.82 Q1396.3 1462.73 1398.78 1462.73 Q1403.99 1462.73 1407 1465.9 Q1410.03 1469.05 1410.03 1474.49 Q1410.03 1479.82 1406.88 1483.03 Q1403.73 1486.25 1398.5 1486.25 Q1392.51 1486.25 1389.34 1481.67 Q1386.16 1477.06 1386.16 1468.33 Q1386.16 1460.14 1390.05 1455.28 Q1393.94 1450.39 1400.49 1450.39 Q1402.25 1450.39 1404.04 1450.74 Q1405.84 1451.09 1407.79 1451.78 Z" fill="#000000" fill-rule="nonzero" fill-opacity="1" /><path clip-path="url(#clip250)" d="M1845.24 1469.17 Q1841.91 1469.17 1839.99 1470.95 Q1838.09 1472.73 1838.09 1475.86 Q1838.09 1478.98 1839.99 1480.77 Q1841.91 1482.55 1845.24 1482.55 Q1848.58 1482.55 1850.5 1480.77 Q1852.42 1478.96 1852.42 1475.86 Q1852.42 1472.73 1850.5 1470.95 Q1848.6 1469.17 1845.24 1469.17 M1840.57 1467.18 Q1837.56 1466.44 1835.87 1464.38 Q1834.2 1462.32 1834.2 1459.35 Q1834.2 1455.21 1837.14 1452.8 Q1840.11 1450.39 1845.24 1450.39 Q1850.41 1450.39 1853.35 1452.8 Q1856.29 1455.21 1856.29 1459.35 Q1856.29 1462.32 1854.6 1464.38 Q1852.93 1466.44 1849.94 1467.18 Q1853.32 1467.96 1855.2 1470.26 Q1857.1 1472.55 1857.1 1475.86 Q1857.1 1480.88 1854.02 1483.57 Q1850.96 1486.25 1845.24 1486.25 Q1839.53 1486.25 1836.45 1483.57 Q1833.39 1480.88 1833.39 1475.86 Q1833.39 1472.55 1835.29 1470.26 Q1837.19 1467.96 1840.57 1467.18 M1838.86 1459.79 Q1838.86 1462.48 1840.52 1463.98 Q1842.21 1465.49 1845.24 1465.49 Q1848.25 1465.49 1849.94 1463.98 Q1851.66 1462.48 1851.66 1459.79 Q1851.66 1457.11 1849.94 1455.6 Q1848.25 1454.1 1845.24 1454.1 Q1842.21 1454.1 1840.52 1455.6 Q1838.86 1457.11 1838.86 1459.79 Z" fill="#000000" fill-rule="nonzero" fill-opacity="1" /><path clip-path="url(#clip250)" d="M2267.08 1481.64 L2274.72 1481.64 L2274.72 1455.28 L2266.41 1456.95 L2266.41 1452.69 L2274.67 1451.02 L2279.35 1451.02 L2279.35 1481.64 L2286.99 1481.64 L2286.99 1485.58 L2267.08 1485.58 L2267.08 1481.64 Z" fill="#000000" fill-rule="nonzero" fill-opacity="1" /><path clip-path="url(#clip250)" d="M2306.43 1454.1 Q2302.82 1454.1 2300.99 1457.66 Q2299.19 1461.2 2299.19 1468.33 Q2299.19 1475.44 2300.99 1479.01 Q2302.82 1482.55 2306.43 1482.55 Q2310.06 1482.55 2311.87 1479.01 Q2313.7 1475.44 2313.7 1468.33 Q2313.7 1461.2 2311.87 1457.66 Q2310.06 1454.1 2306.43 1454.1 M2306.43 1450.39 Q2312.24 1450.39 2315.3 1455 Q2318.37 1459.58 2318.37 1468.33 Q2318.37 1477.06 2315.3 1481.67 Q2312.24 1486.25 2306.43 1486.25 Q2300.62 1486.25 2297.54 1481.67 Q2294.49 1477.06 2294.49 1468.33 Q2294.49 1459.58 2297.54 1455 Q2300.62 1450.39 2306.43 1450.39 Z" fill="#000000" fill-rule="nonzero" fill-opacity="1" /><path clip-path="url(#clip250)" d="M1095.07 1524.18 L1095.07 1530.96 Q1091.82 1527.94 1088.13 1526.44 Q1084.47 1524.95 1080.33 1524.95 Q1072.18 1524.95 1067.86 1529.95 Q1063.53 1534.91 1063.53 1544.33 Q1063.53 1553.72 1067.86 1558.72 Q1072.18 1563.68 1080.33 1563.68 Q1084.47 1563.68 1088.13 1562.19 Q1091.82 1560.69 1095.07 1557.67 L1095.07 1564.38 Q1091.7 1566.68 1087.91 1567.82 Q1084.15 1568.97 1079.95 1568.97 Q1069.16 1568.97 1062.95 1562.38 Q1056.75 1555.76 1056.75 1544.33 Q1056.75 1532.87 1062.95 1526.28 Q1069.16 1519.66 1079.95 1519.66 Q1084.22 1519.66 1087.97 1520.81 Q1091.76 1521.92 1095.07 1524.18 Z" fill="#000000" fill-rule="nonzero" fill-opacity="1" /><path clip-path="url(#clip250)" d="M1104.14 1553.98 L1104.14 1532.4 L1110 1532.4 L1110 1553.75 Q1110 1558.81 1111.97 1561.36 Q1113.94 1563.87 1117.89 1563.87 Q1122.63 1563.87 1125.37 1560.85 Q1128.14 1557.83 1128.14 1552.61 L1128.14 1532.4 L1134 1532.4 L1134 1568.04 L1128.14 1568.04 L1128.14 1562.57 Q1126.01 1565.82 1123.17 1567.41 Q1120.37 1568.97 1116.65 1568.97 Q1110.51 1568.97 1107.32 1565.15 Q1104.14 1561.33 1104.14 1553.98 M1118.88 1531.54 L1118.88 1531.54 Z" fill="#000000" fill-rule="nonzero" fill-opacity="1" /><path clip-path="url(#clip250)" d="M1168.78 1533.45 L1168.78 1538.98 Q1166.3 1537.71 1163.63 1537.07 Q1160.95 1536.44 1158.09 1536.44 Q1153.73 1536.44 1151.53 1537.77 Q1149.37 1539.11 1149.37 1541.79 Q1149.37 1543.82 1150.93 1545 Q1152.49 1546.15 1157.2 1547.2 L1159.2 1547.64 Q1165.44 1548.98 1168.05 1551.43 Q1170.69 1553.85 1170.69 1558.21 Q1170.69 1563.17 1166.75 1566.07 Q1162.83 1568.97 1155.96 1568.97 Q1153.09 1568.97 1149.97 1568.39 Q1146.89 1567.85 1143.45 1566.74 L1143.45 1560.69 Q1146.7 1562.38 1149.85 1563.24 Q1153 1564.07 1156.08 1564.07 Q1160.22 1564.07 1162.45 1562.66 Q1164.68 1561.23 1164.68 1558.65 Q1164.68 1556.27 1163.06 1554.99 Q1161.46 1553.72 1156.02 1552.54 L1153.98 1552.07 Q1148.54 1550.92 1146.12 1548.56 Q1143.7 1546.18 1143.7 1542.04 Q1143.7 1537.01 1147.27 1534.27 Q1150.83 1531.54 1157.39 1531.54 Q1160.64 1531.54 1163.5 1532.01 Q1166.37 1532.49 1168.78 1533.45 Z" fill="#000000" fill-rule="nonzero" fill-opacity="1" /><path clip-path="url(#clip250)" d="M1185.81 1522.27 L1185.81 1532.4 L1197.88 1532.4 L1197.88 1536.95 L1185.81 1536.95 L1185.81 1556.3 Q1185.81 1560.66 1186.99 1561.9 Q1188.2 1563.14 1191.86 1563.14 L1197.88 1563.14 L1197.88 1568.04 L1191.86 1568.04 Q1185.08 1568.04 1182.5 1565.53 Q1179.92 1562.98 1179.92 1556.3 L1179.92 1536.95 L1175.63 1536.95 L1175.63 1532.4 L1179.92 1532.4 L1179.92 1522.27 L1185.81 1522.27 Z" fill="#000000" fill-rule="nonzero" fill-opacity="1" /><path clip-path="url(#clip250)" d="M1219.39 1536.5 Q1214.68 1536.5 1211.94 1540.19 Q1209.21 1543.85 1209.21 1550.25 Q1209.21 1556.65 1211.91 1560.34 Q1214.65 1564 1219.39 1564 Q1224.07 1564 1226.81 1560.31 Q1229.54 1556.62 1229.54 1550.25 Q1229.54 1543.92 1226.81 1540.23 Q1224.07 1536.5 1219.39 1536.5 M1219.39 1531.54 Q1227.03 1531.54 1231.39 1536.5 Q1235.75 1541.47 1235.75 1550.25 Q1235.75 1559 1231.39 1564 Q1227.03 1568.97 1219.39 1568.97 Q1211.72 1568.97 1207.36 1564 Q1203.03 1559 1203.03 1550.25 Q1203.03 1541.47 1207.36 1536.5 Q1211.72 1531.54 1219.39 1531.54 Z" fill="#000000" fill-rule="nonzero" fill-opacity="1" /><path clip-path="url(#clip250)" d="M1273.21 1539.24 Q1275.41 1535.29 1278.47 1533.41 Q1281.52 1531.54 1285.66 1531.54 Q1291.23 1531.54 1294.25 1535.45 Q1297.28 1539.33 1297.28 1546.53 L1297.28 1568.04 L1291.39 1568.04 L1291.39 1546.72 Q1291.39 1541.59 1289.57 1539.11 Q1287.76 1536.63 1284.04 1536.63 Q1279.48 1536.63 1276.84 1539.65 Q1274.2 1542.68 1274.2 1547.9 L1274.2 1568.04 L1268.31 1568.04 L1268.31 1546.72 Q1268.31 1541.56 1266.5 1539.11 Q1264.68 1536.63 1260.9 1536.63 Q1256.41 1536.63 1253.77 1539.68 Q1251.12 1542.71 1251.12 1547.9 L1251.12 1568.04 L1245.24 1568.04 L1245.24 1532.4 L1251.12 1532.4 L1251.12 1537.93 Q1253.13 1534.66 1255.93 1533.1 Q1258.73 1531.54 1262.58 1531.54 Q1266.47 1531.54 1269.17 1533.51 Q1271.91 1535.48 1273.21 1539.24 Z" fill="#000000" fill-rule="nonzero" fill-opacity="1" /><path clip-path="url(#clip250)" d="M1327.64 1520.52 L1334.55 1520.52 L1346.36 1538.19 L1358.23 1520.52 L1365.13 1520.52 L1349.86 1543.34 L1366.15 1568.04 L1359.25 1568.04 L1345.88 1547.83 L1332.41 1568.04 L1325.48 1568.04 L1342.44 1542.68 L1327.64 1520.52 Z" fill="#000000" fill-rule="nonzero" fill-opacity="1" /><path clip-path="url(#clip250)" d="M1368.13 1547.58 L1385.28 1547.58 L1385.28 1552.8 L1368.13 1552.8 L1368.13 1547.58 Z" fill="#000000" fill-rule="nonzero" fill-opacity="1" /><path clip-path="url(#clip250)" d="M1410.81 1550.12 Q1403.71 1550.12 1400.97 1551.75 Q1398.24 1553.37 1398.24 1557.29 Q1398.24 1560.4 1400.27 1562.25 Q1402.34 1564.07 1405.87 1564.07 Q1410.74 1564.07 1413.67 1560.63 Q1416.63 1557.16 1416.63 1551.43 L1416.63 1550.12 L1410.81 1550.12 M1422.49 1547.71 L1422.49 1568.04 L1416.63 1568.04 L1416.63 1562.63 Q1414.63 1565.88 1411.64 1567.44 Q1408.64 1568.97 1404.32 1568.97 Q1398.84 1568.97 1395.59 1565.91 Q1392.38 1562.82 1392.38 1557.67 Q1392.38 1551.65 1396.39 1548.6 Q1400.43 1545.54 1408.42 1545.54 L1416.63 1545.54 L1416.63 1544.97 Q1416.63 1540.93 1413.96 1538.73 Q1411.32 1536.5 1406.51 1536.5 Q1403.46 1536.5 1400.56 1537.23 Q1397.66 1537.97 1394.99 1539.43 L1394.99 1534.02 Q1398.2 1532.78 1401.23 1532.17 Q1404.25 1531.54 1407.12 1531.54 Q1414.85 1531.54 1418.67 1535.55 Q1422.49 1539.56 1422.49 1547.71 Z" fill="#000000" fill-rule="nonzero" fill-opacity="1" /><path clip-path="url(#clip250)" d="M1464.18 1532.4 L1451.29 1549.74 L1464.85 1568.04 L1457.95 1568.04 L1447.57 1554.04 L1437.19 1568.04 L1430.29 1568.04 L1444.13 1549.39 L1431.47 1532.4 L1438.37 1532.4 L1447.82 1545.1 L1457.28 1532.4 L1464.18 1532.4 Z" fill="#000000" fill-rule="nonzero" fill-opacity="1" /><path clip-path="url(#clip250)" d="M1473.13 1532.4 L1478.99 1532.4 L1478.99 1568.04 L1473.13 1568.04 L1473.13 1532.4 M1473.13 1518.52 L1478.99 1518.52 L1478.99 1525.93 L1473.13 1525.93 L1473.13 1518.52 Z" fill="#000000" fill-rule="nonzero" fill-opacity="1" /><path clip-path="url(#clip250)" d="M1513.96 1533.45 L1513.96 1538.98 Q1511.48 1537.71 1508.81 1537.07 Q1506.13 1536.44 1503.27 1536.44 Q1498.91 1536.44 1496.71 1537.77 Q1494.55 1539.11 1494.55 1541.79 Q1494.55 1543.82 1496.11 1545 Q1497.67 1546.15 1502.38 1547.2 L1504.38 1547.64 Q1510.62 1548.98 1513.23 1551.43 Q1515.87 1553.85 1515.87 1558.21 Q1515.87 1563.17 1511.93 1566.07 Q1508.01 1568.97 1501.14 1568.97 Q1498.27 1568.97 1495.15 1568.39 Q1492.07 1567.85 1488.63 1566.74 L1488.63 1560.69 Q1491.88 1562.38 1495.03 1563.24 Q1498.18 1564.07 1501.27 1564.07 Q1505.4 1564.07 1507.63 1562.66 Q1509.86 1561.23 1509.86 1558.65 Q1509.86 1556.27 1508.24 1554.99 Q1506.64 1553.72 1501.2 1552.54 L1499.16 1552.07 Q1493.72 1550.92 1491.3 1548.56 Q1488.88 1546.18 1488.88 1542.04 Q1488.88 1537.01 1492.45 1534.27 Q1496.01 1531.54 1502.57 1531.54 Q1505.82 1531.54 1508.68 1532.01 Q1511.55 1532.49 1513.96 1533.45 Z" fill="#000000" fill-rule="nonzero" fill-opacity="1" /><polyline clip-path="url(#clip252)" style="stroke:#000000; stroke-linecap:round; stroke-linejoin:round; stroke-width:2; stroke-opacity:0.1; fill:none" points="219.866,1249.02 2352.76,1249.02 "/>
<polyline clip-path="url(#clip252)" style="stroke:#000000; stroke-linecap:round; stroke-linejoin:round; stroke-width:2; stroke-opacity:0.1; fill:none" points="219.866,928.603 2352.76,928.603 "/>
<polyline clip-path="url(#clip252)" style="stroke:#000000; stroke-linecap:round; stroke-linejoin:round; stroke-width:2; stroke-opacity:0.1; fill:none" points="219.866,608.186 2352.76,608.186 "/>
<polyline clip-path="url(#clip252)" style="stroke:#000000; stroke-linecap:round; stroke-linejoin:round; stroke-width:2; stroke-opacity:0.1; fill:none" points="219.866,287.769 2352.76,287.769 "/>
<polyline clip-path="url(#clip250)" style="stroke:#000000; stroke-linecap:round; stroke-linejoin:round; stroke-width:4; stroke-opacity:1; fill:none" points="219.866,1423.18 219.866,123.472 "/>
<polyline clip-path="url(#clip250)" style="stroke:#000000; stroke-linecap:round; stroke-linejoin:round; stroke-width:4; stroke-opacity:1; fill:none" points="219.866,1249.02 238.764,1249.02 "/>
<polyline clip-path="url(#clip250)" style="stroke:#000000; stroke-linecap:round; stroke-linejoin:round; stroke-width:4; stroke-opacity:1; fill:none" points="219.866,928.603 238.764,928.603 "/>
<polyline clip-path="url(#clip250)" style="stroke:#000000; stroke-linecap:round; stroke-linejoin:round; stroke-width:4; stroke-opacity:1; fill:none" points="219.866,608.186 238.764,608.186 "/>
<polyline clip-path="url(#clip250)" style="stroke:#000000; stroke-linecap:round; stroke-linejoin:round; stroke-width:4; stroke-opacity:1; fill:none" points="219.866,287.769 238.764,287.769 "/>
<path clip-path="url(#clip250)" d="M128.288 1234.82 Q124.677 1234.82 122.848 1238.38 Q121.043 1241.93 121.043 1249.06 Q121.043 1256.16 122.848 1259.73 Q124.677 1263.27 128.288 1263.27 Q131.922 1263.27 133.728 1259.73 Q135.556 1256.16 135.556 1249.06 Q135.556 1241.93 133.728 1238.38 Q131.922 1234.82 128.288 1234.82 M128.288 1231.12 Q134.098 1231.12 137.154 1235.72 Q140.232 1240.31 140.232 1249.06 Q140.232 1257.78 137.154 1262.39 Q134.098 1266.97 128.288 1266.97 Q122.478 1266.97 119.399 1262.39 Q116.343 1257.78 116.343 1249.06 Q116.343 1240.31 119.399 1235.72 Q122.478 1231.12 128.288 1231.12 Z" fill="#000000" fill-rule="nonzero" fill-opacity="1" /><path clip-path="url(#clip250)" d="M148.45 1260.42 L153.334 1260.42 L153.334 1266.3 L148.45 1266.3 L148.45 1260.42 Z" fill="#000000" fill-rule="nonzero" fill-opacity="1" /><path clip-path="url(#clip250)" d="M167.547 1262.37 L183.866 1262.37 L183.866 1266.3 L161.922 1266.3 L161.922 1262.37 Q164.584 1259.61 169.167 1254.98 Q173.774 1250.33 174.954 1248.99 Q177.2 1246.46 178.079 1244.73 Q178.982 1242.97 178.982 1241.28 Q178.982 1238.52 177.038 1236.79 Q175.116 1235.05 172.014 1235.05 Q169.815 1235.05 167.362 1235.81 Q164.931 1236.58 162.153 1238.13 L162.153 1233.41 Q164.977 1232.27 167.431 1231.69 Q169.885 1231.12 171.922 1231.12 Q177.292 1231.12 180.487 1233.8 Q183.681 1236.49 183.681 1240.98 Q183.681 1243.11 182.871 1245.03 Q182.084 1246.93 179.977 1249.52 Q179.399 1250.19 176.297 1253.41 Q173.195 1256.6 167.547 1262.37 Z" fill="#000000" fill-rule="nonzero" fill-opacity="1" /><path clip-path="url(#clip250)" d="M126.205 914.402 Q122.593 914.402 120.765 917.967 Q118.959 921.508 118.959 928.638 Q118.959 935.744 120.765 939.309 Q122.593 942.851 126.205 942.851 Q129.839 942.851 131.644 939.309 Q133.473 935.744 133.473 928.638 Q133.473 921.508 131.644 917.967 Q129.839 914.402 126.205 914.402 M126.205 910.698 Q132.015 910.698 135.07 915.305 Q138.149 919.888 138.149 928.638 Q138.149 937.365 135.07 941.971 Q132.015 946.554 126.205 946.554 Q120.394 946.554 117.316 941.971 Q114.26 937.365 114.26 928.638 Q114.26 919.888 117.316 915.305 Q120.394 910.698 126.205 910.698 Z" fill="#000000" fill-rule="nonzero" fill-opacity="1" /><path clip-path="url(#clip250)" d="M146.366 940.004 L151.251 940.004 L151.251 945.883 L146.366 945.883 L146.366 940.004 Z" fill="#000000" fill-rule="nonzero" fill-opacity="1" /><path clip-path="url(#clip250)" d="M174.283 915.397 L162.477 933.846 L174.283 933.846 L174.283 915.397 M173.056 911.323 L178.936 911.323 L178.936 933.846 L183.866 933.846 L183.866 937.735 L178.936 937.735 L178.936 945.883 L174.283 945.883 L174.283 937.735 L158.681 937.735 L158.681 933.221 L173.056 911.323 Z" fill="#000000" fill-rule="nonzero" fill-opacity="1" /><path clip-path="url(#clip250)" d="M126.529 593.985 Q122.918 593.985 121.089 597.55 Q119.283 601.091 119.283 608.221 Q119.283 615.327 121.089 618.892 Q122.918 622.434 126.529 622.434 Q130.163 622.434 131.968 618.892 Q133.797 615.327 133.797 608.221 Q133.797 601.091 131.968 597.55 Q130.163 593.985 126.529 593.985 M126.529 590.281 Q132.339 590.281 135.394 594.887 Q138.473 599.471 138.473 608.221 Q138.473 616.948 135.394 621.554 Q132.339 626.137 126.529 626.137 Q120.718 626.137 117.64 621.554 Q114.584 616.948 114.584 608.221 Q114.584 599.471 117.64 594.887 Q120.718 590.281 126.529 590.281 Z" fill="#000000" fill-rule="nonzero" fill-opacity="1" /><path clip-path="url(#clip250)" d="M146.691 619.586 L151.575 619.586 L151.575 625.466 L146.691 625.466 L146.691 619.586 Z" fill="#000000" fill-rule="nonzero" fill-opacity="1" /><path clip-path="url(#clip250)" d="M172.339 606.323 Q169.19 606.323 167.339 608.475 Q165.51 610.628 165.51 614.378 Q165.51 618.105 167.339 620.281 Q169.19 622.434 172.339 622.434 Q175.487 622.434 177.315 620.281 Q179.167 618.105 179.167 614.378 Q179.167 610.628 177.315 608.475 Q175.487 606.323 172.339 606.323 M181.621 591.67 L181.621 595.929 Q179.862 595.096 178.056 594.656 Q176.274 594.216 174.514 594.216 Q169.885 594.216 167.431 597.341 Q165.001 600.466 164.653 606.786 Q166.019 604.772 168.079 603.707 Q170.139 602.619 172.616 602.619 Q177.825 602.619 180.834 605.79 Q183.866 608.938 183.866 614.378 Q183.866 619.702 180.718 622.92 Q177.57 626.137 172.339 626.137 Q166.343 626.137 163.172 621.554 Q160.001 616.948 160.001 608.221 Q160.001 600.026 163.89 595.165 Q167.778 590.281 174.329 590.281 Q176.089 590.281 177.871 590.628 Q179.676 590.975 181.621 591.67 Z" fill="#000000" fill-rule="nonzero" fill-opacity="1" /><path clip-path="url(#clip250)" d="M126.783 273.568 Q123.172 273.568 121.343 277.132 Q119.538 280.674 119.538 287.804 Q119.538 294.91 121.343 298.475 Q123.172 302.016 126.783 302.016 Q130.417 302.016 132.223 298.475 Q134.052 294.91 134.052 287.804 Q134.052 280.674 132.223 277.132 Q130.417 273.568 126.783 273.568 M126.783 269.864 Q132.593 269.864 135.649 274.47 Q138.728 279.054 138.728 287.804 Q138.728 296.53 135.649 301.137 Q132.593 305.72 126.783 305.72 Q120.973 305.72 117.894 301.137 Q114.839 296.53 114.839 287.804 Q114.839 279.054 117.894 274.47 Q120.973 269.864 126.783 269.864 Z" fill="#000000" fill-rule="nonzero" fill-opacity="1" /><path clip-path="url(#clip250)" d="M146.945 299.169 L151.829 299.169 L151.829 305.049 L146.945 305.049 L146.945 299.169 Z" fill="#000000" fill-rule="nonzero" fill-opacity="1" /><path clip-path="url(#clip250)" d="M172.014 288.637 Q168.681 288.637 166.76 290.419 Q164.862 292.202 164.862 295.327 Q164.862 298.452 166.76 300.234 Q168.681 302.016 172.014 302.016 Q175.348 302.016 177.269 300.234 Q179.19 298.429 179.19 295.327 Q179.19 292.202 177.269 290.419 Q175.371 288.637 172.014 288.637 M167.339 286.646 Q164.329 285.905 162.64 283.845 Q160.973 281.785 160.973 278.822 Q160.973 274.679 163.913 272.271 Q166.876 269.864 172.014 269.864 Q177.176 269.864 180.116 272.271 Q183.056 274.679 183.056 278.822 Q183.056 281.785 181.366 283.845 Q179.7 285.905 176.714 286.646 Q180.093 287.433 181.968 289.725 Q183.866 292.017 183.866 295.327 Q183.866 300.35 180.788 303.035 Q177.732 305.72 172.014 305.72 Q166.297 305.72 163.218 303.035 Q160.163 300.35 160.163 295.327 Q160.163 292.017 162.061 289.725 Q163.959 287.433 167.339 286.646 M165.626 279.262 Q165.626 281.947 167.292 283.452 Q168.982 284.956 172.014 284.956 Q175.024 284.956 176.714 283.452 Q178.426 281.947 178.426 279.262 Q178.426 276.577 176.714 275.072 Q175.024 273.568 172.014 273.568 Q168.982 273.568 167.292 275.072 Q165.626 276.577 165.626 279.262 Z" fill="#000000" fill-rule="nonzero" fill-opacity="1" /><path clip-path="url(#clip250)" d="M20.1444 959.905 L26.9239 959.905 Q23.9002 963.151 22.4043 966.843 Q20.9083 970.504 20.9083 974.641 Q20.9083 982.79 25.9054 987.118 Q30.8707 991.447 40.2919 991.447 Q49.6813 991.447 54.6784 987.118 Q59.6436 982.79 59.6436 974.641 Q59.6436 970.504 58.1477 966.843 Q56.6518 963.151 53.6281 959.905 L60.3439 959.905 Q62.6355 963.279 63.7814 967.066 Q64.9272 970.822 64.9272 975.023 Q64.9272 985.813 58.3387 992.02 Q51.7183 998.226 40.2919 998.226 Q28.8336 998.226 22.2451 992.02 Q15.6248 985.813 15.6248 975.023 Q15.6248 970.758 16.7706 967.003 Q17.8846 963.215 20.1444 959.905 Z" fill="#000000" fill-rule="nonzero" fill-opacity="1" /><path clip-path="url(#clip250)" d="M49.9359 950.834 L28.3562 950.834 L28.3562 944.977 L49.7131 944.977 Q54.7739 944.977 57.3202 943.004 Q59.8346 941.031 59.8346 937.084 Q59.8346 932.341 56.8109 929.604 Q53.7872 926.835 48.5673 926.835 L28.3562 926.835 L28.3562 920.979 L64.0042 920.979 L64.0042 926.835 L58.5296 926.835 Q61.7762 928.968 63.3676 931.8 Q64.9272 934.601 64.9272 938.325 Q64.9272 944.468 61.1078 947.651 Q57.2883 950.834 49.9359 950.834 M27.4968 936.097 L27.4968 936.097 Z" fill="#000000" fill-rule="nonzero" fill-opacity="1" /><path clip-path="url(#clip250)" d="M29.4065 886.19 L34.9447 886.19 Q33.6716 888.673 33.035 891.346 Q32.3984 894.02 32.3984 896.884 Q32.3984 901.245 33.7352 903.441 Q35.072 905.605 37.7456 905.605 Q39.7826 905.605 40.9603 904.046 Q42.1061 902.486 43.1565 897.776 L43.6021 895.77 Q44.9389 889.532 47.3897 886.922 Q49.8086 884.28 54.1691 884.28 Q59.1344 884.28 62.0308 888.227 Q64.9272 892.142 64.9272 899.017 Q64.9272 901.881 64.3543 905.001 Q63.8132 908.088 62.6992 911.525 L56.6518 911.525 Q58.3387 908.279 59.198 905.128 Q60.0256 901.977 60.0256 898.89 Q60.0256 894.752 58.6251 892.524 Q57.1929 890.296 54.6147 890.296 Q52.2276 890.296 50.9545 891.919 Q49.6813 893.511 48.5037 898.953 L48.0262 900.99 Q46.8804 906.433 44.5251 908.852 Q42.138 911.271 38.0002 911.271 Q32.9713 911.271 30.2341 907.706 Q27.4968 904.141 27.4968 897.585 Q27.4968 894.338 27.9743 891.473 Q28.4517 888.609 29.4065 886.19 Z" fill="#000000" fill-rule="nonzero" fill-opacity="1" /><path clip-path="url(#clip250)" d="M18.2347 869.162 L28.3562 869.162 L28.3562 857.099 L32.9077 857.099 L32.9077 869.162 L52.2594 869.162 Q56.6199 869.162 57.8613 867.984 Q59.1026 866.775 59.1026 863.114 L59.1026 857.099 L64.0042 857.099 L64.0042 863.114 Q64.0042 869.894 61.4897 872.472 Q58.9434 875.05 52.2594 875.05 L32.9077 875.05 L32.9077 879.347 L28.3562 879.347 L28.3562 875.05 L18.2347 875.05 L18.2347 869.162 Z" fill="#000000" fill-rule="nonzero" fill-opacity="1" /><path clip-path="url(#clip250)" d="M32.4621 835.583 Q32.4621 840.293 36.1542 843.03 Q39.8145 845.768 46.212 845.768 Q52.6095 845.768 56.3017 843.062 Q59.9619 840.325 59.9619 835.583 Q59.9619 830.904 56.2698 828.167 Q52.5777 825.429 46.212 825.429 Q39.8781 825.429 36.186 828.167 Q32.4621 830.904 32.4621 835.583 M27.4968 835.583 Q27.4968 827.944 32.4621 823.583 Q37.4273 819.223 46.212 819.223 Q54.9649 819.223 59.9619 823.583 Q64.9272 827.944 64.9272 835.583 Q64.9272 843.253 59.9619 847.614 Q54.9649 851.942 46.212 851.942 Q37.4273 851.942 32.4621 847.614 Q27.4968 843.253 27.4968 835.583 Z" fill="#000000" fill-rule="nonzero" fill-opacity="1" /><path clip-path="url(#clip250)" d="M35.1993 781.761 Q31.2526 779.564 29.3747 776.509 Q27.4968 773.453 27.4968 769.316 Q27.4968 763.746 31.4117 760.722 Q35.2948 757.698 42.4881 757.698 L64.0042 757.698 L64.0042 763.586 L42.679 763.586 Q37.5546 763.586 35.072 765.401 Q32.5894 767.215 32.5894 770.939 Q32.5894 775.49 35.6131 778.132 Q38.6368 780.774 43.8567 780.774 L64.0042 780.774 L64.0042 786.662 L42.679 786.662 Q37.5228 786.662 35.072 788.476 Q32.5894 790.291 32.5894 794.078 Q32.5894 798.566 35.6449 801.208 Q38.6686 803.85 43.8567 803.85 L64.0042 803.85 L64.0042 809.738 L28.3562 809.738 L28.3562 803.85 L33.8944 803.85 Q30.616 801.844 29.0564 799.043 Q27.4968 796.243 27.4968 792.391 Q27.4968 788.508 29.4702 785.803 Q31.4436 783.066 35.1993 781.761 Z" fill="#000000" fill-rule="nonzero" fill-opacity="1" /><path clip-path="url(#clip250)" d="M16.4842 731.567 L16.4842 724.66 L36.0269 711.483 L16.4842 698.402 L16.4842 691.495 L41.3741 708.3 L64.0042 708.3 L64.0042 714.761 L41.3741 714.761 L16.4842 731.567 Z" fill="#000000" fill-rule="nonzero" fill-opacity="1" /><path clip-path="url(#clip250)" d="M43.5384 696.174 L43.5384 679.018 L48.7583 679.018 L48.7583 696.174 L43.5384 696.174 Z" fill="#000000" fill-rule="nonzero" fill-opacity="1" /><path clip-path="url(#clip250)" d="M46.0847 653.492 Q46.0847 660.589 47.7079 663.327 Q49.3312 666.064 53.2461 666.064 Q56.3653 666.064 58.2114 664.027 Q60.0256 661.958 60.0256 658.425 Q60.0256 653.555 56.5881 650.627 Q53.1188 647.667 47.3897 647.667 L46.0847 647.667 L46.0847 653.492 M43.6657 641.81 L64.0042 641.81 L64.0042 647.667 L58.5933 647.667 Q61.8398 649.672 63.3994 652.664 Q64.9272 655.656 64.9272 659.985 Q64.9272 665.459 61.8716 668.706 Q58.7843 671.92 53.6281 671.92 Q47.6125 671.92 44.5569 667.91 Q41.5014 663.868 41.5014 655.879 L41.5014 647.667 L40.9285 647.667 Q36.8862 647.667 34.6901 650.341 Q32.4621 652.982 32.4621 657.788 Q32.4621 660.844 33.1941 663.74 Q33.9262 666.637 35.3903 669.31 L29.9795 669.31 Q28.7381 666.096 28.1334 663.072 Q27.4968 660.048 27.4968 657.184 Q27.4968 649.449 31.5072 645.63 Q35.5176 641.81 43.6657 641.81 Z" fill="#000000" fill-rule="nonzero" fill-opacity="1" /><path clip-path="url(#clip250)" d="M28.3562 600.115 L45.7028 613.006 L64.0042 599.447 L64.0042 606.353 L49.9996 616.73 L64.0042 627.106 L64.0042 634.012 L45.3526 620.167 L28.3562 632.835 L28.3562 625.928 L41.0558 616.475 L28.3562 607.022 L28.3562 600.115 Z" fill="#000000" fill-rule="nonzero" fill-opacity="1" /><path clip-path="url(#clip250)" d="M28.3562 591.171 L28.3562 585.315 L64.0042 585.315 L64.0042 591.171 L28.3562 591.171 M14.479 591.171 L14.479 585.315 L21.895 585.315 L21.895 591.171 L14.479 591.171 Z" fill="#000000" fill-rule="nonzero" fill-opacity="1" /><path clip-path="url(#clip250)" d="M29.4065 550.335 L34.9447 550.335 Q33.6716 552.818 33.035 555.492 Q32.3984 558.165 32.3984 561.03 Q32.3984 565.39 33.7352 567.586 Q35.072 569.751 37.7456 569.751 Q39.7826 569.751 40.9603 568.191 Q42.1061 566.631 43.1565 561.921 L43.6021 559.916 Q44.9389 553.677 47.3897 551.067 Q49.8086 548.426 54.1691 548.426 Q59.1344 548.426 62.0308 552.372 Q64.9272 556.287 64.9272 563.162 Q64.9272 566.027 64.3543 569.146 Q63.8132 572.233 62.6992 575.671 L56.6518 575.671 Q58.3387 572.424 59.198 569.273 Q60.0256 566.122 60.0256 563.035 Q60.0256 558.897 58.6251 556.669 Q57.1929 554.441 54.6147 554.441 Q52.2276 554.441 50.9545 556.064 Q49.6813 557.656 48.5037 563.099 L48.0262 565.136 Q46.8804 570.578 44.5251 572.997 Q42.138 575.416 38.0002 575.416 Q32.9713 575.416 30.2341 571.851 Q27.4968 568.287 27.4968 561.73 Q27.4968 558.483 27.9743 555.619 Q28.4517 552.754 29.4065 550.335 Z" fill="#000000" fill-rule="nonzero" fill-opacity="1" /><path clip-path="url(#clip250)" d="M887.621 16.7545 L887.621 25.383 Q883.489 21.5346 878.79 19.6307 Q874.132 17.7268 868.865 17.7268 Q858.495 17.7268 852.986 24.0867 Q847.477 30.4061 847.477 42.3968 Q847.477 54.3469 852.986 60.7069 Q858.495 67.0263 868.865 67.0263 Q874.132 67.0263 878.79 65.1223 Q883.489 63.2184 887.621 59.3701 L887.621 67.9175 Q883.327 70.8341 878.507 72.2924 Q873.726 73.7508 868.379 73.7508 Q854.647 73.7508 846.747 65.3654 Q838.848 56.9395 838.848 42.3968 Q838.848 27.8135 846.747 19.4281 Q854.647 11.0023 868.379 11.0023 Q873.808 11.0023 878.588 12.4606 Q883.408 13.8784 887.621 16.7545 Z" fill="#000000" fill-rule="nonzero" fill-opacity="1" /><path clip-path="url(#clip250)" d="M899.166 54.671 L899.166 27.2059 L906.62 27.2059 L906.62 54.3874 Q906.62 60.8284 909.131 64.0691 Q911.643 67.2693 916.666 67.2693 Q922.702 67.2693 926.186 63.421 Q929.71 59.5726 929.71 52.9291 L929.71 27.2059 L937.164 27.2059 L937.164 72.576 L929.71 72.576 L929.71 65.6084 Q926.996 69.7404 923.391 71.7658 Q919.826 73.7508 915.086 73.7508 Q907.268 73.7508 903.217 68.8897 Q899.166 64.0286 899.166 54.671 M917.922 26.1121 L917.922 26.1121 Z" fill="#000000" fill-rule="nonzero" fill-opacity="1" /><path clip-path="url(#clip250)" d="M981.44 28.5427 L981.44 35.5912 Q978.28 33.9709 974.878 33.1607 Q971.475 32.3505 967.829 32.3505 Q962.279 32.3505 959.484 34.0519 Q956.73 35.7533 956.73 39.156 Q956.73 41.7486 958.714 43.2475 Q960.699 44.7058 966.695 46.0426 L969.247 46.6097 Q977.187 48.3111 980.508 51.4303 Q983.871 54.509 983.871 60.0587 Q983.871 66.3781 978.847 70.0644 Q973.865 73.7508 965.115 73.7508 Q961.469 73.7508 957.499 73.0216 Q953.57 72.3329 949.195 70.9151 L949.195 63.2184 Q953.327 65.3654 957.337 66.4591 Q961.348 67.5124 965.277 67.5124 Q970.543 67.5124 973.379 65.73 Q976.214 63.9071 976.214 60.6258 Q976.214 57.5877 974.148 55.9673 Q972.123 54.3469 965.196 52.8481 L962.603 52.2405 Q955.676 50.7821 952.598 47.7845 Q949.519 44.7463 949.519 39.4801 Q949.519 33.0797 954.056 29.5959 Q958.593 26.1121 966.938 26.1121 Q971.07 26.1121 974.716 26.7198 Q978.361 27.3274 981.44 28.5427 Z" fill="#000000" fill-rule="nonzero" fill-opacity="1" /><path clip-path="url(#clip250)" d="M1003.11 14.324 L1003.11 27.2059 L1018.47 27.2059 L1018.47 32.9987 L1003.11 32.9987 L1003.11 57.6282 Q1003.11 63.1779 1004.61 64.7578 Q1006.15 66.3376 1010.81 66.3376 L1018.47 66.3376 L1018.47 72.576 L1010.81 72.576 Q1002.18 72.576 998.899 69.3758 Q995.618 66.1351 995.618 57.6282 L995.618 32.9987 L990.149 32.9987 L990.149 27.2059 L995.618 27.2059 L995.618 14.324 L1003.11 14.324 Z" fill="#000000" fill-rule="nonzero" fill-opacity="1" /><path clip-path="url(#clip250)" d="M1045.85 32.4315 Q1039.85 32.4315 1036.37 37.1306 Q1032.89 41.7891 1032.89 49.9314 Q1032.89 58.0738 1036.33 62.7728 Q1039.81 67.4314 1045.85 67.4314 Q1051.8 67.4314 1055.29 62.7323 Q1058.77 58.0333 1058.77 49.9314 Q1058.77 41.8701 1055.29 37.1711 Q1051.8 32.4315 1045.85 32.4315 M1045.85 26.1121 Q1055.57 26.1121 1061.12 32.4315 Q1066.67 38.7509 1066.67 49.9314 Q1066.67 61.0714 1061.12 67.4314 Q1055.57 73.7508 1045.85 73.7508 Q1036.09 73.7508 1030.54 67.4314 Q1025.03 61.0714 1025.03 49.9314 Q1025.03 38.7509 1030.54 32.4315 Q1036.09 26.1121 1045.85 26.1121 Z" fill="#000000" fill-rule="nonzero" fill-opacity="1" /><path clip-path="url(#clip250)" d="M1114.35 35.9153 Q1117.15 30.8922 1121.03 28.5022 Q1124.92 26.1121 1130.19 26.1121 Q1137.28 26.1121 1141.13 31.0947 Q1144.98 36.0368 1144.98 45.1919 L1144.98 72.576 L1137.48 72.576 L1137.48 45.4349 Q1137.48 38.913 1135.17 35.7533 Q1132.86 32.5936 1128.12 32.5936 Q1122.33 32.5936 1118.97 36.4419 Q1115.61 40.2903 1115.61 46.9338 L1115.61 72.576 L1108.11 72.576 L1108.11 45.4349 Q1108.11 38.8725 1105.8 35.7533 Q1103.49 32.5936 1098.67 32.5936 Q1092.96 32.5936 1089.6 36.4824 Q1086.24 40.3308 1086.24 46.9338 L1086.24 72.576 L1078.74 72.576 L1078.74 27.2059 L1086.24 27.2059 L1086.24 34.2544 Q1088.79 30.082 1092.35 28.0971 Q1095.92 26.1121 1100.82 26.1121 Q1105.76 26.1121 1109.21 28.6237 Q1112.69 31.1352 1114.35 35.9153 Z" fill="#000000" fill-rule="nonzero" fill-opacity="1" /><path clip-path="url(#clip250)" d="M1186.54 12.096 L1194.72 12.096 L1194.72 65.6895 L1224.17 65.6895 L1224.17 72.576 L1186.54 72.576 L1186.54 12.096 Z" fill="#000000" fill-rule="nonzero" fill-opacity="1" /><path clip-path="url(#clip250)" d="M1232.43 27.2059 L1239.89 27.2059 L1239.89 72.576 L1232.43 72.576 L1232.43 27.2059 M1232.43 9.54393 L1239.89 9.54393 L1239.89 18.9825 L1232.43 18.9825 L1232.43 9.54393 Z" fill="#000000" fill-rule="nonzero" fill-opacity="1" /><path clip-path="url(#clip250)" d="M1293.2 45.1919 L1293.2 72.576 L1285.74 72.576 L1285.74 45.4349 Q1285.74 38.994 1283.23 35.7938 Q1280.72 32.5936 1275.7 32.5936 Q1269.66 32.5936 1266.18 36.4419 Q1262.69 40.2903 1262.69 46.9338 L1262.69 72.576 L1255.2 72.576 L1255.2 27.2059 L1262.69 27.2059 L1262.69 34.2544 Q1265.37 30.163 1268.97 28.1376 Q1272.62 26.1121 1277.36 26.1121 Q1285.18 26.1121 1289.19 30.9732 Q1293.2 35.7938 1293.2 45.1919 Z" fill="#000000" fill-rule="nonzero" fill-opacity="1" /><path clip-path="url(#clip250)" d="M1346.87 48.0275 L1346.87 51.6733 L1312.6 51.6733 Q1313.09 59.3701 1317.22 63.421 Q1321.39 67.4314 1328.81 67.4314 Q1333.1 67.4314 1337.11 66.3781 Q1341.16 65.3249 1345.13 63.2184 L1345.13 70.267 Q1341.12 71.9684 1336.91 72.8596 Q1332.69 73.7508 1328.36 73.7508 Q1317.5 73.7508 1311.14 67.4314 Q1304.82 61.1119 1304.82 50.3365 Q1304.82 39.1965 1310.82 32.6746 Q1316.85 26.1121 1327.06 26.1121 Q1336.22 26.1121 1341.52 32.0264 Q1346.87 37.9003 1346.87 48.0275 M1339.42 45.84 Q1339.34 39.7232 1335.98 36.0774 Q1332.65 32.4315 1327.14 32.4315 Q1320.91 32.4315 1317.14 35.9558 Q1313.41 39.4801 1312.84 45.8805 L1339.42 45.84 Z" fill="#000000" fill-rule="nonzero" fill-opacity="1" /><path clip-path="url(#clip250)" d="M1393.98 18.8205 L1393.98 41.5461 L1404.27 41.5461 Q1409.99 41.5461 1413.1 38.5889 Q1416.22 35.6318 1416.22 30.163 Q1416.22 24.7348 1413.1 21.7777 Q1409.99 18.8205 1404.27 18.8205 L1393.98 18.8205 M1385.8 12.096 L1404.27 12.096 Q1414.44 12.096 1419.63 16.714 Q1424.85 21.2916 1424.85 30.163 Q1424.85 39.1155 1419.63 43.6931 Q1414.44 48.2706 1404.27 48.2706 L1393.98 48.2706 L1393.98 72.576 L1385.8 72.576 L1385.8 12.096 Z" fill="#000000" fill-rule="nonzero" fill-opacity="1" /><path clip-path="url(#clip250)" d="M1435.51 9.54393 L1442.96 9.54393 L1442.96 72.576 L1435.51 72.576 L1435.51 9.54393 Z" fill="#000000" fill-rule="nonzero" fill-opacity="1" /><path clip-path="url(#clip250)" d="M1476.14 32.4315 Q1470.14 32.4315 1466.66 37.1306 Q1463.17 41.7891 1463.17 49.9314 Q1463.17 58.0738 1466.62 62.7728 Q1470.1 67.4314 1476.14 67.4314 Q1482.09 67.4314 1485.58 62.7323 Q1489.06 58.0333 1489.06 49.9314 Q1489.06 41.8701 1485.58 37.1711 Q1482.09 32.4315 1476.14 32.4315 M1476.14 26.1121 Q1485.86 26.1121 1491.41 32.4315 Q1496.96 38.7509 1496.96 49.9314 Q1496.96 61.0714 1491.41 67.4314 Q1485.86 73.7508 1476.14 73.7508 Q1466.37 73.7508 1460.82 67.4314 Q1455.31 61.0714 1455.31 49.9314 Q1455.31 38.7509 1460.82 32.4315 Q1466.37 26.1121 1476.14 26.1121 Z" fill="#000000" fill-rule="nonzero" fill-opacity="1" /><path clip-path="url(#clip250)" d="M1516.69 14.324 L1516.69 27.2059 L1532.04 27.2059 L1532.04 32.9987 L1516.69 32.9987 L1516.69 57.6282 Q1516.69 63.1779 1518.18 64.7578 Q1519.72 66.3376 1524.38 66.3376 L1532.04 66.3376 L1532.04 72.576 L1524.38 72.576 Q1515.75 72.576 1512.47 69.3758 Q1509.19 66.1351 1509.19 57.6282 L1509.19 32.9987 L1503.72 32.9987 L1503.72 27.2059 L1509.19 27.2059 L1509.19 14.324 L1516.69 14.324 Z" fill="#000000" fill-rule="nonzero" fill-opacity="1" /><path clip-path="url(#clip250)" d="M1560.15 12.096 L1611.32 12.096 L1611.32 18.9825 L1589.85 18.9825 L1589.85 72.576 L1581.62 72.576 L1581.62 18.9825 L1560.15 18.9825 L1560.15 12.096 Z" fill="#000000" fill-rule="nonzero" fill-opacity="1" /><path clip-path="url(#clip250)" d="M1616.34 27.2059 L1623.79 27.2059 L1623.79 72.576 L1616.34 72.576 L1616.34 27.2059 M1616.34 9.54393 L1623.79 9.54393 L1623.79 18.9825 L1616.34 18.9825 L1616.34 9.54393 Z" fill="#000000" fill-rule="nonzero" fill-opacity="1" /><path clip-path="url(#clip250)" d="M1646.76 14.324 L1646.76 27.2059 L1662.11 27.2059 L1662.11 32.9987 L1646.76 32.9987 L1646.76 57.6282 Q1646.76 63.1779 1648.26 64.7578 Q1649.8 66.3376 1654.46 66.3376 L1662.11 66.3376 L1662.11 72.576 L1654.46 72.576 Q1645.83 72.576 1642.55 69.3758 Q1639.27 66.1351 1639.27 57.6282 L1639.27 32.9987 L1633.8 32.9987 L1633.8 27.2059 L1639.27 27.2059 L1639.27 14.324 L1646.76 14.324 Z" fill="#000000" fill-rule="nonzero" fill-opacity="1" /><path clip-path="url(#clip250)" d="M1671.92 9.54393 L1679.37 9.54393 L1679.37 72.576 L1671.92 72.576 L1671.92 9.54393 Z" fill="#000000" fill-rule="nonzero" fill-opacity="1" /><path clip-path="url(#clip250)" d="M1733.77 48.0275 L1733.77 51.6733 L1699.5 51.6733 Q1699.99 59.3701 1704.12 63.421 Q1708.29 67.4314 1715.71 67.4314 Q1720 67.4314 1724.01 66.3781 Q1728.06 65.3249 1732.03 63.2184 L1732.03 70.267 Q1728.02 71.9684 1723.81 72.8596 Q1719.6 73.7508 1715.26 73.7508 Q1704.4 73.7508 1698.04 67.4314 Q1691.73 61.1119 1691.73 50.3365 Q1691.73 39.1965 1697.72 32.6746 Q1703.76 26.1121 1713.97 26.1121 Q1723.12 26.1121 1728.43 32.0264 Q1733.77 37.9003 1733.77 48.0275 M1726.32 45.84 Q1726.24 39.7232 1722.88 36.0774 Q1719.56 32.4315 1714.05 32.4315 Q1707.81 32.4315 1704.04 35.9558 Q1700.31 39.4801 1699.75 45.8805 L1726.32 45.84 Z" fill="#000000" fill-rule="nonzero" fill-opacity="1" /><polyline clip-path="url(#clip252)" style="stroke:#009af9; stroke-linecap:round; stroke-linejoin:round; stroke-width:4; stroke-opacity:1; fill:none" points="280.231,310.169 503.804,800.659 727.378,160.256 950.951,409.114 1174.52,1067.09 1398.1,183.782 1621.67,832.002 1845.24,659.71 2068.82,615.265 2292.39,1386.4 "/>
<path clip-path="url(#clip250)" d="M2015.94 270.476 L2281.66 270.476 L2281.66 166.796 L2015.94 166.796  Z" fill="#ffffff" fill-rule="evenodd" fill-opacity="1"/>
<polyline clip-path="url(#clip250)" style="stroke:#000000; stroke-linecap:round; stroke-linejoin:round; stroke-width:4; stroke-opacity:1; fill:none" points="2015.94,270.476 2281.66,270.476 2281.66,166.796 2015.94,166.796 2015.94,270.476 "/>
<polyline clip-path="url(#clip250)" style="stroke:#009af9; stroke-linecap:round; stroke-linejoin:round; stroke-width:4; stroke-opacity:1; fill:none" points="2039.64,218.636 2181.83,218.636 "/>
<path clip-path="url(#clip250)" d="M2219.37 238.323 Q2217.57 242.953 2215.85 244.365 Q2214.14 245.777 2211.27 245.777 L2207.87 245.777 L2207.87 242.212 L2210.37 242.212 Q2212.13 242.212 2213.1 241.379 Q2214.07 240.545 2215.25 237.443 L2216.02 235.499 L2205.53 209.99 L2210.04 209.99 L2218.15 230.268 L2226.25 209.99 L2230.76 209.99 L2219.37 238.323 Z" fill="#000000" fill-rule="nonzero" fill-opacity="1" /><path clip-path="url(#clip250)" d="M2238.05 231.981 L2245.69 231.981 L2245.69 205.615 L2237.38 207.282 L2237.38 203.022 L2245.65 201.356 L2250.32 201.356 L2250.32 231.981 L2257.96 231.981 L2257.96 235.916 L2238.05 235.916 L2238.05 231.981 Z" fill="#000000" fill-rule="nonzero" fill-opacity="1" /></svg>